NotoSerifTamil-SemiCondensedSemiBold.ufo
<glyph name="exclam" format="2">
  <advance width="340.18735632183905"/>
  <unicode hex="0021"/>
  <outline>
    <contour>
      <point x="145.42528735632186" y="215.29310344827587" type="line"/>
      <point x="194.38275862068966" y="215.29310344827587" type="line"/>
      <point x="242.04137931034484" y="714.0" type="line"/>
      <point x="97.76666666666667" y="714.0" type="line"/>
    </contour>
    <contour>
      <point x="170.59425287356322" y="-7.393103448275862" type="curve" smooth="yes"/>
      <point x="208.00689655172414" y="-7.393103448275862"/>
      <point x="240.30459770114942" y="10.508045977011495"/>
      <point x="240.30459770114942" y="65.62758620689655" type="curve" smooth="yes"/>
      <point x="240.30459770114942" y="121.15287356321839"/>
      <point x="208.00689655172414" y="138.64827586206897"/>
      <point x="170.59425287356322" y="138.64827586206897" type="curve" smooth="yes"/>
      <point x="131.4218390804598" y="138.64827586206897"/>
      <point x="100.88390804597701" y="121.15287356321839"/>
      <point x="100.88390804597701" y="65.62758620689655" type="curve" smooth="yes"/>
      <point x="100.88390804597701" y="10.508045977011495"/>
      <point x="131.4218390804598" y="-7.393103448275862"/>
    </contour>
  </outline>
</glyph>
<glyph name="quotedbl" format="2">
  <advance width="442.0505747126437"/>
  <unicode hex="0022"/>
  <outline>
    <contour>
      <point x="296.480459770115" y="457.68735632183905" type="line"/>
      <point x="351.6954022988506" y="457.68735632183905" type="line"/>
      <point x="382.5988505747126" y="714.0" type="line"/>
      <point x="252.6954022988506" y="714.0" type="line"/>
    </contour>
    <contour>
      <point x="96.75172413793103" y="457.68735632183905" type="line"/>
      <point x="151.82758620689657" y="457.68735632183905" type="line"/>
      <point x="189.35517241379313" y="714.0" type="line"/>
      <point x="59.31264367816092" y="714.0" type="line"/>
    </contour>
  </outline>
</glyph>
<glyph name="numbersign" format="2">
  <advance width="519.4252873563219"/>
  <unicode hex="0023"/>
  <outline>
    <contour>
      <point x="71.62873563218392" y="0.0" type="line"/>
      <point x="137.07816091954024" y="0.0" type="line"/>
      <point x="175.44482758620688" y="202.28850574712644" type="line"/>
      <point x="283.0735632183908" y="202.28850574712644" type="line"/>
      <point x="245.55517241379312" y="0.0" type="line"/>
      <point x="311.0045977011494" y="0.0" type="line"/>
      <point x="348.7505747126437" y="202.28850574712644" type="line"/>
      <point x="466.7965517241379" y="202.28850574712644" type="line"/>
      <point x="466.7965517241379" y="265.7" type="line"/>
      <point x="361.4862068965517" y="265.7" type="line"/>
      <point x="396.9908045977011" y="453.5402298850575" type="line"/>
      <point x="498.79655172413794" y="453.5402298850575" type="line"/>
      <point x="498.79655172413794" y="517.8505747126436" type="line"/>
      <point x="408.8655172413793" y="517.8505747126436" type="line"/>
      <point x="446.0045977011494" y="714.0" type="line"/>
      <point x="380.416091954023" y="714.0" type="line"/>
      <point x="343.18850574712644" y="517.8505747126436" type="line"/>
      <point x="235.55977011494252" y="517.8505747126436" type="line"/>
      <point x="272.0781609195402" y="714.0" type="line"/>
      <point x="205.6287356321839" y="714.0" type="line"/>
      <point x="169.88275862068966" y="517.8505747126436" type="line"/>
      <point x="52.48965517241379" y="517.8505747126436" type="line"/>
      <point x="52.48965517241379" y="453.5402298850575" type="line"/>
      <point x="157.64137931034483" y="453.5402298850575" type="line"/>
      <point x="121.64252873563217" y="265.7" type="line"/>
      <point x="20.489655172413794" y="265.7" type="line"/>
      <point x="20.489655172413794" y="202.28850574712644" type="line"/>
      <point x="109.76781609195402" y="202.28850574712644" type="line"/>
    </contour>
    <contour>
      <point x="187.55977011494252" y="265.7" type="line"/>
      <point x="223.68505747126437" y="453.5402298850575" type="line"/>
      <point x="331.9344827586207" y="453.5402298850575" type="line"/>
      <point x="296.0367816091954" y="265.7" type="line"/>
    </contour>
  </outline>
</glyph>
<glyph name="percent" format="2">
  <advance width="838.4701149425288"/>
  <unicode hex="0025"/>
  <outline>
    <contour>
      <point x="221.64137931034483" y="0.0" type="line"/>
      <point x="290.3735632183908" y="0.0" type="line"/>
      <point x="613.4229885057472" y="714.0" type="line"/>
      <point x="545.4632183908046" y="714.0" type="line"/>
    </contour>
    <contour>
      <point x="197.2471264367816" y="280.0" type="curve" smooth="yes"/>
      <point x="306.5137931034482" y="280.0"/>
      <point x="359.9505747126437" y="369.0"/>
      <point x="359.9505747126437" y="503.0" type="curve"/>
      <point x="359.9505747126437" y="637.0"/>
      <point x="306.5137931034482" y="724.0"/>
      <point x="198.01954022988505" y="724.0" type="curve" smooth="yes"/>
      <point x="82.72643678160921" y="724.0"/>
      <point x="34.682758620689654" y="637.0"/>
      <point x="34.682758620689654" y="503.0" type="curve" smooth="yes"/>
      <point x="34.682758620689654" y="369.0"/>
      <point x="82.72643678160921" y="280.0"/>
    </contour>
    <contour>
      <point x="197.2471264367816" y="324.75287356321843" type="curve" smooth="yes"/>
      <point x="148.77816091954023" y="324.75287356321843"/>
      <point x="131.25862068965517" y="389.89080459770116"/>
      <point x="131.25862068965517" y="503.0" type="curve"/>
      <point x="131.25862068965517" y="614.1091954022988"/>
      <point x="148.77816091954023" y="678.2471264367816"/>
      <point x="198.01954022988505" y="678.2471264367816" type="curve" smooth="yes"/>
      <point x="246.716091954023" y="678.2471264367816"/>
      <point x="262.37471264367815" y="614.1091954022988"/>
      <point x="262.37471264367815" y="503.0" type="curve" smooth="yes"/>
      <point x="262.37471264367815" y="389.89080459770116"/>
      <point x="246.716091954023" y="324.75287356321843"/>
    </contour>
    <contour>
      <point x="641.0839080459771" y="-10.0" type="curve" smooth="yes"/>
      <point x="750.5781609195402" y="-10.0"/>
      <point x="803.7873563218392" y="79.0"/>
      <point x="803.7873563218392" y="213.0" type="curve" smooth="yes"/>
      <point x="803.7873563218392" y="347.0"/>
      <point x="750.5781609195402" y="434.0"/>
      <point x="642.0839080459771" y="434.0" type="curve" smooth="yes"/>
      <point x="526.9298850574713" y="434.0"/>
      <point x="478.7471264367816" y="347.0"/>
      <point x="478.7471264367816" y="213.0" type="curve" smooth="yes"/>
      <point x="478.7471264367816" y="79.0"/>
      <point x="526.9298850574713" y="-10.0"/>
    </contour>
    <contour>
      <point x="641.0839080459771" y="34.75287356321839" type="curve" smooth="yes"/>
      <point x="592.8425287356322" y="34.75287356321839"/>
      <point x="575.3229885057472" y="99.89080459770115"/>
      <point x="575.3229885057472" y="213.0" type="curve" smooth="yes"/>
      <point x="575.3229885057472" y="324.10919540229884"/>
      <point x="592.8425287356322" y="388.24712643678157"/>
      <point x="641.944827586207" y="388.24712643678157" type="curve" smooth="yes"/>
      <point x="690.5528735632184" y="388.24712643678157"/>
      <point x="706.43908045977" y="324.10919540229884"/>
      <point x="706.43908045977" y="213.0" type="curve" smooth="yes"/>
      <point x="706.43908045977" y="99.89080459770115"/>
      <point x="690.5528735632184" y="34.75287356321839"/>
    </contour>
  </outline>
</glyph>
<glyph name="parenleft" format="2">
  <advance width="355.1908045977011"/>
  <unicode hex="0028"/>
  <outline>
    <contour>
      <point x="325.8965517241379" y="-133.7781609195402" type="curve"/>
      <point x="325.8965517241379" y="-78.24942528735632" type="line"/>
      <point x="206.7390804597701" y="4.129885057471265"/>
      <point x="185.49310344827586" y="158.39310344827587"/>
      <point x="185.49310344827586" y="317.3931034482759" type="curve" smooth="yes"/>
      <point x="185.49310344827586" y="476.0"/>
      <point x="206.7390804597701" y="629.1241379310345"/>
      <point x="325.8965517241379" y="711.8701149425287" type="curve"/>
      <point x="325.8965517241379" y="766.2597701149425" type="line"/>
      <point x="130.28275862068966" y="685.1114942528736"/>
      <point x="52.827586206896555" y="544.3413793103449"/>
      <point x="52.827586206896555" y="317.3931034482759" type="curve" smooth="yes"/>
      <point x="52.827586206896555" y="89.67241379310346"/>
      <point x="130.28275862068966" y="-52.12413793103448"/>
    </contour>
  </outline>
</glyph>
<glyph name="parenright" format="2">
  <advance width="355.1908045977011"/>
  <unicode hex="0029"/>
  <outline>
    <contour>
      <point x="29.433333333333334" y="-133.7781609195402" type="line"/>
      <point x="225.27471264367816" y="-52.12413793103448"/>
      <point x="302.50229885057473" y="89.67241379310346"/>
      <point x="302.50229885057473" y="317.3931034482759" type="curve" smooth="yes"/>
      <point x="302.50229885057473" y="544.3413793103449"/>
      <point x="225.27471264367816" y="685.1114942528736"/>
      <point x="29.433333333333334" y="766.2597701149425" type="curve"/>
      <point x="29.433333333333334" y="711.8701149425287" type="line"/>
      <point x="148.59080459770115" y="629.1241379310345"/>
      <point x="169.9758620689655" y="476.0"/>
      <point x="169.9758620689655" y="317.3931034482759" type="curve" smooth="yes"/>
      <point x="169.9758620689655" y="158.39310344827587"/>
      <point x="148.59080459770115" y="4.129885057471265"/>
      <point x="29.433333333333334" y="-78.24942528735632" type="curve"/>
    </contour>
  </outline>
</glyph>
<glyph name="asterisk" format="2">
  <advance width="460.7816091954023"/>
  <unicode hex="002A"/>
  <outline>
    <contour>
      <point x="182.83793103448278" y="370.8436781609195" type="line"/>
      <point x="278.1850574712644" y="370.8436781609195" type="line"/>
      <point x="247.9011494252874" y="533.1218390804598" type="line"/>
      <point x="386.9517241379311" y="433.97701149425285" type="line"/>
      <point x="425.7310344827586" y="521.2436781609196" type="line"/>
      <point x="278.935632183908" y="565.6183908045977" type="line"/>
      <point x="425.7310344827586" y="609.6" type="line"/>
      <point x="386.9517241379311" y="698.0057471264367" type="line"/>
      <point x="247.9011494252874" y="598.1149425287357" type="line"/>
      <point x="278.57816091954027" y="760.0" type="line"/>
      <point x="182.83793103448278" y="760.0" type="line"/>
      <point x="211.34942528735633" y="596.7218390804599" type="line"/>
      <point x="72.84367816091954" y="700.0057471264367" type="line"/>
      <point x="34.291954022988506" y="610.6" type="line"/>
      <point x="181.07471264367817" y="565.6183908045977" type="line"/>
      <point x="34.291954022988506" y="520.2436781609196" type="line"/>
      <point x="72.84367816091954" y="432.59770114942523" type="line"/>
      <point x="210.34942528735633" y="534.1091954022988" type="line"/>
    </contour>
  </outline>
</glyph>
<glyph name="plus" format="2">
  <advance width="509.8666666666667"/>
  <unicode hex="002B"/>
  <outline>
    <contour>
      <point x="220.9367816091954" y="143.0" type="line"/>
      <point x="287.79080459770114" y="143.0" type="line"/>
      <point x="287.79080459770114" y="324.87011494252874" type="line"/>
      <point x="454.07126436781607" y="324.87011494252874" type="line"/>
      <point x="454.07126436781607" y="390.12988505747126" type="line"/>
      <point x="287.79080459770114" y="390.12988505747126" type="line"/>
      <point x="287.79080459770114" y="572.0" type="line"/>
      <point x="220.9367816091954" y="572.0" type="line"/>
      <point x="220.9367816091954" y="390.12988505747126" type="line"/>
      <point x="55.795402298850576" y="390.12988505747126" type="line"/>
      <point x="55.795402298850576" y="324.87011494252874" type="line"/>
      <point x="220.9367816091954" y="324.87011494252874" type="line"/>
    </contour>
  </outline>
</glyph>
<glyph name="comma" format="2">
  <advance width="259.9505747126437"/>
  <unicode hex="002C"/>
  <outline>
    <contour>
      <point x="38.45057471264368" y="-154.0" type="line"/>
      <point x="154.5551724137931" y="-119.87241379310345"/>
      <point x="198.23218390804598" y="-45.38965517241379"/>
      <point x="198.23218390804598" y="37.726436781609195" type="curve" smooth="yes"/>
      <point x="198.23218390804598" y="100.99770114942528"/>
      <point x="166.4045977011494" y="138.64827586206897"/>
      <point x="118.83793103448275" y="138.64827586206897" type="curve" smooth="yes"/>
      <point x="82.56666666666668" y="138.64827586206897"/>
      <point x="54.58850574712643" y="116.15287356321839"/>
      <point x="54.58850574712643" y="75.64137931034483" type="curve" smooth="yes"/>
      <point x="54.58850574712643" y="5.870114942528735"/>
      <point x="120.88735632183908" y="13.860919540229885"/>
      <point x="120.88735632183908" y="-24.02528735632184" type="curve" smooth="yes"/>
      <point x="120.88735632183908" y="-61.786206896551725"/>
      <point x="93.36551724137932" y="-86.99310344827586"/>
      <point x="38.45057471264368" y="-107.48735632183907" type="curve"/>
    </contour>
  </outline>
</glyph>
<glyph name="hyphen" format="2">
  <advance width="288.12643678160924"/>
  <unicode hex="002D"/>
  <outline>
    <contour>
      <point x="23.394252873563218" y="226.96666666666667" type="line"/>
      <point x="264.95977011494256" y="226.96666666666667" type="line"/>
      <point x="264.95977011494256" y="318.03333333333336" type="line"/>
      <point x="23.394252873563218" y="318.03333333333336" type="line"/>
    </contour>
  </outline>
</glyph>
<glyph name="period" format="2">
  <advance width="259.9505747126437"/>
  <unicode hex="002E"/>
  <outline>
    <contour>
      <point x="130.0448275862069" y="-7.393103448275862" type="curve" smooth="yes"/>
      <point x="167.4574712643678" y="-7.393103448275862"/>
      <point x="199.98275862068965" y="10.508045977011495"/>
      <point x="199.98275862068965" y="65.62758620689655" type="curve" smooth="yes"/>
      <point x="199.98275862068965" y="121.15287356321839"/>
      <point x="167.4574712643678" y="138.64827586206897"/>
      <point x="130.0448275862069" y="138.64827586206897" type="curve" smooth="yes"/>
      <point x="90.87241379310345" y="138.64827586206897"/>
      <point x="59.96781609195402" y="121.15287356321839"/>
      <point x="59.96781609195402" y="65.62758620689655" type="curve" smooth="yes"/>
      <point x="59.96781609195402" y="10.508045977011495"/>
      <point x="90.87241379310345" y="-7.393103448275862"/>
    </contour>
  </outline>
</glyph>
<glyph name="slash" format="2">
  <advance width="267.5931034482759"/>
  <unicode hex="002F"/>
  <outline>
    <contour>
      <point x="0.0" y="-121.0" type="line"/>
      <point x="63.31379310344828" y="-121.0" type="line"/>
      <point x="267.5931034482759" y="760.0" type="line"/>
      <point x="206.26666666666668" y="760.0" type="line"/>
    </contour>
  </outline>
</glyph>
<glyph name="zero" format="2">
  <advance width="519.2862068965518"/>
  <unicode hex="0030"/>
  <outline>
    <contour>
      <point x="259.95977011494256" y="-10.0" type="curve" smooth="yes"/>
      <point x="417.29540229885055" y="-10.0"/>
      <point x="484.0091954022988" y="133.73793103448276"/>
      <point x="484.0091954022988" y="358.0" type="curve" smooth="yes"/>
      <point x="484.0091954022988" y="583.767816091954"/>
      <point x="417.9402298850575" y="724.0"/>
      <point x="260.95977011494256" y="724.0" type="curve" smooth="yes"/>
      <point x="94.0919540229885" y="724.0"/>
      <point x="34.682758620689654" y="582.2505747126436"/>
      <point x="34.682758620689654" y="359.0" type="curve" smooth="yes"/>
      <point x="34.682758620689654" y="132.72643678160918"/>
      <point x="94.73678160919542" y="-10.0"/>
    </contour>
    <contour>
      <point x="259.95977011494256" y="49.13333333333333" type="curve" smooth="yes"/>
      <point x="183.62068965517244" y="49.13333333333333"/>
      <point x="163.06781609195403" y="163.01724137931035"/>
      <point x="163.06781609195403" y="358.0" type="curve" smooth="yes"/>
      <point x="163.06781609195403" y="552.9827586206898"/>
      <point x="183.62068965517244" y="664.8666666666668"/>
      <point x="260.95977011494256" y="664.8666666666668" type="curve" smooth="yes"/>
      <point x="336.07126436781607" y="664.8666666666668"/>
      <point x="356.3574712643678" y="552.9827586206898"/>
      <point x="356.3574712643678" y="358.0" type="curve" smooth="yes"/>
      <point x="356.3574712643678" y="163.01724137931035"/>
      <point x="336.07126436781607" y="49.13333333333333"/>
    </contour>
  </outline>
</glyph>
<glyph name="one" format="2">
  <advance width="519.2862068965518"/>
  <unicode hex="0031"/>
  <outline>
    <contour>
      <point x="88.33908045977012" y="0.0" type="line"/>
      <point x="460.6770114942529" y="0.0" type="line"/>
      <point x="460.6770114942529" y="47.778160919540234" type="line"/>
      <point x="402.3218390804598" y="47.778160919540234" type="line" smooth="yes"/>
      <point x="361.2448275862069" y="47.778160919540234"/>
      <point x="340.283908045977" y="64.46896551724139"/>
      <point x="340.283908045977" y="115.88850574712644" type="curve" smooth="yes"/>
      <point x="340.283908045977" y="718.0" type="line"/>
      <point x="251.83908045977014" y="718.0" type="line"/>
      <point x="186.88390804597702" y="666.8218390804598" type="line" smooth="yes"/>
      <point x="125.33448275862068" y="618.0494252873564"/>
      <point x="83.25172413793102" y="600.416091954023"/>
      <point x="46.18505747126436" y="590.416091954023" type="curve"/>
      <point x="46.18505747126436" y="551.3965517241379"/>
      <point x="68.59425287356322" y="526.1517241379311"/>
      <point x="97.39540229885057" y="526.1517241379311" type="curve" smooth="yes"/>
      <point x="134.55057471264368" y="526.1517241379311"/>
      <point x="170.5781609195402" y="566.7862068965518"/>
      <point x="217.40574712643678" y="627.180459770115" type="curve"/>
      <point x="217.40574712643678" y="115.88850574712644" type="line" smooth="yes"/>
      <point x="217.40574712643678" y="59.31379310344827"/>
      <point x="192.78275862068966" y="47.778160919540234"/>
      <point x="155.7609195402299" y="47.778160919540234" type="curve" smooth="yes"/>
      <point x="88.33908045977012" y="47.778160919540234" type="line"/>
    </contour>
  </outline>
</glyph>
<glyph name="two" format="2">
  <advance width="519.2862068965518"/>
  <unicode hex="0032"/>
  <outline>
    <contour>
      <point x="37.756321839080464" y="0.0" type="line"/>
      <point x="465.7701149425287" y="0.0" type="line"/>
      <point x="470.264367816092" y="192.81724137931033" type="line"/>
      <point x="419.95057471264363" y="192.81724137931033" type="line"/>
      <point x="413.6954022988505" y="167.2919540229885" type="line" smooth="yes"/>
      <point x="402.69425287356324" y="123.39310344827585"/>
      <point x="380.02758620689656" y="95.92758620689656"/>
      <point x="336.32183908045977" y="95.92758620689656" type="curve" smooth="yes"/>
      <point x="122.59080459770115" y="95.92758620689656" type="line"/>
      <point x="249.40804597701148" y="235.82528735632184" type="line" smooth="yes"/>
      <point x="386.0" y="378.07011494252873"/>
      <point x="447.6034482758621" y="454.22758620689655"/>
      <point x="447.6034482758621" y="555.8379310344827" type="curve" smooth="yes"/>
      <point x="447.6034482758621" y="658.0793103448275"/>
      <point x="373.5080459770115" y="724.0"/>
      <point x="241.33678160919544" y="724.0" type="curve" smooth="yes"/>
      <point x="110.0287356321839" y="724.0"/>
      <point x="43.766666666666666" y="662.2264367816091"/>
      <point x="43.766666666666666" y="589.8471264367817" type="curve" smooth="yes"/>
      <point x="43.766666666666666" y="527.7724137931035"/>
      <point x="89.86206896551724" y="507.6126436781609"/>
      <point x="148.84367816091955" y="507.6126436781609" type="curve"/>
      <point x="148.84367816091955" y="605.416091954023"/>
      <point x="170.21379310344827" y="668.2218390804599"/>
      <point x="241.33678160919544" y="668.2218390804599" type="curve" smooth="yes"/>
      <point x="293.4080459770115" y="668.2218390804599"/>
      <point x="322.1942528735632" y="626.6356321839081"/>
      <point x="322.1942528735632" y="549.080459770115" type="curve" smooth="yes"/>
      <point x="322.1942528735632" y="450.0126436781609"/>
      <point x="290.18275862068964" y="381.16321839080456"/>
      <point x="182.55747126436785" y="256.1241379310345" type="curve" smooth="yes"/>
      <point x="37.756321839080464" y="87.14482758620689" type="line"/>
    </contour>
  </outline>
</glyph>
<glyph name="three" format="2">
  <advance width="519.2862068965518"/>
  <unicode hex="0033"/>
  <outline>
    <contour>
      <point x="227.916091954023" y="-10.0" type="curve" smooth="yes"/>
      <point x="350.9712643678161" y="-10.0"/>
      <point x="474.5126436781609" y="43.0"/>
      <point x="474.5126436781609" y="202.99080459770116" type="curve" smooth="yes"/>
      <point x="474.5126436781609" y="323.9712643678161"/>
      <point x="382.55632183908045" y="367.73218390804595"/>
      <point x="308.3091954022988" y="380.1275862068965" type="curve"/>
      <point x="389.68275862068964" y="405.8781609195403"/>
      <point x="451.1183908045977" y="471.22758620689655"/>
      <point x="451.1183908045977" y="561.2275862068965" type="curve" smooth="yes"/>
      <point x="451.1183908045977" y="665.2402298850575"/>
      <point x="370.24827586206897" y="724.0"/>
      <point x="244.49540229885056" y="724.0" type="curve" smooth="yes"/>
      <point x="113.18735632183909" y="724.0"/>
      <point x="46.39310344827586" y="665.3827586206896"/>
      <point x="46.39310344827586" y="592.8908045977012" type="curve" smooth="yes"/>
      <point x="46.39310344827586" y="538.2505747126437"/>
      <point x="87.91839080459769" y="517.2425287356323"/>
      <point x="150.33448275862068" y="517.2425287356323" type="curve"/>
      <point x="150.33448275862068" y="595.8494252873563"/>
      <point x="168.38045977011495" y="668.2218390804599"/>
      <point x="239.73563218390805" y="668.2218390804599" type="curve" smooth="yes"/>
      <point x="296.5298850574713" y="668.2218390804599"/>
      <point x="324.5816091954023" y="623.235632183908"/>
      <point x="324.5816091954023" y="548.3655172413794" type="curve" smooth="yes"/>
      <point x="324.5816091954023" y="456.88850574712643"/>
      <point x="280.3195402298851" y="397.87586206896555"/>
      <point x="199.7057471264368" y="397.87586206896555" type="curve"/>
      <point x="148.13218390804596" y="397.87586206896555" type="line"/>
      <point x="148.13218390804596" y="341.74252873563216" type="line"/>
      <point x="197.083908045977" y="341.74252873563216" type="line" smooth="yes"/>
      <point x="293.97356321839084" y="341.74252873563216"/>
      <point x="347.11494252873564" y="286.2367816091954"/>
      <point x="347.11494252873564" y="203.99080459770116" type="curve" smooth="yes"/>
      <point x="347.11494252873564" y="88.88965517241378"/>
      <point x="289.43103448275866" y="52.28735632183908"/>
      <point x="224.58275862068967" y="52.28735632183908" type="curve" smooth="yes"/>
      <point x="154.60459770114943" y="52.28735632183908"/>
      <point x="109.28275862068965" y="100.78735632183908"/>
      <point x="109.28275862068965" y="178.82068965517243" type="curve"/>
      <point x="68.74482758620691" y="178.82068965517243"/>
      <point x="36.698850574712644" y="153.18620689655174"/>
      <point x="36.698850574712644" y="107.4080459770115" type="curve" smooth="yes"/>
      <point x="36.698850574712644" y="44.281609195402304"/>
      <point x="93.37816091954022" y="-10.0"/>
    </contour>
  </outline>
</glyph>
<glyph name="four" format="2">
  <advance width="519.2862068965518"/>
  <unicode hex="0034"/>
  <outline>
    <contour>
      <point x="178.12873563218392" y="0.0" type="line"/>
      <point x="488.99770114942527" y="0.0" type="line"/>
      <point x="488.99770114942527" y="47.778160919540234" type="line"/>
      <point x="476.87011494252874" y="47.778160919540234" type="line" smooth="yes"/>
      <point x="434.80344827586214" y="47.778160919540234"/>
      <point x="400.5091954022989" y="56.778160919540234"/>
      <point x="400.5091954022989" y="119.77816091954024" type="curve" smooth="yes"/>
      <point x="400.5091954022989" y="190.84252873563221" type="line"/>
      <point x="502.77701149425286" y="190.84252873563221" type="line"/>
      <point x="502.77701149425286" y="252.0" type="line"/>
      <point x="400.5091954022989" y="252.0" type="line"/>
      <point x="400.5091954022989" y="714.0" type="line"/>
      <point x="283.31954022988504" y="714.0" type="line"/>
      <point x="13.505747126436782" y="242.15747126436779" type="line"/>
      <point x="13.505747126436782" y="190.84252873563221" type="line"/>
      <point x="280.3781609195403" y="190.84252873563221" type="line"/>
      <point x="280.3781609195403" y="119.77816091954024" type="line" smooth="yes"/>
      <point x="280.3781609195403" y="56.778160919540234"/>
      <point x="246.22298850574714" y="47.778160919540234"/>
      <point x="204.01724137931035" y="47.778160919540234" type="curve" smooth="yes"/>
      <point x="178.12873563218392" y="47.778160919540234" type="line"/>
    </contour>
    <contour>
      <point x="80.95172413793105" y="252.0" type="line"/>
      <point x="209.38965517241377" y="478.0850574712644" type="line" smooth="yes"/>
      <point x="228.51149425287358" y="513.0103448275862"/>
      <point x="273.55632183908045" y="596.5344827586207"/>
      <point x="286.64482758620693" y="629.4436781609196" type="curve"/>
      <point x="282.0114942528736" y="567.4436781609196"/>
      <point x="280.3781609195403" y="491.8528735632184"/>
      <point x="280.3781609195403" y="433.8528735632184" type="curve" smooth="yes"/>
      <point x="280.3781609195403" y="252.0" type="line"/>
    </contour>
  </outline>
</glyph>
<glyph name="five" format="2">
  <advance width="519.2862068965518"/>
  <unicode hex="0035"/>
  <outline>
    <contour>
      <point x="227.28620689655173" y="-10.0" type="curve" smooth="yes"/>
      <point x="349.0827586206897" y="-10.0"/>
      <point x="463.84597701149426" y="63.19655172413793"/>
      <point x="463.84597701149426" y="219.01379310344828" type="curve" smooth="yes"/>
      <point x="463.84597701149426" y="360.88850574712643"/>
      <point x="370.6218390804597" y="431.87586206896555"/>
      <point x="233.6770114942529" y="431.87586206896555" type="curve" smooth="yes"/>
      <point x="192.5126436781609" y="431.87586206896555"/>
      <point x="150.08850574712642" y="423.8896551724138"/>
      <point x="129.92298850574713" y="415.7632183908046" type="curve"/>
      <point x="146.78275862068966" y="617.6931034482759" type="line"/>
      <point x="334.8057471264368" y="617.6931034482759" type="line" smooth="yes"/>
      <point x="367.8425287356322" y="617.6931034482759"/>
      <point x="373.5919540229885" y="604.5781609195402"/>
      <point x="379.983908045977" y="575.9379310344826" type="curve" smooth="yes"/>
      <point x="386.3781609195402" y="546.0724137931035" type="line"/>
      <point x="435.4505747126437" y="546.0724137931035" type="line"/>
      <point x="431.18390804597703" y="713.3931034482758" type="line"/>
      <point x="95.56551724137931" y="713.3931034482758" type="line"/>
      <point x="64.94367816091953" y="364.63678160919545" type="line"/>
      <point x="98.26206896551724" y="350.8471264367816" type="line"/>
      <point x="124.89885057471264" y="360.7448275862069"/>
      <point x="154.98735632183906" y="371.74252873563216"/>
      <point x="206.29080459770117" y="371.74252873563216" type="curve" smooth="yes"/>
      <point x="287.27126436781606" y="371.74252873563216"/>
      <point x="336.7022988505747" y="321.3655172413793"/>
      <point x="336.7022988505747" y="219.01379310344828" type="curve" smooth="yes"/>
      <point x="336.7022988505747" y="92.75172413793102"/>
      <point x="282.63563218390806" y="52.894252873563225"/>
      <point x="216.16781609195402" y="52.894252873563225" type="curve" smooth="yes"/>
      <point x="140.55287356321838" y="52.894252873563225"/>
      <point x="110.75747126436781" y="110.30574712643678"/>
      <point x="110.75747126436781" y="168.17816091954023" type="curve"/>
      <point x="68.23218390804598" y="168.17816091954023"/>
      <point x="41.5551724137931" y="144.68505747126434"/>
      <point x="41.5551724137931" y="103.14827586206896" type="curve" smooth="yes"/>
      <point x="41.5551724137931" y="49.01264367816092"/>
      <point x="88.36206896551724" y="-10.0"/>
    </contour>
  </outline>
</glyph>
<glyph name="six" format="2">
  <advance width="519.2862068965518"/>
  <unicode hex="0036"/>
  <outline>
    <contour>
      <point x="272.2264367816092" y="-10.0" type="curve" smooth="yes"/>
      <point x="408.39655172413796" y="-10.0"/>
      <point x="481.9850574712644" y="88.0"/>
      <point x="481.9850574712644" y="230.01379310344828" type="curve" smooth="yes"/>
      <point x="481.9850574712644" y="358.88850574712643"/>
      <point x="408.39655172413796" y="435.88850574712643"/>
      <point x="296.51264367816094" y="435.88850574712643" type="curve" smooth="yes"/>
      <point x="233.54482758620688" y="435.88850574712643"/>
      <point x="193.76896551724138" y="413.51264367816094"/>
      <point x="166.88275862068966" y="391.5551724137931" type="curve"/>
      <point x="173.26436781609195" y="571.8965517241379"/>
      <point x="216.95287356321842" y="670.2218390804599"/>
      <point x="296.06666666666666" y="670.2218390804599" type="curve" smooth="yes"/>
      <point x="349.29425287356327" y="670.2218390804599"/>
      <point x="368.0091954022989" y="611.9183908045978"/>
      <point x="368.0091954022989" y="546.9620689655173" type="curve"/>
      <point x="435.61494252873564" y="546.9620689655173"/>
      <point x="464.02413793103443" y="575.8068965517241"/>
      <point x="464.02413793103443" y="616.1241379310345" type="curve" smooth="yes"/>
      <point x="464.02413793103443" y="671.9862068965517"/>
      <point x="415.31609195402297" y="724.0"/>
      <point x="300.932183908046" y="724.0" type="curve" smooth="yes"/>
      <point x="128.42758620689656" y="724.0"/>
      <point x="46.56781609195402" y="561.96091954023"/>
      <point x="46.56781609195402" y="339.735632183908" type="curve" smooth="yes"/>
      <point x="46.56781609195402" y="97.0"/>
      <point x="139.3103448275862" y="-10.0"/>
    </contour>
    <contour>
      <point x="274.85977011494253" y="49.766666666666666" type="curve" smooth="yes"/>
      <point x="212.25402298850577" y="49.766666666666666"/>
      <point x="167.88275862068966" y="135.15402298850574"/>
      <point x="166.50344827586207" y="328.89885057471264" type="curve"/>
      <point x="185.95632183908043" y="352.24022988505743"/>
      <point x="225.63678160919542" y="379.7816091954023"/>
      <point x="267.60459770114943" y="379.7816091954023" type="curve" smooth="yes"/>
      <point x="326.4505747126437" y="379.7816091954023"/>
      <point x="360.616091954023" y="331.11149425287357"/>
      <point x="360.616091954023" y="220.01379310344828" type="curve" smooth="yes"/>
      <point x="360.616091954023" y="101.63793103448278"/>
      <point x="328.8057471264368" y="49.766666666666666"/>
    </contour>
  </outline>
</glyph>
<glyph name="seven" format="2">
  <advance width="519.2862068965518"/>
  <unicode hex="0037"/>
  <outline>
    <contour>
      <point x="157.72988505747128" y="0.0" type="line"/>
      <point x="235.99080459770113" y="0.0" type="line"/>
      <point x="481.3931034482758" y="673.8505747126437" type="line"/>
      <point x="481.3931034482758" y="713.3931034482758" type="line"/>
      <point x="50.59310344827586" y="713.3931034482758" type="line"/>
      <point x="45.59310344827586" y="517.0862068965517" type="line"/>
      <point x="97.17241379310344" y="517.0862068965517" type="line"/>
      <point x="102.18620689655172" y="566.2137931034483" type="line" smooth="yes"/>
      <point x="105.80689655172414" y="600.5919540229886"/>
      <point x="122.07471264367815" y="618.0862068965517"/>
      <point x="155.73563218390805" y="618.0862068965517" type="curve" smooth="yes"/>
      <point x="397.5701149425288" y="618.0862068965517" type="line"/>
    </contour>
  </outline>
</glyph>
<glyph name="eight" format="2">
  <advance width="519.2862068965518"/>
  <unicode hex="0038"/>
  <outline>
    <contour>
      <point x="254.19885057471265" y="-10.0" type="curve" smooth="yes"/>
      <point x="399.0149425287356" y="-10.0"/>
      <point x="486.6183908045977" y="63.27816091954023"/>
      <point x="486.6183908045977" y="186.3574712643678" type="curve" smooth="yes"/>
      <point x="486.6183908045977" y="276.916091954023"/>
      <point x="435.78850574712646" y="332.8816091954023"/>
      <point x="334.09655172413795" y="384.4712643678161" type="curve"/>
      <point x="410.332183908046" y="424.18390804597703"/>
      <point x="458.7793103448276" y="467.38160919540235"/>
      <point x="458.7793103448276" y="553.248275862069" type="curve" smooth="yes"/>
      <point x="458.7793103448276" y="651.8586206896551"/>
      <point x="391.2298850574713" y="724.0"/>
      <point x="264.45402298850576" y="724.0" type="curve" smooth="yes"/>
      <point x="112.9367816091954" y="724.0"/>
      <point x="54.201149425287355" y="639.0586206896551"/>
      <point x="54.201149425287355" y="544.2379310344828" type="curve" smooth="yes"/>
      <point x="54.201149425287355" y="460.53563218390804"/>
      <point x="99.76896551724137" y="406.2034482758621"/>
      <point x="172.38505747126436" y="362.7574712643678" type="curve"/>
      <point x="91.7816091954023" y="322.85402298850573"/>
      <point x="33.17356321839081" y="272.70344827586206"/>
      <point x="33.17356321839081" y="177.97931034482758" type="curve" smooth="yes"/>
      <point x="33.17356321839081" y="74.0022988505747"/>
      <point x="103.77471264367816" y="-10.0"/>
    </contour>
    <contour>
      <point x="258.32643678160923" y="43.01724137931035" type="curve" smooth="yes"/>
      <point x="188.74597701149426" y="43.01724137931035"/>
      <point x="146.4390804597701" y="94.72758620689656"/>
      <point x="146.4390804597701" y="177.45632183908046" type="curve" smooth="yes"/>
      <point x="146.4390804597701" y="249.12528735632185"/>
      <point x="178.17586206896553" y="298.56206896551726"/>
      <point x="225.86896551724138" y="330.5080459770115" type="curve"/>
      <point x="327.9459770114943" y="279.27241379310345"/>
      <point x="370.30114942528735" y="236.31724137931033"/>
      <point x="370.30114942528735" y="169.2183908045977" type="curve" smooth="yes"/>
      <point x="370.30114942528735" y="93.32298850574712"/>
      <point x="325.73218390804595" y="43.01724137931035"/>
    </contour>
    <contour>
      <point x="281.0873563218391" y="412.79425287356327" type="curve"/>
      <point x="210.35402298850576" y="448.89080459770116"/>
      <point x="170.9758620689655" y="484.8988505747127"/>
      <point x="170.9758620689655" y="556.9206896551725" type="curve" smooth="yes"/>
      <point x="170.9758620689655" y="623.2724137931035"/>
      <point x="202.2528735632184" y="670.3494252873563"/>
      <point x="259.92068965517245" y="670.3494252873563" type="curve" smooth="yes"/>
      <point x="323.4873563218391" y="670.3494252873563"/>
      <point x="352.351724137931" y="613.1206896551724"/>
      <point x="352.351724137931" y="553.5540229885058" type="curve" smooth="yes"/>
      <point x="352.351724137931" y="484.75977011494257"/>
      <point x="332.6919540229885" y="444.6632183908046"/>
    </contour>
  </outline>
</glyph>
<glyph name="nine" format="2">
  <advance width="519.2862068965518"/>
  <unicode hex="0039"/>
  <outline>
    <contour>
      <point x="210.90459770114944" y="-10.606896551724137" type="curve"/>
      <point x="397.8873563218391" y="-10.606896551724137"/>
      <point x="472.8574712643678" y="165.58505747126438"/>
      <point x="472.8574712643678" y="388.0" type="curve"/>
      <point x="472.8574712643678" y="625.0103448275862"/>
      <point x="376.46781609195403" y="724.0"/>
      <point x="244.9333333333333" y="724.0" type="curve" smooth="yes"/>
      <point x="114.51379310344828" y="724.0"/>
      <point x="37.301149425287356" y="624.7609195402299"/>
      <point x="37.301149425287356" y="482.0" type="curve" smooth="yes"/>
      <point x="37.301149425287356" y="347.8724137931035"/>
      <point x="112.66206896551725" y="276.7448275862069"/>
      <point x="219.55747126436782" y="276.7448275862069" type="curve" smooth="yes"/>
      <point x="284.11954022988505" y="276.7448275862069"/>
      <point x="327.9068965517242" y="307.451724137931"/>
      <point x="355.16436781609195" y="342.87356321839076" type="curve"/>
      <point x="348.67011494252876" y="146.76436781609195"/>
      <point x="304.9183908045977" y="48.764367816091955"/>
      <point x="215.67701149425287" y="48.764367816091955" type="curve" smooth="yes"/>
      <point x="153.07701149425287" y="48.764367816091955"/>
      <point x="122.81954022988505" y="91.97126436781609"/>
      <point x="105.43793103448276" y="143.86666666666667" type="curve"/>
      <point x="78.17701149425288" y="137.11954022988505"/>
      <point x="64.32758620689656" y="115.75287356321839"/>
      <point x="64.32758620689656" y="88.4977011494253" type="curve" smooth="yes"/>
      <point x="64.32758620689656" y="38.60344827586207"/>
      <point x="101.78965517241379" y="-10.606896551724137"/>
    </contour>
    <contour>
      <point x="253.6816091954023" y="340.14712643678166" type="curve" smooth="yes"/>
      <point x="190.5816091954023" y="340.564367816092"/>
      <point x="158.82183908045977" y="389.77931034482754"/>
      <point x="158.82183908045977" y="488.0" type="curve" smooth="yes"/>
      <point x="158.82183908045977" y="602.6298850574713"/>
      <point x="191.59425287356322" y="663.612643678161"/>
      <point x="249.44137931034484" y="663.612643678161" type="curve" smooth="yes"/>
      <point x="312.9344827586207" y="663.612643678161"/>
      <point x="353.5310344827586" y="589.0068965517241"/>
      <point x="355.68275862068964" y="408.74022988505743" type="curve"/>
      <point x="338.08505747126435" y="372.33103448275864"/>
      <point x="302.7310344827586" y="340.564367816092"/>
    </contour>
  </outline>
</glyph>
<glyph name="colon" format="2">
  <advance width="274.7931034482759"/>
  <unicode hex="003A"/>
  <outline>
    <contour>
      <point x="137.40919540229885" y="394.735632183908" type="curve" smooth="yes"/>
      <point x="174.8218390804598" y="394.735632183908"/>
      <point x="207.3471264367816" y="412.7252873563218"/>
      <point x="207.3471264367816" y="467.6172413793103" type="curve" smooth="yes"/>
      <point x="207.3471264367816" y="523.3701149425289"/>
      <point x="174.8218390804598" y="540.4988505747127"/>
      <point x="137.40919540229885" y="540.4988505747127" type="curve" smooth="yes"/>
      <point x="98.2367816091954" y="540.4988505747127"/>
      <point x="67.69885057471265" y="523.3701149425289"/>
      <point x="67.69885057471265" y="467.6172413793103" type="curve" smooth="yes"/>
      <point x="67.69885057471265" y="412.7252873563218"/>
      <point x="98.2367816091954" y="394.735632183908"/>
    </contour>
    <contour>
      <point x="137.40919540229885" y="-7.393103448275862" type="curve" smooth="yes"/>
      <point x="174.8218390804598" y="-7.393103448275862"/>
      <point x="207.3471264367816" y="10.508045977011495"/>
      <point x="207.3471264367816" y="65.62758620689655" type="curve" smooth="yes"/>
      <point x="207.3471264367816" y="121.15287356321839"/>
      <point x="174.8218390804598" y="138.64827586206897"/>
      <point x="137.40919540229885" y="138.64827586206897" type="curve" smooth="yes"/>
      <point x="98.2367816091954" y="138.64827586206897"/>
      <point x="67.69885057471265" y="121.15287356321839"/>
      <point x="67.69885057471265" y="65.62758620689655" type="curve" smooth="yes"/>
      <point x="67.69885057471265" y="10.508045977011495"/>
      <point x="98.2367816091954" y="-7.393103448275862"/>
    </contour>
  </outline>
</glyph>
<glyph name="semicolon" format="2">
  <advance width="274.7931034482759"/>
  <unicode hex="003B"/>
  <outline>
    <contour>
      <point x="48.5896551724138" y="-154.0" type="line"/>
      <point x="164.83333333333334" y="-119.87241379310345"/>
      <point x="208.5103448275862" y="-45.38965517241379"/>
      <point x="208.5103448275862" y="37.726436781609195" type="curve" smooth="yes"/>
      <point x="208.5103448275862" y="100.99770114942528"/>
      <point x="176.91034482758621" y="138.64827586206897"/>
      <point x="128.97701149425288" y="138.64827586206897" type="curve" smooth="yes"/>
      <point x="93.07241379310344" y="138.64827586206897"/>
      <point x="65.09425287356322" y="116.15287356321839"/>
      <point x="65.09425287356322" y="75.64137931034483" type="curve" smooth="yes"/>
      <point x="65.09425287356322" y="5.870114942528735"/>
      <point x="131.53218390804597" y="13.860919540229885"/>
      <point x="131.53218390804597" y="-24.02528735632184" type="curve" smooth="yes"/>
      <point x="131.53218390804597" y="-62.15287356321839"/>
      <point x="104.0103448275862" y="-86.99310344827586"/>
      <point x="48.5896551724138" y="-107.48735632183907" type="curve"/>
    </contour>
    <contour>
      <point x="137.40919540229885" y="394.735632183908" type="curve" smooth="yes"/>
      <point x="175.18850574712647" y="394.735632183908"/>
      <point x="207.3471264367816" y="412.7252873563218"/>
      <point x="207.3471264367816" y="467.6172413793103" type="curve" smooth="yes"/>
      <point x="207.3471264367816" y="523.3701149425289"/>
      <point x="175.18850574712647" y="540.4988505747127"/>
      <point x="137.40919540229885" y="540.4988505747127" type="curve" smooth="yes"/>
      <point x="98.2367816091954" y="540.4988505747127"/>
      <point x="67.69885057471265" y="523.3701149425289"/>
      <point x="67.69885057471265" y="467.6172413793103" type="curve" smooth="yes"/>
      <point x="67.69885057471265" y="412.7252873563218"/>
      <point x="98.2367816091954" y="394.735632183908"/>
    </contour>
  </outline>
</glyph>
<glyph name="less" format="2">
  <advance width="509.8666666666667"/>
  <unicode hex="003C"/>
  <outline>
    <contour>
      <point x="454.07126436781607" y="106.87011494252873" type="line"/>
      <point x="454.07126436781607" y="180.49655172413793" type="line"/>
      <point x="150.7965517241379" y="357.0" type="line"/>
      <point x="454.07126436781607" y="535.6425287356321" type="line"/>
      <point x="454.07126436781607" y="609.1298850574713" type="line"/>
      <point x="55.795402298850576" y="376.6344827586207" type="line"/>
      <point x="55.795402298850576" y="338.3655172413793" type="line"/>
    </contour>
  </outline>
</glyph>
<glyph name="equal" format="2">
  <advance width="509.8666666666667"/>
  <unicode hex="003D"/>
  <outline>
    <contour>
      <point x="54.55402298850575" y="420.09999999999997" type="line"/>
      <point x="455.3126436781609" y="420.09999999999997" type="line"/>
      <point x="455.3126436781609" y="485.1057471264368" type="line"/>
      <point x="54.55402298850575" y="485.1057471264368" type="line"/>
    </contour>
    <contour>
      <point x="54.55402298850575" y="228.89425287356323" type="line"/>
      <point x="455.3126436781609" y="228.89425287356323" type="line"/>
      <point x="455.3126436781609" y="293.90000000000003" type="line"/>
      <point x="54.55402298850575" y="293.90000000000003" type="line"/>
    </contour>
  </outline>
</glyph>
<glyph name="greater" format="2">
  <advance width="509.8666666666667"/>
  <unicode hex="003E"/>
  <outline>
    <contour>
      <point x="55.795402298850576" y="106.87011494252873" type="line"/>
      <point x="454.07126436781607" y="338.3655172413793" type="line"/>
      <point x="454.07126436781607" y="376.6344827586207" type="line"/>
      <point x="55.795402298850576" y="609.1298850574713" type="line"/>
      <point x="55.795402298850576" y="535.6425287356321" type="line"/>
      <point x="358.7034482758621" y="357.0" type="line"/>
      <point x="55.795402298850576" y="180.49655172413793" type="line"/>
    </contour>
  </outline>
</glyph>
<glyph name="question" format="2">
  <advance width="497.4022988505747"/>
  <unicode hex="003F"/>
  <outline>
    <contour>
      <point x="195.9080459770115" y="217.27816091954023" type="line"/>
      <point x="249.42298850574713" y="217.27816091954023" type="line"/>
      <point x="264.46666666666664" y="319.26551724137937" type="line"/>
      <point x="385.2528735632184" y="372.15402298850574"/>
      <point x="446.29655172413794" y="433.8724137931035"/>
      <point x="446.29655172413794" y="542.3770114942529" type="curve" smooth="yes"/>
      <point x="446.29655172413794" y="657.251724137931"/>
      <point x="356.00229885057473" y="724.0"/>
      <point x="227.57011494252873" y="724.0" type="curve" smooth="yes"/>
      <point x="97.2977011494253" y="724.0"/>
      <point x="36.65862068965517" y="672.7218390804597"/>
      <point x="36.65862068965517" y="609.2896551724137" type="curve" smooth="yes"/>
      <point x="36.65862068965517" y="562.4413793103448"/>
      <point x="81.76321839080458" y="542.0206896551724"/>
      <point x="147.71839080459773" y="542.0206896551724" type="curve"/>
      <point x="147.71839080459773" y="614.0540229885057"/>
      <point x="170.01954022988505" y="669.2218390804599"/>
      <point x="232.72528735632187" y="669.2218390804599" type="curve" smooth="yes"/>
      <point x="290.1908045977012" y="669.2218390804599"/>
      <point x="316.048275862069" y="621.4793103448276"/>
      <point x="316.048275862069" y="554.4827586206897" type="curve" smooth="yes"/>
      <point x="316.048275862069" y="473.21954022988507"/>
      <point x="287.73333333333335" y="396.6206896551724"/>
      <point x="181.23103448275862" y="350.1022988505747" type="curve"/>
    </contour>
    <contour>
      <point x="221.4183908045977" y="-7.393103448275862" type="curve" smooth="yes"/>
      <point x="259.10919540229884" y="-7.393103448275862"/>
      <point x="291.63448275862066" y="10.508045977011495"/>
      <point x="291.63448275862066" y="65.62758620689655" type="curve" smooth="yes"/>
      <point x="291.63448275862066" y="121.15287356321839"/>
      <point x="259.10919540229884" y="138.64827586206897"/>
      <point x="221.4183908045977" y="138.64827586206897" type="curve" smooth="yes"/>
      <point x="182.38505747126436" y="138.64827586206897"/>
      <point x="151.61954022988508" y="121.15287356321839"/>
      <point x="151.61954022988508" y="65.62758620689655" type="curve" smooth="yes"/>
      <point x="151.61954022988508" y="10.508045977011495"/>
      <point x="182.38505747126436" y="-7.393103448275862"/>
    </contour>
  </outline>
</glyph>
<glyph name="bracketleft" format="2">
  <advance width="368.4574712643678"/>
  <unicode hex="005B"/>
  <outline>
    <contour>
      <point x="92.7551724137931" y="-128.0" type="line"/>
      <point x="334.1632183908046" y="-128.0" type="line"/>
      <point x="334.1632183908046" y="-80.22183908045976" type="line"/>
      <point x="294.235632183908" y="-80.22183908045976" type="line" smooth="yes"/>
      <point x="252.44712643678162" y="-80.22183908045976"/>
      <point x="218.01379310344828" y="-71.22183908045976"/>
      <point x="218.01379310344828" y="-8.22183908045977" type="curve" smooth="yes"/>
      <point x="218.01379310344828" y="640.2218390804599" type="line" smooth="yes"/>
      <point x="218.01379310344828" y="703.2218390804599"/>
      <point x="252.44712643678162" y="712.2218390804599"/>
      <point x="294.235632183908" y="712.2218390804599" type="curve" smooth="yes"/>
      <point x="334.1632183908046" y="712.2218390804599" type="line"/>
      <point x="334.1632183908046" y="760.0" type="line"/>
      <point x="92.7551724137931" y="760.0" type="line"/>
    </contour>
  </outline>
</glyph>
<glyph name="backslash" format="2">
  <advance width="267.5931034482759"/>
  <unicode hex="005C"/>
  <outline>
    <contour>
      <point x="204.64597701149427" y="-121.0" type="line"/>
      <point x="267.5931034482759" y="-121.0" type="line"/>
      <point x="62.31379310344828" y="760.0" type="line"/>
      <point x="0.0" y="760.0" type="line"/>
    </contour>
  </outline>
</glyph>
<glyph name="bracketright" format="2">
  <advance width="368.4574712643678"/>
  <unicode hex="005D"/>
  <outline>
    <contour>
      <point x="34.43333333333334" y="-128.0" type="line"/>
      <point x="275.7022988505747" y="-128.0" type="line"/>
      <point x="275.7022988505747" y="760.0" type="line"/>
      <point x="34.43333333333334" y="760.0" type="line"/>
      <point x="34.43333333333334" y="712.2218390804599" type="line"/>
      <point x="74.22183908045977" y="712.2218390804599" type="line" smooth="yes"/>
      <point x="116.14942528735632" y="712.2218390804599"/>
      <point x="150.44367816091955" y="703.2218390804599"/>
      <point x="150.44367816091955" y="640.2218390804599" type="curve" smooth="yes"/>
      <point x="150.44367816091955" y="-8.22183908045977" type="line" smooth="yes"/>
      <point x="150.44367816091955" y="-71.22183908045976"/>
      <point x="116.14942528735632" y="-80.22183908045976"/>
      <point x="74.22183908045977" y="-80.22183908045976" type="curve" smooth="yes"/>
      <point x="34.43333333333334" y="-80.22183908045976" type="line"/>
    </contour>
  </outline>
</glyph>
<glyph name="asciicircum" format="2">
  <advance width="509.8666666666667"/>
  <unicode hex="005E"/>
  <outline>
    <contour>
      <point x="39.51379310344828" y="264.11149425287357" type="line"/>
      <point x="108.48620689655172" y="264.11149425287357" type="line"/>
      <point x="253.43333333333334" y="612.864367816092" type="line"/>
      <point x="400.2413793103449" y="264.11149425287357" type="line"/>
      <point x="469.3528735632184" y="264.11149425287357" type="line"/>
      <point x="272.5885057471264" y="714.0" type="line"/>
      <point x="235.27816091954023" y="714.0" type="line"/>
    </contour>
  </outline>
</glyph>
<glyph name="underscore" format="2">
  <advance width="425.9367816091954"/>
  <unicode hex="005F"/>
  <outline>
    <contour>
      <point x="-4.860919540229886" y="-142.0" type="line"/>
      <point x="430.57011494252873" y="-142.0" type="line"/>
      <point x="430.57011494252873" y="-83.0" type="line"/>
      <point x="-4.860919540229886" y="-83.0" type="line"/>
    </contour>
  </outline>
</glyph>
<glyph name="braceleft" format="2">
  <advance width="406.15517241379314"/>
  <unicode hex="007B"/>
  <outline>
    <contour>
      <point x="293.0022988505748" y="-126.36551724137931" type="curve" smooth="yes"/>
      <point x="372.47586206896557" y="-126.36551724137931" type="line"/>
      <point x="372.47586206896557" y="-77.98045977011493" type="line"/>
      <point x="338.9505747126437" y="-77.98045977011493" type="line" smooth="yes"/>
      <point x="285.50344827586207" y="-77.98045977011493"/>
      <point x="269.60689655172416" y="-42.221839080459766"/>
      <point x="269.60689655172416" y="23.129885057471267" type="curve" smooth="yes"/>
      <point x="269.60689655172416" y="194.88850574712643" type="line" smooth="yes"/>
      <point x="269.60689655172416" y="257.9862068965517"/>
      <point x="237.7942528735632" y="299.85632183908046"/>
      <point x="167.3448275862069" y="315.9862068965517" type="curve"/>
      <point x="167.3448275862069" y="320.87586206896555" type="line"/>
      <point x="237.93448275862067" y="335.77816091954026"/>
      <point x="269.60689655172416" y="377.88850574712643"/>
      <point x="269.60689655172416" y="440.6068965517241" type="curve" smooth="yes"/>
      <point x="269.60689655172416" y="610.9862068965517" type="line" smooth="yes"/>
      <point x="269.60689655172416" y="676.8563218390805"/>
      <point x="285.50344827586207" y="711.8425287356322"/>
      <point x="338.9505747126437" y="711.8425287356322" type="curve" smooth="yes"/>
      <point x="372.47586206896557" y="711.8425287356322" type="line"/>
      <point x="372.47586206896557" y="760.0" type="line"/>
      <point x="293.0022988505748" y="760.0" type="line" smooth="yes"/>
      <point x="194.15172413793104" y="760.0"/>
      <point x="142.1816091954023" y="707.6068965517242"/>
      <point x="142.1816091954023" y="615.3655172413794" type="curve" smooth="yes"/>
      <point x="142.1816091954023" y="442.6068965517241" type="line" smooth="yes"/>
      <point x="142.1816091954023" y="364.87586206896555"/>
      <point x="94.7471264367816" y="345.77816091954026"/>
      <point x="33.679310344827584" y="343.77816091954026" type="curve"/>
      <point x="33.679310344827584" y="291.85632183908046" type="line"/>
      <point x="94.7471264367816" y="288.85632183908046"/>
      <point x="142.1816091954023" y="270.9862068965517"/>
      <point x="142.1816091954023" y="191.88850574712643" type="curve" smooth="yes"/>
      <point x="142.1816091954023" y="19.889655172413793" type="line" smooth="yes"/>
      <point x="142.1816091954023" y="-70.11149425287356"/>
      <point x="194.15172413793104" y="-126.36551724137931"/>
    </contour>
  </outline>
</glyph>
<glyph name="bar" format="2">
  <advance width="519.2862068965518"/>
  <unicode hex="007C"/>
  <outline>
    <contour>
      <point x="227.2965517241379" y="-240.0" type="line"/>
      <point x="290.9896551724138" y="-240.0" type="line"/>
      <point x="290.9896551724138" y="760.0" type="line"/>
      <point x="227.2965517241379" y="760.0" type="line"/>
    </contour>
  </outline>
</glyph>
<glyph name="braceright" format="2">
  <advance width="406.15517241379314"/>
  <unicode hex="007D"/>
  <outline>
    <contour>
      <point x="33.679310344827584" y="-126.36551724137931" type="line"/>
      <point x="113.29195402298852" y="-126.36551724137931" type="line" smooth="yes"/>
      <point x="212.14252873563217" y="-126.36551724137931"/>
      <point x="263.97356321839084" y="-70.11149425287356"/>
      <point x="263.97356321839084" y="19.889655172413793" type="curve" smooth="yes"/>
      <point x="263.97356321839084" y="191.88850574712643" type="line" smooth="yes"/>
      <point x="263.97356321839084" y="270.9862068965517"/>
      <point x="312.14137931034486" y="288.85632183908046"/>
      <point x="372.47586206896557" y="291.85632183908046" type="curve"/>
      <point x="372.47586206896557" y="343.77816091954026" type="line"/>
      <point x="312.14137931034486" y="345.77816091954026"/>
      <point x="263.97356321839084" y="364.87586206896555"/>
      <point x="263.97356321839084" y="442.6068965517241" type="curve" smooth="yes"/>
      <point x="263.97356321839084" y="615.3655172413794" type="line" smooth="yes"/>
      <point x="263.97356321839084" y="707.6068965517242"/>
      <point x="212.14252873563217" y="760.0"/>
      <point x="113.29195402298852" y="760.0" type="curve" smooth="yes"/>
      <point x="33.679310344827584" y="760.0" type="line"/>
      <point x="33.679310344827584" y="711.8425287356322" type="line"/>
      <point x="67.34367816091954" y="711.8425287356322" type="line" smooth="yes"/>
      <point x="120.92988505747128" y="711.8425287356322"/>
      <point x="136.54827586206895" y="676.8563218390805"/>
      <point x="136.54827586206895" y="610.9862068965517" type="curve" smooth="yes"/>
      <point x="136.54827586206895" y="440.6068965517241" type="line" smooth="yes"/>
      <point x="136.54827586206895" y="377.88850574712643"/>
      <point x="168.35977011494253" y="335.77816091954026"/>
      <point x="239.31609195402297" y="320.87586206896555" type="curve"/>
      <point x="239.31609195402297" y="315.9862068965517" type="line"/>
      <point x="168.22183908045977" y="299.85632183908046"/>
      <point x="136.54827586206895" y="257.9862068965517"/>
      <point x="136.54827586206895" y="194.88850574712643" type="curve" smooth="yes"/>
      <point x="136.54827586206895" y="23.129885057471267" type="line" smooth="yes"/>
      <point x="136.54827586206895" y="-42.221839080459766"/>
      <point x="120.92988505747128" y="-77.98045977011493"/>
      <point x="67.34367816091954" y="-77.98045977011493" type="curve" smooth="yes"/>
      <point x="33.679310344827584" y="-77.98045977011493" type="line"/>
    </contour>
  </outline>
</glyph>
<glyph name="asciitilde" format="2">
  <advance width="509.8666666666667"/>
  <unicode hex="007E"/>
  <outline>
    <contour>
      <point x="39.55172413793104" y="265.2494252873563" type="curve"/>
      <point x="104.35862068965517" y="265.2494252873563" type="line"/>
      <point x="108.0896551724138" y="345.983908045977"/>
      <point x="125.25747126436781" y="382.1218390804597"/>
      <point x="161.4896551724138" y="382.1218390804597" type="curve" smooth="yes"/>
      <point x="184.04367816091954" y="382.1218390804597"/>
      <point x="198.78505747126434" y="367.00229885057473"/>
      <point x="235.8586206896552" y="329.7689655172414" type="curve" smooth="yes"/>
      <point x="282.64942528735634" y="281.57931034482755"/>
      <point x="312.76551724137937" y="265.2494252873563"/>
      <point x="351.95977011494256" y="265.2494252873563" type="curve" smooth="yes"/>
      <point x="440.0298850574713" y="265.2494252873563"/>
      <point x="465.7701149425287" y="356.3919540229885"/>
      <point x="470.5540229885057" y="447.8896551724138" type="curve"/>
      <point x="404.74712643678157" y="447.8896551724138" type="line"/>
      <point x="400.116091954023" y="369.06781609195406"/>
      <point x="384.18850574712644" y="331.2448275862069"/>
      <point x="350.54137931034484" y="331.2448275862069" type="curve" smooth="yes"/>
      <point x="328.1137931034483" y="331.2448275862069"/>
      <point x="311.91379310344826" y="349.16436781609195"/>
      <point x="278.20919540229886" y="381.2689655172414" type="curve" smooth="yes"/>
      <point x="230.2770114942529" y="426.4735632183908"/>
      <point x="203.2287356321839" y="447.8896551724138"/>
      <point x="159.60344827586206" y="447.8896551724138" type="curve" smooth="yes"/>
      <point x="67.5919540229885" y="447.8896551724138"/>
      <point x="42.52298850574713" y="355.6367816091954"/>
    </contour>
  </outline>
</glyph>
<glyph name="twosuperior" format="2">
  <advance width="371.4758620689655"/>
  <unicode hex="00B2"/>
  <outline>
    <contour>
      <point x="33.90229885057471" y="387.0" type="line"/>
      <point x="327.82873563218396" y="387.0" type="line"/>
      <point x="331.0827586206897" y="519.3735632183908" type="line"/>
      <point x="299.16551724137935" y="519.3735632183908" type="line"/>
      <point x="294.5448275862069" y="494.64942528735634" type="line"/>
      <point x="290.5448275862069" y="474.1448275862069"/>
      <point x="281.796551724138" y="458.3873563218391"/>
      <point x="254.99770114942527" y="458.3873563218391" type="curve"/>
      <point x="106.22528735632184" y="458.3873563218391" type="line"/>
      <point x="187.13793103448276" y="529.9229885057472" type="line"/>
      <point x="287.5988505747127" y="611.9333333333334"/>
      <point x="318.14022988505747" y="650.7436781609196"/>
      <point x="318.14022988505747" y="714.371264367816" type="curve" smooth="yes"/>
      <point x="318.14022988505747" y="782.4563218390804"/>
      <point x="272.1655172413793" y="824.8609195402299"/>
      <point x="175.8609195402299" y="824.8609195402299" type="curve" smooth="yes"/>
      <point x="86.50344827586207" y="824.8609195402299"/>
      <point x="40.85287356321839" y="787.5333333333333"/>
      <point x="40.85287356321839" y="739.8114942528736" type="curve" smooth="yes"/>
      <point x="40.85287356321839" y="703.4620689655173"/>
      <point x="72.33793103448276" y="689.635632183908"/>
      <point x="117.51379310344826" y="689.635632183908" type="curve"/>
      <point x="117.51379310344826" y="739.403448275862"/>
      <point x="128.59655172413792" y="782.5919540229885"/>
      <point x="172.75057471264367" y="782.5919540229885" type="curve" smooth="yes"/>
      <point x="208.28045977011493" y="782.5919540229885"/>
      <point x="223.15172413793104" y="754.6206896551726"/>
      <point x="223.15172413793104" y="710.5459770114942" type="curve" smooth="yes"/>
      <point x="223.15172413793104" y="653.1310344827587"/>
      <point x="201.01724137931035" y="606.2183908045978"/>
      <point x="141.17126436781606" y="549.6091954022988" type="curve" smooth="yes"/>
      <point x="33.90229885057471" y="447.4816091954023" type="line"/>
    </contour>
  </outline>
</glyph>
<glyph name="threesuperior" format="2">
  <advance width="371.4758620689655"/>
  <unicode hex="00B3"/>
  <outline>
    <contour>
      <point x="159.41149425287358" y="380.0" type="curve" smooth="yes"/>
      <point x="245.53333333333333" y="380.0"/>
      <point x="332.6367816091954" y="417.94367816091955"/>
      <point x="332.6367816091954" y="510.1275862068965" type="curve" smooth="yes"/>
      <point x="332.6367816091954" y="576.1551724137931"/>
      <point x="283.2298850574713" y="602.7459770114942"/>
      <point x="226.55747126436785" y="612.0" type="curve"/>
      <point x="226.55747126436785" y="616.2666666666667" type="line"/>
      <point x="280.1632183908046" y="631.9"/>
      <point x="316.87586206896555" y="665.9"/>
      <point x="316.87586206896555" y="724.2666666666667" type="curve" smooth="yes"/>
      <point x="316.87586206896555" y="786.2666666666667"/>
      <point x="264.67701149425284" y="823.8609195402299"/>
      <point x="175.57241379310346" y="823.8609195402299" type="curve" smooth="yes"/>
      <point x="85.91034482758621" y="823.8609195402299"/>
      <point x="40.46206896551724" y="784.3160919540229"/>
      <point x="40.46206896551724" y="737.3011494252873" type="curve" smooth="yes"/>
      <point x="40.46206896551724" y="703.451724137931"/>
      <point x="68.2655172413793" y="694.1241379310345"/>
      <point x="114.86896551724136" y="694.1241379310345" type="curve"/>
      <point x="114.86896551724136" y="741.8689655172413"/>
      <point x="126.31264367816091" y="782.0471264367816"/>
      <point x="171.08160919540228" y="782.0471264367816" type="curve" smooth="yes"/>
      <point x="206.0425287356322" y="782.0471264367816"/>
      <point x="221.5080459770115" y="759.0344827586207"/>
      <point x="221.5080459770115" y="715.8850574712643" type="curve" smooth="yes"/>
      <point x="221.5080459770115" y="663.9873563218391"/>
      <point x="191.97701149425288" y="631.3563218390805"/>
      <point x="143.532183908046" y="631.3563218390805" type="curve" smooth="yes"/>
      <point x="111.77126436781609" y="631.3563218390805" type="line"/>
      <point x="111.77126436781609" y="587.5551724137931" type="line"/>
      <point x="143.0264367816092" y="587.5551724137931" type="line" smooth="yes"/>
      <point x="210.57701149425287" y="587.5551724137931"/>
      <point x="237.2597701149425" y="558.4298850574712"/>
      <point x="237.2597701149425" y="511.74827586206897" type="curve" smooth="yes"/>
      <point x="237.2597701149425" y="450.9919540229885"/>
      <point x="203.86321839080463" y="427.067816091954"/>
      <point x="156.70689655172416" y="427.067816091954" type="curve" smooth="yes"/>
      <point x="105.98735632183909" y="427.067816091954"/>
      <point x="81.75287356321839" y="466.16436781609195"/>
      <point x="81.75287356321839" y="511.49310344827586" type="curve"/>
      <point x="46.89885057471264" y="511.49310344827586"/>
      <point x="29.36896551724138" y="492.0586206896552"/>
      <point x="29.36896551724138" y="462.9103448275862" type="curve" smooth="yes"/>
      <point x="29.36896551724138" y="413.9103448275862"/>
      <point x="72.92988505747125" y="380.0"/>
    </contour>
  </outline>
</glyph>
<glyph name="multiply" format="2">
  <advance width="509.8666666666667"/>
  <unicode hex="00D7"/>
  <outline>
    <contour>
      <point x="111.39080459770115" y="155.89080459770113" type="line"/>
      <point x="255.07816091954024" y="310.75632183908044" type="line"/>
      <point x="398.7034482758621" y="156.34597701149426" type="line"/>
      <point x="445.58045977011494" y="200.2896551724138" type="line"/>
      <point x="299.38850574712643" y="358.22758620689655" type="line"/>
      <point x="445.58045977011494" y="515.7988505747127" type="line"/>
      <point x="398.0827586206897" y="560.3758620689655" type="line"/>
      <point x="255.07816091954024" y="406.2310344827587" type="line"/>
      <point x="111.75747126436781" y="560.3367816091953" type="line"/>
      <point x="64.12068965517243" y="516.3931034482758" type="line"/>
      <point x="210.51379310344828" y="358.8609195402299" type="line"/>
      <point x="64.12068965517243" y="200.3287356321839" type="line"/>
    </contour>
  </outline>
</glyph>
<glyph name="divide" format="2">
  <advance width="509.8666666666667"/>
  <unicode hex="00F7"/>
  <outline>
    <contour>
      <point x="55.795402298850576" y="324.87011494252874" type="line"/>
      <point x="454.07126436781607" y="324.87011494252874" type="line"/>
      <point x="454.07126436781607" y="390.12988505747126" type="line"/>
      <point x="55.795402298850576" y="390.12988505747126" type="line"/>
    </contour>
    <contour>
      <point x="255.43333333333334" y="109.87011494252873" type="curve" smooth="yes"/>
      <point x="283.60114942528736" y="109.87011494252873"/>
      <point x="306.6034482758621" y="125.11149425287356"/>
      <point x="306.6034482758621" y="168.0" type="curve" smooth="yes"/>
      <point x="306.6034482758621" y="211.88850574712643"/>
      <point x="283.60114942528736" y="226.12988505747126"/>
      <point x="255.43333333333334" y="226.12988505747126" type="curve" smooth="yes"/>
      <point x="226.03793103448277" y="226.12988505747126"/>
      <point x="203.89655172413794" y="211.88850574712643"/>
      <point x="203.89655172413794" y="168.0" type="curve" smooth="yes"/>
      <point x="203.89655172413794" y="125.11149425287356"/>
      <point x="226.03793103448277" y="109.87011494252873"/>
    </contour>
    <contour>
      <point x="255.43333333333334" y="488.87011494252874" type="curve" smooth="yes"/>
      <point x="283.60114942528736" y="488.87011494252874"/>
      <point x="306.6034482758621" y="504.11149425287357"/>
      <point x="306.6034482758621" y="547.0" type="curve" smooth="yes"/>
      <point x="306.6034482758621" y="590.8885057471264"/>
      <point x="283.60114942528736" y="605.1298850574713"/>
      <point x="255.43333333333334" y="605.1298850574713" type="curve" smooth="yes"/>
      <point x="226.03793103448277" y="605.1298850574713"/>
      <point x="203.89655172413794" y="590.8885057471264"/>
      <point x="203.89655172413794" y="547.0" type="curve" smooth="yes"/>
      <point x="203.89655172413794" y="504.11149425287357"/>
      <point x="226.03793103448277" y="488.87011494252874"/>
    </contour>
  </outline>
</glyph>
<glyph name="udatta-deva" format="2">
  <unicode hex="0951"/>
  <anchor x="0.0" y="560.0413793103448" name="_vedic"/>
  <outline>
    <contour>
      <point x="-32.51494252873563" y="925.46091954023" type="line"/>
      <point x="32.51494252873563" y="925.46091954023" type="line"/>
      <point x="32.51494252873563" y="1125.7574712643677" type="line"/>
      <point x="-32.51494252873563" y="1125.7574712643677" type="line"/>
    </contour>
  </outline>
</glyph>
<glyph name="anudatta-deva" format="2">
  <unicode hex="0952"/>
  <anchor x="0.0" y="0.0" name="_bottom"/>
  <outline>
    <contour>
      <point x="-199.0" y="-562.4068965517242" type="line"/>
      <point x="199.0" y="-562.4068965517242" type="line"/>
      <point x="199.0" y="-482.3310344827586" type="line"/>
      <point x="-199.0" y="-482.3310344827586" type="line"/>
    </contour>
  </outline>
</glyph>
<glyph name="danda-deva" format="2">
  <advance width="308.2770114942529"/>
  <unicode hex="0964"/>
  <outline>
    <contour>
      <point x="87.65172413793104" y="0.0" type="line"/>
      <point x="220.3977011494253" y="0.0" type="line"/>
      <point x="220.3977011494253" y="560.0413793103448" type="line"/>
      <point x="87.65172413793104" y="560.0413793103448" type="line"/>
    </contour>
  </outline>
</glyph>
<glyph name="dbldanda-deva" format="2">
  <advance width="561.0689655172414"/>
  <unicode hex="0965"/>
  <outline>
    <contour>
      <point x="340.67126436781604" y="0.0" type="line"/>
      <point x="473.4172413793104" y="0.0" type="line"/>
      <point x="473.4172413793104" y="560.0413793103448" type="line"/>
      <point x="340.67126436781604" y="560.0413793103448" type="line"/>
    </contour>
    <contour>
      <point x="87.65172413793104" y="0.0" type="line"/>
      <point x="220.3977011494253" y="0.0" type="line"/>
      <point x="220.3977011494253" y="560.0413793103448" type="line"/>
      <point x="87.65172413793104" y="560.0413793103448" type="line"/>
    </contour>
  </outline>
</glyph>
<glyph name="anusvara-tamil" format="2">
  <unicode hex="0B82"/>
  <note>
uni0B82
</note>
  <anchor x="0.0" y="560.0413793103448" name="_top"/>
  <outline>
    <contour>
      <point x="0.0" y="626.751724137931" type="curve" smooth="yes"/>
      <point x="72.37471264367817" y="626.751724137931"/>
      <point x="128.64942528735634" y="679.6597701149426"/>
      <point x="128.64942528735634" y="753.3528735632184" type="curve" smooth="yes"/>
      <point x="128.64942528735634" y="827.1471264367816"/>
      <point x="72.37471264367817" y="879.9666666666666"/>
      <point x="0.0" y="879.9666666666666" type="curve" smooth="yes"/>
      <point x="-72.37471264367817" y="879.9666666666666"/>
      <point x="-128.64942528735634" y="827.1471264367816"/>
      <point x="-128.64942528735634" y="753.3528735632184" type="curve" smooth="yes"/>
      <point x="-128.64942528735634" y="679.6597701149426"/>
      <point x="-72.37471264367817" y="626.751724137931"/>
    </contour>
    <contour>
      <point x="0.0" y="693.4344827586208" type="curve" smooth="yes"/>
      <point x="-32.60919540229885" y="693.4344827586208"/>
      <point x="-58.220689655172414" y="718.9574712643678"/>
      <point x="-58.220689655172414" y="753.3528735632184" type="curve" smooth="yes"/>
      <point x="-58.220689655172414" y="787.5954022988506"/>
      <point x="-32.60919540229885" y="813.1183908045977"/>
      <point x="0.0" y="813.1183908045977" type="curve" smooth="yes"/>
      <point x="32.60919540229885" y="813.1183908045977"/>
      <point x="58.220689655172414" y="787.5954022988506"/>
      <point x="58.220689655172414" y="753.3528735632184" type="curve" smooth="yes"/>
      <point x="58.220689655172414" y="718.9574712643678"/>
      <point x="32.60919540229885" y="693.4344827586208"/>
    </contour>
  </outline>
</glyph>
<glyph name="visarga-tamil" format="2">
  <advance width="844.9586206896552"/>
  <unicode hex="0B83"/>
  <note>
uni0B83
</note>
  <outline>
    <contour>
      <point x="625.9057471264367" y="-2.420689655172414" type="curve" smooth="yes"/>
      <point x="727.3988505747126" y="-2.420689655172414"/>
      <point x="794.6321839080459" y="71.21379310344828"/>
      <point x="794.6321839080459" y="184.83448275862068" type="curve" smooth="yes"/>
      <point x="794.6321839080459" y="297.848275862069"/>
      <point x="727.5379310344829" y="371.0896551724138"/>
      <point x="626.5" y="371.0896551724138" type="curve" smooth="yes"/>
      <point x="527.8137931034482" y="371.0896551724138"/>
      <point x="466.65632183908053" y="292.55172413793105"/>
      <point x="466.65632183908053" y="184.15172413793104" type="curve" smooth="yes"/>
      <point x="466.65632183908053" y="76.0551724137931"/>
      <point x="526.9919540229885" y="-2.420689655172414"/>
    </contour>
    <contour>
      <point x="210.67816091954023" y="-2.420689655172414" type="curve" smooth="yes"/>
      <point x="312.1712643678161" y="-2.420689655172414"/>
      <point x="378.783908045977" y="71.21379310344828"/>
      <point x="378.783908045977" y="184.83448275862068" type="curve" smooth="yes"/>
      <point x="378.783908045977" y="297.848275862069"/>
      <point x="312.0827586206896" y="371.0896551724138"/>
      <point x="211.0448275862069" y="371.0896551724138" type="curve" smooth="yes"/>
      <point x="112.10459770114942" y="371.0896551724138"/>
      <point x="51.18735632183908" y="292.55172413793105"/>
      <point x="51.18735632183908" y="184.15172413793104" type="curve" smooth="yes"/>
      <point x="51.18735632183908" y="76.0551724137931"/>
      <point x="111.28275862068966" y="-2.420689655172414"/>
    </contour>
    <contour>
      <point x="420.20459770114945" y="425.4068965517241" type="curve" smooth="yes"/>
      <point x="521.6977011494253" y="425.4068965517241"/>
      <point x="588.5379310344828" y="500.2344827586207"/>
      <point x="588.5379310344828" y="611.8896551724138" type="curve" smooth="yes"/>
      <point x="588.5379310344828" y="725.2827586206897"/>
      <point x="521.8367816091953" y="798.1448275862069"/>
      <point x="420.7988505747127" y="798.1448275862069" type="curve" smooth="yes"/>
      <point x="322.25172413793103" y="798.1448275862069"/>
      <point x="260.7011494252874" y="719.9862068965517"/>
      <point x="260.7011494252874" y="611.4344827586207" type="curve" smooth="yes"/>
      <point x="260.7011494252874" y="503.3379310344828"/>
      <point x="321.42988505747127" y="425.4068965517241"/>
    </contour>
    <contour>
      <point x="195.1206896551724" y="53.52873563218391" type="curve" smooth="yes"/>
      <point x="141.0758620689655" y="53.52873563218391"/>
      <point x="107.44827586206895" y="104.79655172413793"/>
      <point x="107.44827586206895" y="184.83448275862068" type="curve" smooth="yes"/>
      <point x="107.44827586206895" y="263.5057471264368"/>
      <point x="141.30344827586205" y="315.0011494252874"/>
      <point x="195.5758620689655" y="315.0011494252874" type="curve" smooth="yes"/>
      <point x="251.5701149425287" y="315.0011494252874"/>
      <point x="281.63448275862066" y="267.89310344827584"/>
      <point x="281.63448275862066" y="184.83448275862068" type="curve" smooth="yes"/>
      <point x="281.63448275862066" y="100.3080459770115"/>
      <point x="251.5701149425287" y="53.52873563218391"/>
    </contour>
    <contour>
      <point x="405.26781609195405" y="481.116091954023" type="curve" smooth="yes"/>
      <point x="350.82988505747124" y="481.116091954023"/>
      <point x="317.59540229885056" y="532.2183908045977"/>
      <point x="317.59540229885056" y="611.8896551724138" type="curve" smooth="yes"/>
      <point x="317.59540229885056" y="690.6999999999999"/>
      <point x="350.82988505747124" y="742.1954022988505"/>
      <point x="405.4954022988506" y="742.1954022988505" type="curve" smooth="yes"/>
      <point x="461.71724137931034" y="742.1954022988505"/>
      <point x="491.14827586206894" y="695.1885057471263"/>
      <point x="491.14827586206894" y="611.8896551724138" type="curve" smooth="yes"/>
      <point x="491.14827586206894" y="527.7425287356322"/>
      <point x="461.4896551724138" y="481.116091954023"/>
    </contour>
    <contour>
      <point x="610.9689655172414" y="53.52873563218391" type="curve" smooth="yes"/>
      <point x="556.9241379310346" y="53.52873563218391"/>
      <point x="522.9298850574713" y="104.79655172413793"/>
      <point x="522.9298850574713" y="184.83448275862068" type="curve" smooth="yes"/>
      <point x="522.9298850574713" y="263.5057471264368"/>
      <point x="556.9241379310346" y="315.0011494252874"/>
      <point x="611.196551724138" y="315.0011494252874" type="curve" smooth="yes"/>
      <point x="667.4183908045978" y="315.0011494252874"/>
      <point x="697.0896551724138" y="267.89310344827584"/>
      <point x="697.0896551724138" y="184.83448275862068" type="curve" smooth="yes"/>
      <point x="697.0896551724138" y="100.3080459770115"/>
      <point x="667.1908045977012" y="53.52873563218391"/>
    </contour>
  </outline>
</glyph>
<glyph name="a-tamil" format="2">
  <advance width="1242.242528735632"/>
  <unicode hex="0B85"/>
  <note>
uni0B85
</note>
  <anchor x="596.2896551724137" y="0.0" name="bottom"/>
  <anchor x="422.3827586206897" y="-137.49655172413793" name="nukta"/>
  <anchor x="599.8264367816093" y="560.0413793103448" name="top"/>
  <anchor x="600.332183908046" y="560.0413793103448" name="vedic"/>
  <outline>
    <contour>
      <point x="1027.4793103448276" y="-209.22413793103448" type="line"/>
      <point x="1158.2597701149427" y="-209.22413793103448" type="line"/>
      <point x="1158.2597701149427" y="560.0413793103448" type="line"/>
      <point x="1027.4793103448276" y="560.0413793103448" type="line"/>
      <point x="1027.4793103448276" y="167.04827586206898" type="line"/>
      <point x="118.64367816091954" y="167.04827586206898" type="line" smooth="yes"/>
      <point x="61.31609195402298" y="167.04827586206898"/>
      <point x="31.642528735632187" y="135.22068965517244"/>
      <point x="31.642528735632187" y="87.78620689655172" type="curve" smooth="yes"/>
      <point x="31.642528735632187" y="-16.02758620689655"/>
      <point x="182.81034482758622" y="-137.49655172413793"/>
      <point x="422.3827586206897" y="-137.49655172413793" type="curve" smooth="yes"/>
      <point x="719.5988505747126" y="-137.49655172413793"/>
      <point x="907.8114942528736" y="6.158620689655172"/>
      <point x="907.8114942528736" y="242.44827586206898" type="curve" smooth="yes"/>
      <point x="907.8114942528736" y="434.94482758620694"/>
      <point x="774.1425287356323" y="565.0413793103448"/>
      <point x="588.6747126436783" y="565.0413793103448" type="curve" smooth="yes"/>
      <point x="449.4942528735632" y="565.0413793103448"/>
      <point x="363.4632183908046" y="488.8413793103448"/>
      <point x="363.4632183908046" y="380.4896551724138" type="curve" smooth="yes"/>
      <point x="363.4632183908046" y="295.88965517241377"/>
      <point x="425.84712643678165" y="231.89655172413794"/>
      <point x="517.9655172413793" y="231.89655172413794" type="curve" smooth="yes"/>
      <point x="612.0080459770115" y="231.89655172413794"/>
      <point x="668.8655172413793" y="289.7103448275862"/>
      <point x="668.8655172413793" y="370.29655172413794" type="curve" smooth="yes"/>
      <point x="668.8655172413793" y="445.4206896551724"/>
      <point x="608.1379310344828" y="513.8896551724138"/>
      <point x="529.9379310344827" y="520.7172413793103" type="curve"/>
      <point x="475.2241379310345" y="515.5655172413793" type="line"/>
      <point x="527.8850574712643" y="498.92413793103447"/>
      <point x="571.1471264367816" y="444.7310344827586"/>
      <point x="571.1471264367816" y="385.5448275862069" type="curve" smooth="yes"/>
      <point x="571.1471264367816" y="338.57241379310346"/>
      <point x="545.7873563218392" y="301.88965517241377"/>
      <point x="498.8344827586207" y="301.88965517241377" type="curve" smooth="yes"/>
      <point x="461.1632183908046" y="301.88965517241377"/>
      <point x="427.2080459770115" y="328.1034482758621"/>
      <point x="427.2080459770115" y="384.58620689655174" type="curve" smooth="yes"/>
      <point x="427.2080459770115" y="452.6620689655173"/>
      <point x="480.7022988505747" y="506.07586206896553"/>
      <point x="573.4827586206898" y="506.07586206896553" type="curve" smooth="yes"/>
      <point x="678.7425287356322" y="506.07586206896553"/>
      <point x="778.3574712643679" y="422.9586206896552"/>
      <point x="778.3574712643679" y="256.91034482758624" type="curve" smooth="yes"/>
      <point x="778.3574712643679" y="32.83448275862069"/>
      <point x="614.4413793103448" y="-78.53103448275863"/>
      <point x="409.5275862068965" y="-78.53103448275863" type="curve" smooth="yes"/>
      <point x="221.55862068965519" y="-78.53103448275863"/>
      <point x="96.12758620689655" y="11.868965517241378"/>
      <point x="96.12758620689655" y="81.06896551724138" type="curve" smooth="yes"/>
      <point x="96.12758620689655" y="98.08275862068966"/>
      <point x="104.22988505747126" y="108.70344827586207"/>
      <point x="128.29655172413794" y="108.70344827586207" type="curve" smooth="yes"/>
      <point x="1027.4793103448276" y="108.70344827586207" type="line"/>
    </contour>
  </outline>
</glyph>
<glyph name="aa-tamil" format="2">
  <advance width="1433.4471264367814"/>
  <unicode hex="0B86"/>
  <note>
uni0B86
</note>
  <anchor x="705.8379310344827" y="0.0" name="bottom"/>
  <anchor x="422.3827586206897" y="-137.49655172413793" name="nukta"/>
  <anchor x="709.2218390804597" y="560.0413793103448" name="top"/>
  <anchor x="709.7413793103449" y="560.0413793103448" name="vedic"/>
  <outline>
    <contour>
      <point x="994.0999999999999" y="-436.98850574712645" type="curve" smooth="yes"/>
      <point x="1211.4149425287355" y="-436.98850574712645"/>
      <point x="1409.367816091954" y="-314.716091954023"/>
      <point x="1409.367816091954" y="-98.33218390804598" type="curve" smooth="yes"/>
      <point x="1409.367816091954" y="5.752873563218392"/>
      <point x="1359.1425287356321" y="68.9793103448276"/>
      <point x="1274.6586206896552" y="68.9793103448276" type="curve" smooth="yes"/>
      <point x="1192.0103448275863" y="68.9793103448276"/>
      <point x="1133.6367816091952" y="4.144827586206897"/>
      <point x="1126.0666666666666" y="-104.25632183908047" type="curve"/>
      <point x="1154.7574712643677" y="-112.82413793103449" type="line"/>
      <point x="1154.390804597701" y="-56.00919540229885"/>
      <point x="1190.6022988505747" y="-27.111494252873566"/>
      <point x="1224.1333333333332" y="-27.111494252873566" type="curve" smooth="yes"/>
      <point x="1264.0609195402299" y="-27.111494252873566"/>
      <point x="1286.2655172413795" y="-56.69770114942529"/>
      <point x="1286.2655172413795" y="-106.4655172413793" type="curve" smooth="yes"/>
      <point x="1285.8988505747127" y="-275.55172413793105"/>
      <point x="1136.012643678161" y="-378.8712643678161"/>
      <point x="982.6172413793104" y="-378.8712643678161" type="curve" smooth="yes"/>
      <point x="893.0183908045977" y="-378.8712643678161"/>
      <point x="797.7471264367816" y="-349.71379310344827"/>
      <point x="797.7471264367816" y="-277.0689655172414" type="curve" smooth="yes"/>
      <point x="797.7471264367816" y="-228.11264367816094"/>
      <point x="839.0931034482759" y="-198.2241379310345"/>
      <point x="899.283908045977" y="-189.17701149425287" type="curve"/>
      <point x="885.751724137931" y="-132.2873563218391" type="line"/>
      <point x="796.1310344827587" y="-149.88045977011495"/>
      <point x="736.8080459770116" y="-196.4862068965517"/>
      <point x="736.8080459770116" y="-272.9172413793104" type="curve" smooth="yes"/>
      <point x="736.8080459770116" y="-383.8827586206897"/>
      <point x="856.6367816091953" y="-436.98850574712645"/>
    </contour>
    <component base="a-tamil"/>
  </outline>
</glyph>
<glyph name="i-tamil" format="2">
  <advance width="967.5540229885058"/>
  <unicode hex="0B87"/>
  <note>
uni0B87
</note>
  <anchor x="466.25172413793103" y="0.0" name="bottom"/>
  <anchor x="464.25172413793103" y="-272.919540229885" name="nukta"/>
  <anchor x="484.3149425287356" y="840.8735632183908" name="top"/>
  <anchor x="472.251724137931" y="560.0413793103448" name="vedic"/>
  <outline>
    <contour>
      <point x="224.23103448275862" y="-311.8758620689655" type="curve" smooth="yes"/>
      <point x="514.2333333333333" y="-311.8758620689655"/>
      <point x="749.4862068965517" y="-61.02068965517242"/>
      <point x="749.4862068965517" y="235.3793103448276" type="curve" smooth="yes"/>
      <point x="749.4862068965517" y="437.1931034482759"/>
      <point x="634.6471264367816" y="565.0413793103448"/>
      <point x="457.0494252873563" y="565.0413793103448" type="curve" smooth="yes"/>
      <point x="324.56206896551726" y="565.0413793103448"/>
      <point x="241.14827586206897" y="491.2206896551724"/>
      <point x="241.14827586206897" y="381.2551724137931" type="curve" smooth="yes"/>
      <point x="241.14827586206897" y="295.6965517241379"/>
      <point x="304.4804597701149" y="236.20689655172413"/>
      <point x="384.3666666666667" y="236.20689655172413" type="curve" smooth="yes"/>
      <point x="475.3137931034483" y="236.20689655172413"/>
      <point x="530.2241379310345" y="291.48275862068965"/>
      <point x="530.2241379310345" y="372.4068965517241" type="curve" smooth="yes"/>
      <point x="530.2241379310345" y="443.9862068965517"/>
      <point x="470.31954022988504" y="510.9172413793103"/>
      <point x="382.1551724137931" y="523.6620689655173" type="curve"/>
      <point x="335.5241379310345" y="517.3586206896551" type="line"/>
      <point x="392.3022988505747" y="500.70344827586206"/>
      <point x="432.2643678160919" y="446.2896551724138"/>
      <point x="432.2643678160919" y="385.90344827586205" type="curve" smooth="yes"/>
      <point x="432.2643678160919" y="337.57241379310346"/>
      <point x="408.7655172413793" y="305.13563218390806"/>
      <point x="365.6896551724137" y="305.13563218390806" type="curve" smooth="yes"/>
      <point x="329.1724137931035" y="305.13563218390806"/>
      <point x="301.3551724137931" y="334.2068965517241"/>
      <point x="301.3551724137931" y="383.59999999999997" type="curve" smooth="yes"/>
      <point x="301.3551724137931" y="452.28275862068966"/>
      <point x="348.58965517241376" y="506.4689655172414"/>
      <point x="440.80689655172415" y="506.4689655172414" type="curve" smooth="yes"/>
      <point x="564.6149425287356" y="506.4689655172414"/>
      <point x="620.7149425287356" y="395.696551724138"/>
      <point x="620.7149425287356" y="247.93103448275863" type="curve" smooth="yes"/>
      <point x="620.7149425287356" y="-19.075862068965517"/>
      <point x="484.3850574712643" y="-252.68275862068967"/>
      <point x="229.832183908046" y="-252.68275862068967" type="curve" smooth="yes"/>
      <point x="156.20229885057472" y="-252.68275862068967"/>
      <point x="108.38160919540232" y="-217.76551724137929"/>
      <point x="108.38160919540232" y="-154.94022988505745" type="curve" smooth="yes"/>
      <point x="108.38160919540232" y="-26.52183908045977"/>
      <point x="298.5494252873563" y="50.8551724137931"/>
      <point x="462.5172413793103" y="50.8551724137931" type="curve" smooth="yes"/>
      <point x="625.6655172413793" y="50.8551724137931"/>
      <point x="819.6793103448276" y="-18.403448275862072"/>
      <point x="819.6793103448276" y="-148.45862068965516" type="curve" smooth="yes"/>
      <point x="819.6793103448276" y="-225.1022988505747"/>
      <point x="759.3494252873564" y="-252.68275862068967"/>
      <point x="683.6735632183909" y="-252.68275862068967" type="curve" smooth="yes"/>
      <point x="429.832183908046" y="-252.68275862068967"/>
      <point x="128.28505747126437" y="65.5183908045977"/>
      <point x="128.28505747126437" y="367.667816091954" type="curve" smooth="yes"/>
      <point x="128.28505747126437" y="625.7022988505746"/>
      <point x="293.28620689655173" y="732.5160919540231"/>
      <point x="483.3896551724137" y="732.5160919540231" type="curve" smooth="yes"/>
      <point x="712.6448275862069" y="732.5160919540231"/>
      <point x="850.267816091954" y="584.3919540229886"/>
      <point x="850.267816091954" y="329.46436781609196" type="curve" smooth="yes"/>
      <point x="850.267816091954" y="95.12413793103448" type="line"/>
      <point x="914.1609195402299" y="95.12413793103448" type="line"/>
      <point x="914.1609195402299" y="334.3057471264368" type="line" smooth="yes"/>
      <point x="914.1609195402299" y="671.4609195402298"/>
      <point x="751.8068965517241" y="840.8735632183908"/>
      <point x="484.3149425287356" y="840.8735632183908" type="curve" smooth="yes"/>
      <point x="238.18275862068964" y="840.8735632183908"/>
      <point x="58.60000000000001" y="679.0206896551724"/>
      <point x="58.60000000000001" y="412.30229885057474" type="curve" smooth="yes"/>
      <point x="58.60000000000001" y="44.47931034482758"/>
      <point x="389.5574712643678" y="-311.48275862068965"/>
      <point x="709.9103448275862" y="-311.48275862068965" type="curve" smooth="yes"/>
      <point x="811.8609195402299" y="-311.48275862068965"/>
      <point x="889.5919540229885" y="-258.8333333333333"/>
      <point x="889.5919540229885" y="-164.19655172413795" type="curve" smooth="yes"/>
      <point x="889.5919540229885" y="20.872413793103448"/>
      <point x="666.6206896551723" y="108.13793103448276"/>
      <point x="462.68275862068964" y="108.13793103448276" type="curve" smooth="yes"/>
      <point x="256.2655172413793" y="108.13793103448276"/>
      <point x="39.99885057471264" y="15.645977011494253"/>
      <point x="39.99885057471264" y="-155.1413793103448" type="curve" smooth="yes"/>
      <point x="39.99885057471264" y="-255.5919540229885"/>
      <point x="116.53218390804597" y="-311.8758620689655"/>
    </contour>
  </outline>
</glyph>
<glyph name="ii-tamil" format="2">
  <advance width="780.1747126436782"/>
  <unicode hex="0B88"/>
  <note>
uni0B88
</note>
  <anchor x="400.72183908045974" y="0.0" name="bottom"/>
  <anchor x="400.8609195402299" y="0.0" name="nukta"/>
  <anchor x="402.9494252873563" y="560.0413793103448" name="top"/>
  <anchor x="403.4816091954023" y="560.0413793103448" name="vedic"/>
  <outline>
    <contour>
      <point x="83.91839080459769" y="0.0" type="line"/>
      <point x="148.532183908046" y="0.0" type="line"/>
      <point x="148.532183908046" y="501.92413793103447" type="line"/>
      <point x="401.9252873563218" y="501.92413793103447" type="line"/>
      <point x="401.9252873563218" y="0.0" type="line"/>
      <point x="535.9126436781609" y="0.0" type="line"/>
      <point x="535.9126436781609" y="501.92413793103447" type="line"/>
      <point x="732.1586206896552" y="501.92413793103447" type="line"/>
      <point x="732.1586206896552" y="560.0413793103448" type="line"/>
      <point x="83.91839080459769" y="560.0413793103448" type="line"/>
    </contour>
    <contour>
      <point x="274.8620689655172" y="200.74137931034483" type="curve" smooth="yes"/>
      <point x="312.15057471264373" y="200.74137931034483"/>
      <point x="342.1206896551724" y="230.76206896551724"/>
      <point x="342.1206896551724" y="266.0632183908046" type="curve" smooth="yes"/>
      <point x="342.1206896551724" y="300.7310344827586"/>
      <point x="312.3781609195403" y="330.61264367816096"/>
      <point x="275.0896551724138" y="330.61264367816096" type="curve" smooth="yes"/>
      <point x="237.4344827586207" y="330.61264367816096"/>
      <point x="207.6919540229885" y="300.7310344827586"/>
      <point x="207.6919540229885" y="266.0632183908046" type="curve" smooth="yes"/>
      <point x="207.6919540229885" y="230.76206896551724"/>
      <point x="237.4344827586207" y="200.74137931034483"/>
    </contour>
    <contour>
      <point x="661.8494252873564" y="200.74137931034483" type="curve" smooth="yes"/>
      <point x="699.7712643678161" y="200.74137931034483"/>
      <point x="729.1080459770116" y="230.76206896551724"/>
      <point x="729.1080459770116" y="266.0632183908046" type="curve" smooth="yes"/>
      <point x="729.1080459770116" y="300.7310344827586"/>
      <point x="699.9988505747127" y="330.61264367816096"/>
      <point x="662.0770114942529" y="330.61264367816096" type="curve" smooth="yes"/>
      <point x="624.4218390804599" y="330.61264367816096"/>
      <point x="594.9195402298851" y="300.7310344827586"/>
      <point x="594.9195402298851" y="266.0632183908046" type="curve" smooth="yes"/>
      <point x="594.9195402298851" y="230.76206896551724"/>
      <point x="624.4218390804599" y="200.74137931034483"/>
    </contour>
  </outline>
</glyph>
<glyph name="u-tamil" format="2">
  <advance width="923.6275862068966"/>
  <unicode hex="0B89"/>
  <note>
uni0B89
</note>
  <anchor x="478.9540229885057" y="0.0" name="bottom"/>
  <anchor x="479.0931034482758" y="0.0" name="nukta"/>
  <anchor x="482.47356321839084" y="560.0413793103448" name="top"/>
  <anchor x="481.9540229885057" y="560.0413793103448" name="vedic"/>
  <outline>
    <contour>
      <point x="140.33218390804598" y="0.0" type="curve" smooth="yes"/>
      <point x="909.9620689655172" y="0.0" type="line"/>
      <point x="909.9620689655172" y="58.3448275862069" type="line"/>
      <point x="136.38045977011495" y="58.3448275862069" type="line" smooth="yes"/>
      <point x="117.24022988505747" y="58.3448275862069"/>
      <point x="101.10459770114943" y="72.72413793103448"/>
      <point x="101.10459770114943" y="95.07586206896552" type="curve" smooth="yes"/>
      <point x="101.10459770114943" y="118.2"/>
      <point x="117.01264367816091" y="132.18620689655174"/>
      <point x="136.38045977011495" y="132.18620689655174" type="curve" smooth="yes"/>
      <point x="365.2298850574712" y="132.18620689655174" type="line" smooth="yes"/>
      <point x="524.2448275862068" y="132.18620689655174"/>
      <point x="635.0275862068966" y="197.51724137931035"/>
      <point x="635.0275862068966" y="336.0620689655172" type="curve" smooth="yes"/>
      <point x="635.0275862068966" y="486.2344827586207"/>
      <point x="512.7655172413794" y="565.0413793103448"/>
      <point x="353.6471264367816" y="565.0413793103448" type="curve" smooth="yes"/>
      <point x="201.20229885057472" y="565.0413793103448"/>
      <point x="117.92988505747125" y="488.3965517241379"/>
      <point x="117.92988505747125" y="382.2241379310345" type="curve" smooth="yes"/>
      <point x="117.92988505747125" y="297.8781609195403"/>
      <point x="179.15402298850574" y="241.99310344827586"/>
      <point x="263.2379310344828" y="241.99310344827586" type="curve" smooth="yes"/>
      <point x="357.1942528735632" y="241.99310344827586"/>
      <point x="409.8816091954023" y="295.09195402298855"/>
      <point x="409.8816091954023" y="370.5620689655172" type="curve" smooth="yes"/>
      <point x="409.8816091954023" y="444.6988505747127"/>
      <point x="353.3873563218391" y="512.03908045977"/>
      <point x="273.7275862068966" y="520.2620689655172" type="curve"/>
      <point x="221.97011494252874" y="516.248275862069" type="line"/>
      <point x="278.95402298850576" y="496.17241379310343"/>
      <point x="314.91494252873565" y="441.2931034482758"/>
      <point x="314.91494252873565" y="385.25172413793103" type="curve" smooth="yes"/>
      <point x="314.91494252873565" y="338.69885057471265"/>
      <point x="290.2" y="307.14482758620693"/>
      <point x="248.4287356321839" y="307.14482758620693" type="curve" smooth="yes"/>
      <point x="208.96666666666667" y="307.14482758620693"/>
      <point x="181.43448275862067" y="334.9068965517241"/>
      <point x="181.43448275862067" y="384.851724137931" type="curve" smooth="yes"/>
      <point x="181.43448275862067" y="452.8241379310345"/>
      <point x="232.53563218390804" y="506.5310344827586"/>
      <point x="332.4413793103448" y="506.5310344827586" type="curve" smooth="yes"/>
      <point x="430.47011494252877" y="506.5310344827586"/>
      <point x="505.9022988505747" y="449.31724137931036"/>
      <point x="505.9022988505747" y="347.5931034482758" type="curve" smooth="yes"/>
      <point x="505.9022988505747" y="241.7034482758621"/>
      <point x="446.5793103448276" y="188.68275862068967"/>
      <point x="345.67931034482757" y="188.68275862068967" type="curve" smooth="yes"/>
      <point x="140.33218390804598" y="188.68275862068967" type="line" smooth="yes"/>
      <point x="80.60574712643678" y="188.68275862068967"/>
      <point x="40.95977011494253" y="155.86206896551724"/>
      <point x="40.95977011494253" y="95.07586206896552" type="curve" smooth="yes"/>
      <point x="40.95977011494253" y="34.83448275862069"/>
      <point x="80.83333333333333" y="0.0"/>
    </contour>
  </outline>
</glyph>
<glyph name="uu-tamil" format="2">
  <advance width="1629.9333333333332"/>
  <unicode hex="0B8A"/>
  <note>
uni0B8A
</note>
  <anchor x="837.8482758620689" y="0.0" name="bottom"/>
  <anchor x="838.0885057471264" y="0.0" name="nukta"/>
  <anchor x="840.4057471264367" y="560.0413793103448" name="top"/>
  <anchor x="840.8482758620689" y="560.0413793103448" name="vedic"/>
  <outline>
    <contour>
      <point x="139.0425287356322" y="0.0" type="curve" smooth="yes"/>
      <point x="1587.4333333333332" y="0.0" type="line"/>
      <point x="1587.4333333333332" y="58.3448275862069" type="line"/>
      <point x="135.09080459770118" y="58.3448275862069" type="line" smooth="yes"/>
      <point x="115.583908045977" y="58.3448275862069"/>
      <point x="101.10459770114943" y="72.72413793103448"/>
      <point x="101.10459770114943" y="95.07586206896552" type="curve" smooth="yes"/>
      <point x="101.10459770114943" y="118.2"/>
      <point x="115.583908045977" y="132.18620689655174"/>
      <point x="135.09080459770118" y="132.18620689655174" type="curve" smooth="yes"/>
      <point x="365.2298850574712" y="132.18620689655174" type="line" smooth="yes"/>
      <point x="524.2448275862068" y="132.18620689655174"/>
      <point x="635.0275862068966" y="197.51724137931035"/>
      <point x="635.0275862068966" y="336.0620689655172" type="curve" smooth="yes"/>
      <point x="635.0275862068966" y="486.2344827586207"/>
      <point x="512.7655172413794" y="565.0413793103448"/>
      <point x="353.6471264367816" y="565.0413793103448" type="curve" smooth="yes"/>
      <point x="201.20229885057472" y="565.0413793103448"/>
      <point x="117.92988505747125" y="488.3965517241379"/>
      <point x="117.92988505747125" y="382.2241379310345" type="curve" smooth="yes"/>
      <point x="117.92988505747125" y="297.8781609195403"/>
      <point x="179.15402298850574" y="241.99310344827586"/>
      <point x="263.2379310344828" y="241.99310344827586" type="curve" smooth="yes"/>
      <point x="357.1942528735632" y="241.99310344827586"/>
      <point x="409.8816091954023" y="295.09195402298855"/>
      <point x="409.8816091954023" y="370.5620689655172" type="curve" smooth="yes"/>
      <point x="409.8816091954023" y="444.6988505747127"/>
      <point x="353.3873563218391" y="512.03908045977"/>
      <point x="273.7275862068966" y="520.2620689655172" type="curve"/>
      <point x="221.97011494252874" y="516.248275862069" type="line"/>
      <point x="278.95402298850576" y="496.17241379310343"/>
      <point x="314.91494252873565" y="441.2931034482758"/>
      <point x="314.91494252873565" y="385.25172413793103" type="curve" smooth="yes"/>
      <point x="314.91494252873565" y="338.69885057471265"/>
      <point x="290.2" y="307.14482758620693"/>
      <point x="248.4287356321839" y="307.14482758620693" type="curve" smooth="yes"/>
      <point x="208.96666666666667" y="307.14482758620693"/>
      <point x="181.43448275862067" y="334.9068965517241"/>
      <point x="181.43448275862067" y="384.851724137931" type="curve" smooth="yes"/>
      <point x="181.43448275862067" y="452.8241379310345"/>
      <point x="232.53563218390804" y="506.5310344827586"/>
      <point x="332.4413793103448" y="506.5310344827586" type="curve" smooth="yes"/>
      <point x="430.47011494252877" y="506.5310344827586"/>
      <point x="505.9022988505747" y="449.31724137931036"/>
      <point x="505.9022988505747" y="347.5931034482758" type="curve" smooth="yes"/>
      <point x="505.9022988505747" y="241.7034482758621"/>
      <point x="446.5793103448276" y="188.68275862068967"/>
      <point x="345.67931034482757" y="188.68275862068967" type="curve" smooth="yes"/>
      <point x="139.0425287356322" y="188.68275862068967" type="line" smooth="yes"/>
      <point x="79.08850574712643" y="188.68275862068967"/>
      <point x="40.95977011494253" y="155.86206896551724"/>
      <point x="40.95977011494253" y="95.07586206896552" type="curve" smooth="yes"/>
      <point x="40.95977011494253" y="34.83448275862069"/>
      <point x="79.31609195402298" y="0.0"/>
    </contour>
    <contour>
      <point x="895.4264367816091" y="113.53103448275863" type="curve" smooth="yes"/>
      <point x="989.0160919540231" y="113.53103448275863"/>
      <point x="1050.6862068965518" y="166.4310344827586"/>
      <point x="1050.6862068965518" y="252.0344827586207" type="curve" smooth="yes"/>
      <point x="1050.6862068965518" y="341.22758620689655"/>
      <point x="991.519540229885" y="392.2137931034483"/>
      <point x="911.2919540229885" y="392.2137931034483" type="curve" smooth="yes"/>
      <point x="828.5264367816092" y="392.2137931034483"/>
      <point x="771.0678160919541" y="327.2344827586207"/>
      <point x="763.703448275862" y="234.26896551724138" type="curve"/>
      <point x="790.3241379310344" y="203.99310344827586" type="line"/>
      <point x="797.4747126436781" y="271.27586206896547"/>
      <point x="835.0919540229884" y="329.0896551724138"/>
      <point x="886.06091954023" y="329.0896551724138" type="curve" smooth="yes"/>
      <point x="923.5172413793103" y="329.0896551724138"/>
      <point x="951.848275862069" y="302.2793103448276"/>
      <point x="951.848275862069" y="255.75862068965517" type="curve" smooth="yes"/>
      <point x="951.848275862069" y="205.08505747126438"/>
      <point x="921.5827586206898" y="172.5103448275862"/>
      <point x="873.248275862069" y="172.5103448275862" type="curve" smooth="yes"/>
      <point x="814.532183908046" y="172.5103448275862"/>
      <point x="769.1781609195402" y="223.42758620689654"/>
      <point x="769.1781609195402" y="328.8068965517241" type="curve" smooth="yes"/>
      <point x="769.1781609195402" y="440.56436781609193"/>
      <point x="845.5632183908046" y="506.92413793103447"/>
      <point x="940.3425287356322" y="506.92413793103447" type="curve" smooth="yes"/>
      <point x="1043.7620689655173" y="506.92413793103447"/>
      <point x="1122.1505747126437" y="434.4896551724138"/>
      <point x="1123.0758620689655" y="315.93793103448274" type="curve"/>
      <point x="1178.9" y="315.93793103448274" type="line"/>
      <point x="1176.2781609195401" y="473.22758620689655"/>
      <point x="1078.109195402299" y="565.0413793103448"/>
      <point x="941.5494252873564" y="565.0413793103448" type="curve" smooth="yes"/>
      <point x="803.0827586206897" y="565.0413793103448"/>
      <point x="707.3862068965517" y="468.78850574712646"/>
      <point x="707.3862068965517" y="327.5931034482758" type="curve" smooth="yes"/>
      <point x="707.3862068965517" y="196.70344827586206"/>
      <point x="786.5103448275861" y="113.53103448275863"/>
    </contour>
    <contour>
      <point x="1123.0758620689655" y="116.12413793103448" type="line"/>
      <point x="1238.6666666666667" y="116.12413793103448" type="line"/>
      <point x="1238.6666666666667" y="503.5931034482759" type="line"/>
      <point x="1382.5781609195403" y="503.5931034482759" type="line"/>
      <point x="1382.5781609195403" y="116.12413793103448" type="line"/>
      <point x="1498.1954022988507" y="116.12413793103448" type="line"/>
      <point x="1498.1954022988507" y="503.5931034482759" type="line"/>
      <point x="1587.4333333333332" y="503.5931034482759" type="line"/>
      <point x="1587.4333333333332" y="560.0413793103448" type="line"/>
      <point x="1144.7471264367816" y="560.0413793103448" type="line"/>
      <point x="1145.4298850574714" y="376.6206896551724" type="line"/>
      <point x="1123.0758620689655" y="374.4206896551724" type="line"/>
    </contour>
  </outline>
</glyph>
<glyph name="e-tamil" format="2">
  <advance width="888.5459770114943"/>
  <unicode hex="0B8E"/>
  <note>
uni0B8E
</note>
  <anchor x="470.6701149425287" y="0.0" name="bottom"/>
  <anchor x="471.44252873563215" y="0.0" name="nukta"/>
  <anchor x="472.79655172413794" y="560.0413793103448" name="top"/>
  <anchor x="473.6701149425287" y="560.0413793103448" name="vedic"/>
  <outline>
    <contour>
      <point x="265.45402298850576" y="-5.0" type="curve" smooth="yes"/>
      <point x="376.3068965517242" y="-5.0"/>
      <point x="445.89770114942525" y="62.48735632183909"/>
      <point x="445.89770114942525" y="157.39540229885054" type="curve" smooth="yes"/>
      <point x="445.89770114942525" y="247.56896551724137"/>
      <point x="389.0310344827586" y="315.41379310344826"/>
      <point x="291.9103448275862" y="315.41379310344826" type="curve" smooth="yes"/>
      <point x="189.316091954023" y="315.41379310344826"/>
      <point x="122.94252873563217" y="235.98160919540229"/>
      <point x="115.18965517241378" y="114.25632183908047" type="curve"/>
      <point x="151.61494252873564" y="90.76781609195402" type="line"/>
      <point x="155.083908045977" y="183.7080459770115"/>
      <point x="196.0034482758621" y="238.91724137931033"/>
      <point x="252.4264367816092" y="238.91724137931033" type="curve" smooth="yes"/>
      <point x="306.4712643678161" y="238.91724137931033"/>
      <point x="331.27241379310345" y="196.14482758620687"/>
      <point x="331.27241379310345" y="151.52413793103446" type="curve" smooth="yes"/>
      <point x="331.27241379310345" y="99.89655172413792"/>
      <point x="301.7988505747127" y="56.90344827586207"/>
      <point x="240.39425287356323" y="56.90344827586207" type="curve" smooth="yes"/>
      <point x="163.85172413793103" y="56.90344827586207"/>
      <point x="111.9425287356322" y="135.3528735632184"/>
      <point x="111.9425287356322" y="257.1873563218391" type="curve" smooth="yes"/>
      <point x="111.9425287356322" y="404.2080459770115"/>
      <point x="206.93448275862067" y="501.92413793103447"/>
      <point x="386.1965517241379" y="501.92413793103447" type="curve" smooth="yes"/>
      <point x="593.9919540229886" y="501.92413793103447" type="line"/>
      <point x="593.9919540229886" y="0.0" type="line"/>
      <point x="725.3931034482758" y="0.0" type="line"/>
      <point x="725.3931034482758" y="501.92413793103447" type="line"/>
      <point x="870.0034482758621" y="501.92413793103447" type="line"/>
      <point x="870.0034482758621" y="560.0413793103448" type="line"/>
      <point x="380.1965517241379" y="560.0413793103448" type="line" smooth="yes"/>
      <point x="173.02988505747126" y="560.0413793103448"/>
      <point x="51.30689655172414" y="437.0241379310345"/>
      <point x="51.30689655172414" y="258.8080459770115" type="curve" smooth="yes"/>
      <point x="51.30689655172414" y="99.71724137931034"/>
      <point x="138.26091954022988" y="-5.0"/>
    </contour>
  </outline>
</glyph>
<glyph name="ee-tamil" format="2">
  <advance width="888.5459770114943"/>
  <unicode hex="0B8F"/>
  <note>
uni0B8F
</note>
  <anchor x="470.6701149425287" y="0.0" name="bottom"/>
  <anchor x="471.44252873563215" y="-193.75172413793103" name="nukta"/>
  <anchor x="473.8091954022988" y="560.0413793103448" name="top"/>
  <anchor x="473.6701149425287" y="560.0413793103448" name="vedic"/>
  <outline>
    <contour>
      <point x="449.0827586206897" y="-246.16551724137935" type="line"/>
      <point x="725.3931034482758" y="28.81264367816092" type="line"/>
      <point x="725.3931034482758" y="501.92413793103447" type="line"/>
      <point x="870.0034482758621" y="501.92413793103447" type="line"/>
      <point x="870.0034482758621" y="560.0413793103448" type="line"/>
      <point x="378.9954022988506" y="560.0413793103448" type="line" smooth="yes"/>
      <point x="171.8287356321839" y="560.0413793103448"/>
      <point x="51.30689655172414" y="437.0241379310345"/>
      <point x="51.30689655172414" y="258.8080459770115" type="curve" smooth="yes"/>
      <point x="51.30689655172414" y="99.71724137931034"/>
      <point x="138.26091954022988" y="-4.759770114942528"/>
      <point x="265.45402298850576" y="-4.759770114942528" type="curve" smooth="yes"/>
      <point x="376.3068965517242" y="-4.759770114942528"/>
      <point x="445.89770114942525" y="62.727586206896554"/>
      <point x="445.89770114942525" y="157.39540229885054" type="curve" smooth="yes"/>
      <point x="445.89770114942525" y="247.56896551724137"/>
      <point x="389.0310344827586" y="315.65402298850574"/>
      <point x="291.9103448275862" y="315.65402298850574" type="curve" smooth="yes"/>
      <point x="189.316091954023" y="315.65402298850574"/>
      <point x="122.94252873563217" y="235.98160919540229"/>
      <point x="115.18965517241378" y="114.49655172413793" type="curve"/>
      <point x="151.61494252873564" y="91.00804597701149" type="line"/>
      <point x="155.083908045977" y="183.94827586206895"/>
      <point x="196.4586206896552" y="238.91724137931033"/>
      <point x="252.65402298850574" y="238.91724137931033" type="curve" smooth="yes"/>
      <point x="306.6988505747127" y="238.91724137931033"/>
      <point x="331.27241379310345" y="196.38505747126436"/>
      <point x="331.27241379310345" y="151.52413793103446" type="curve" smooth="yes"/>
      <point x="331.27241379310345" y="100.13678160919541"/>
      <point x="301.7988505747127" y="56.90344827586207"/>
      <point x="240.62183908045978" y="56.90344827586207" type="curve" smooth="yes"/>
      <point x="164.30689655172415" y="56.90344827586207"/>
      <point x="112.17011494252874" y="133.3873563218391"/>
      <point x="112.17011494252874" y="257.1873563218391" type="curve" smooth="yes"/>
      <point x="112.17011494252874" y="404.2080459770115"/>
      <point x="206.93448275862067" y="501.92413793103447"/>
      <point x="386.1965517241379" y="501.92413793103447" type="curve" smooth="yes"/>
      <point x="593.9919540229886" y="501.92413793103447" type="line"/>
      <point x="593.9919540229886" y="-10.60344827586207" type="line"/>
      <point x="404.9574712643678" y="-201.67586206896553" type="line"/>
    </contour>
  </outline>
</glyph>
<glyph name="ai-tamil" format="2">
  <advance width="961.4172413793104"/>
  <unicode hex="0B90"/>
  <note>
uni0B90
</note>
  <anchor x="482.7" y="0.0" name="bottom"/>
  <anchor x="479.5264367816092" y="-311.10344827586204" name="nukta"/>
  <anchor x="495.90459770114944" y="560.0413793103448" name="top"/>
  <anchor x="494.7678160919541" y="560.0413793103448" name="vedic"/>
  <outline>
    <contour>
      <point x="286.88275862068963" y="-311.10344827586204" type="curve" smooth="yes"/>
      <point x="392.18850574712644" y="-311.10344827586204"/>
      <point x="476.50689655172414" y="-268.23218390804595"/>
      <point x="496.2091954022989" y="-174.71494252873563" type="curve"/>
      <point x="512.3781609195402" y="-243.01839080459771"/>
      <point x="575.5666666666666" y="-311.10344827586204"/>
      <point x="697.8540229885058" y="-311.10344827586204" type="curve" smooth="yes"/>
      <point x="829.4954022988506" y="-311.10344827586204"/>
      <point x="910.7436781609196" y="-238.36206896551724"/>
      <point x="910.7436781609196" y="-109.99885057471265" type="curve" smooth="yes"/>
      <point x="910.7436781609196" y="-46.10229885057471"/>
      <point x="887.2632183908046" y="9.94942528735632"/>
      <point x="844.7885057471265" y="69.47241379310346" type="curve"/>
      <point x="797.028735632184" y="38.54827586206897" type="line"/>
      <point x="833.2505747126437" y="-11.863218390804597"/>
      <point x="848.8275862068965" y="-54.89425287356322"/>
      <point x="848.8275862068965" y="-102.41379310344827" type="curve" smooth="yes"/>
      <point x="848.8275862068965" y="-197.9735632183908"/>
      <point x="792.4459770114943" y="-248.73793103448276"/>
      <point x="698.1701149425287" y="-248.73793103448276" type="curve" smooth="yes"/>
      <point x="605.3195402298851" y="-248.73793103448276"/>
      <point x="562.2344827586207" y="-175.32413793103447"/>
      <point x="562.2344827586207" y="-81.13793103448275" type="curve" smooth="yes"/>
      <point x="562.2344827586207" y="-34.627586206896545" type="line"/>
      <point x="436.5827586206897" y="-34.627586206896545" type="line"/>
      <point x="436.5827586206897" y="-92.15862068965518" type="line" smooth="yes"/>
      <point x="436.5827586206897" y="-202.13103448275862"/>
      <point x="384.632183908046" y="-251.46896551724137"/>
      <point x="308.31149425287356" y="-251.46896551724137" type="curve" smooth="yes"/>
      <point x="235.74597701149423" y="-251.46896551724137"/>
      <point x="182.2206896551724" y="-211.73103448275862"/>
      <point x="182.2206896551724" y="-120.66206896551724" type="curve" smooth="yes"/>
      <point x="182.2206896551724" y="35.103448275862064"/>
      <point x="310.47356321839084" y="62.06436781609196"/>
      <point x="517.8114942528736" y="78.07816091954022" type="curve" smooth="yes"/>
      <point x="727.6402298850576" y="94.86551724137931"/>
      <point x="909.1758620689656" y="147.20000000000002"/>
      <point x="909.1758620689656" y="345.75172413793103" type="curve" smooth="yes"/>
      <point x="909.1758620689656" y="501.95862068965516"/>
      <point x="813.1011494252874" y="565.4344827586208"/>
      <point x="689.255172413793" y="565.4344827586208" type="curve" smooth="yes"/>
      <point x="596.3678160919541" y="565.4344827586208"/>
      <point x="529.1" y="524.2126436781609"/>
      <point x="503.44252873563227" y="439.6954022988505" type="curve"/>
      <point x="472.0344827586207" y="523.3505747126437"/>
      <point x="387.8103448275862" y="565.4344827586208"/>
      <point x="289.93563218390807" y="565.4344827586208" type="curve" smooth="yes"/>
      <point x="153.45977011494253" y="565.4344827586208"/>
      <point x="55.788505747126436" y="483.82068965517243"/>
      <point x="55.788505747126436" y="349.9517241379311" type="curve" smooth="yes"/>
      <point x="55.788505747126436" y="238.10344827586206"/>
      <point x="126.19655172413793" y="156.72413793103448"/>
      <point x="224.83333333333334" y="156.72413793103448" type="curve" smooth="yes"/>
      <point x="309.6333333333334" y="156.72413793103448"/>
      <point x="368.85747126436786" y="201.73103448275862"/>
      <point x="368.85747126436786" y="281.46206896551723" type="curve" smooth="yes"/>
      <point x="368.85747126436786" y="362.0137931034483"/>
      <point x="318.48275862068965" y="410.9862068965517"/>
      <point x="244.08965517241376" y="410.9862068965517" type="curve" smooth="yes"/>
      <point x="181.0022988505747" y="410.9862068965517"/>
      <point x="114.00344827586207" y="372.41379310344826"/>
      <point x="104.8632183908046" y="247.51724137931035" type="curve"/>
      <point x="134.6816091954023" y="222.46896551724137" type="line"/>
      <point x="140.1367816091954" y="316.31034482758616"/>
      <point x="178.97816091954024" y="348.7747126436782"/>
      <point x="216.35402298850576" y="348.7747126436782" type="curve" smooth="yes"/>
      <point x="252.4103448275862" y="348.7747126436782"/>
      <point x="273.9218390804598" y="322.74942528735636"/>
      <point x="273.9218390804598" y="282.59999999999997" type="curve" smooth="yes"/>
      <point x="273.9218390804598" y="240.07701149425287"/>
      <point x="249.02643678160922" y="216.14482758620687"/>
      <point x="210.4103448275862" y="216.14482758620687" type="curve" smooth="yes"/>
      <point x="159.57241379310344" y="216.14482758620687"/>
      <point x="116.57586206896552" y="255.62068965517238"/>
      <point x="116.57586206896552" y="347.3724137931034" type="curve" smooth="yes"/>
      <point x="116.57586206896552" y="452.9448275862069"/>
      <point x="192.09885057471263" y="506.2413793103448"/>
      <point x="279.3425287356322" y="506.2413793103448" type="curve" smooth="yes"/>
      <point x="374.02758620689656" y="506.2413793103448"/>
      <point x="436.5827586206897" y="457.8770114942528"/>
      <point x="436.5827586206897" y="353.3137931034483" type="curve" smooth="yes"/>
      <point x="436.5827586206897" y="214.87586206896552" type="line"/>
      <point x="562.2344827586207" y="214.87586206896552" type="line"/>
      <point x="562.2344827586207" y="372.21724137931034" type="line" smooth="yes"/>
      <point x="562.2344827586207" y="453.8781609195402"/>
      <point x="600.4747126436782" y="506.0137931034483"/>
      <point x="668.8333333333334" y="506.0137931034483" type="curve" smooth="yes"/>
      <point x="744.2206896551724" y="506.0137931034483"/>
      <point x="778.2620689655173" y="451.14482758620693"/>
      <point x="778.2620689655173" y="360.5310344827586" type="curve" smooth="yes"/>
      <point x="778.2620689655173" y="193.85517241379313"/>
      <point x="655.4885057471264" y="138.00459770114944"/>
      <point x="428.01724137931035" y="120.70114942528735" type="curve" smooth="yes"/>
      <point x="219.7402298850575" y="105.45862068965518"/>
      <point x="51.30689655172414" y="65.08275862068966"/>
      <point x="51.30689655172414" y="-109.40689655172413" type="curve" smooth="yes"/>
      <point x="51.30689655172414" y="-240.26896551724138"/>
      <point x="152.88275862068966" y="-311.10344827586204"/>
    </contour>
  </outline>
</glyph>
<glyph name="o-tamil" format="2">
  <advance width="970.5850574712643"/>
  <unicode hex="0B92"/>
  <note>
uni0B92
</note>
  <anchor x="491.72068965517235" y="0.0" name="bottom"/>
  <anchor x="489.72068965517235" y="-335.0" name="nukta"/>
  <anchor x="484.72068965517235" y="560.0413793103448" name="top"/>
  <anchor x="484.72068965517235" y="560.0413793103448" name="vedic"/>
  <outline>
    <contour>
      <point x="356.7471264367817" y="-342.01839080459774" type="curve" smooth="yes"/>
      <point x="578.1724137931034" y="-342.01839080459774"/>
      <point x="581.8735632183908" y="-147.57356321839083"/>
      <point x="744.419540229885" y="-147.57356321839083" type="curve" smooth="yes"/>
      <point x="796.7229885057471" y="-147.57356321839083" type="line"/>
      <point x="796.7229885057471" y="-87.73103448275862" type="line"/>
      <point x="727.5057471264367" y="-87.73103448275862" type="line" smooth="yes"/>
      <point x="567.8540229885058" y="-87.73103448275862"/>
      <point x="486.0344827586207" y="68.183908045977"/>
      <point x="586.2632183908046" y="212.4241379310345" type="curve"/>
      <point x="592.0229885057472" y="209.183908045977" type="line"/>
      <point x="558.7494252873563" y="107.5758620689655"/>
      <point x="591.9275862068965" y="-4.772413793103448"/>
      <point x="731.3896551724139" y="-4.772413793103448" type="curve" smooth="yes"/>
      <point x="839.8287356321838" y="-4.772413793103448"/>
      <point x="919.9114942528736" y="73.86436781609196"/>
      <point x="919.9114942528736" y="199.14252873563217" type="curve" smooth="yes"/>
      <point x="919.9114942528736" y="428.13448275862066"/>
      <point x="712.3505747126437" y="565.0413793103448"/>
      <point x="462.29655172413794" y="565.0413793103448" type="curve" smooth="yes"/>
      <point x="243.14942528735634" y="565.0413793103448"/>
      <point x="51.30689655172414" y="438.23678160919536"/>
      <point x="51.30689655172414" y="235.4022988505747" type="curve" smooth="yes"/>
      <point x="51.30689655172414" y="90.01494252873565"/>
      <point x="138.74137931034483" y="-5.0"/>
      <point x="263.48850574712645" y="-5.0" type="curve" smooth="yes"/>
      <point x="372.7689655172414" y="-5.0"/>
      <point x="441.96666666666664" y="62.727586206896554"/>
      <point x="441.96666666666664" y="157.39540229885054" type="curve" smooth="yes"/>
      <point x="441.96666666666664" y="247.56896551724137"/>
      <point x="385.09999999999997" y="315.65402298850574"/>
      <point x="289.9448275862069" y="315.65402298850574" type="curve" smooth="yes"/>
      <point x="187.3505747126437" y="315.65402298850574"/>
      <point x="119.01149425287356" y="234.40919540229885"/>
      <point x="111.65172413793103" y="110.56551724137931" type="curve"/>
      <point x="147.683908045977" y="87.07701149425289" type="line"/>
      <point x="151.01379310344828" y="181.98275862068965"/>
      <point x="194.03793103448277" y="238.91724137931033"/>
      <point x="250.46091954022992" y="238.91724137931033" type="curve" smooth="yes"/>
      <point x="302.93333333333334" y="238.91724137931033"/>
      <point x="327.34137931034485" y="196.38505747126436"/>
      <point x="327.34137931034485" y="151.52413793103446" type="curve" smooth="yes"/>
      <point x="327.34137931034485" y="100.13678160919541"/>
      <point x="297.867816091954" y="56.90344827586207"/>
      <point x="238.4287356321839" y="56.90344827586207" type="curve" smooth="yes"/>
      <point x="164.0919540229885" y="56.90344827586207"/>
      <point x="111.9425287356322" y="122.60689655172415"/>
      <point x="111.9425287356322" y="234.5551724137931" type="curve" smooth="yes"/>
      <point x="111.9425287356322" y="405.07586206896553"/>
      <point x="282.7781609195402" y="509.2206896551724"/>
      <point x="459.6793103448276" y="509.2206896551724" type="curve" smooth="yes"/>
      <point x="651.9597701149424" y="509.2206896551724"/>
      <point x="794.209195402299" y="402.8965517241379"/>
      <point x="794.209195402299" y="217.74942528735633" type="curve" smooth="yes"/>
      <point x="794.209195402299" y="126.34712643678162"/>
      <point x="763.4183908045977" y="58.04137931034483"/>
      <point x="699.451724137931" y="58.04137931034483" type="curve" smooth="yes"/>
      <point x="621.7724137931035" y="58.04137931034483"/>
      <point x="610.9701149425288" y="166.19425287356322"/>
      <point x="663.9275862068965" y="265.0379310344827" type="curve"/>
      <point x="599.9045977011494" y="305.183908045977" type="line"/>
      <point x="443.1528735632184" y="148.7965517241379"/>
      <point x="465.3689655172414" y="-37.41494252873564"/>
      <point x="602.5149425287357" y="-109.00689655172414" type="curve"/>
      <point x="602.5149425287357" y="-114.00689655172414" type="line"/>
      <point x="473.2747126436782" y="-131.46206896551723"/>
      <point x="450.8942528735632" y="-274.23333333333335"/>
      <point x="324.7068965517242" y="-274.23333333333335" type="curve" smooth="yes"/>
      <point x="271.31264367816095" y="-274.23333333333335"/>
      <point x="236.59080459770115" y="-242.54022988505747"/>
      <point x="236.59080459770115" y="-193.91954022988503" type="curve" smooth="yes"/>
      <point x="236.59080459770115" y="-157.8793103448276"/>
      <point x="254.0873563218391" y="-130.6183908045977"/>
      <point x="290.81839080459775" y="-103.55747126436782" type="curve"/>
      <point x="253.18965517241378" y="-61.881609195402305" type="line"/>
      <point x="203.216091954023" y="-100.57586206896553"/>
      <point x="179.37701149425288" y="-140.0793103448276"/>
      <point x="179.37701149425288" y="-190.56091954022986" type="curve" smooth="yes"/>
      <point x="179.37701149425288" y="-278.4344827586207"/>
      <point x="249.6977011494253" y="-342.01839080459774"/>
    </contour>
  </outline>
</glyph>
<glyph name="oo-tamil" format="2">
  <advance width="970.5850574712643"/>
  <unicode hex="0B93"/>
  <note>
uni0B93
</note>
  <anchor x="479.9000000000001" y="0.0" name="bottom"/>
  <anchor x="477.9000000000001" y="-320.4873563218391" name="nukta"/>
  <anchor x="472.9000000000001" y="560.0413793103448" name="top"/>
  <anchor x="472.9000000000001" y="560.0413793103448" name="vedic"/>
  <outline>
    <contour>
      <point x="334.34942528735627" y="-360.2471264367816" type="curve" smooth="yes"/>
      <point x="577.4091954022989" y="-360.2471264367816"/>
      <point x="585.9356321839081" y="-147.57356321839083"/>
      <point x="739.2218390804597" y="-147.57356321839083" type="curve" smooth="yes"/>
      <point x="790.6034482758621" y="-147.57356321839083" type="line"/>
      <point x="790.6034482758621" y="-87.73103448275862" type="line"/>
      <point x="728.8816091954023" y="-87.73103448275862" type="line" smooth="yes"/>
      <point x="567.2643678160919" y="-87.73103448275862"/>
      <point x="486.935632183908" y="72.50804597701149"/>
      <point x="580.7597701149426" y="212.4241379310345" type="curve"/>
      <point x="586.912643678161" y="208.79080459770114" type="line"/>
      <point x="555.2114942528735" y="107.18275862068965"/>
      <point x="591.9275862068965" y="-4.772413793103448"/>
      <point x="731.3896551724139" y="-4.772413793103448" type="curve" smooth="yes"/>
      <point x="839.8287356321838" y="-4.772413793103448"/>
      <point x="919.9114942528736" y="73.86436781609196"/>
      <point x="919.9114942528736" y="199.14252873563217" type="curve" smooth="yes"/>
      <point x="919.9114942528736" y="428.13448275862066"/>
      <point x="712.3505747126437" y="565.0413793103448"/>
      <point x="462.29655172413794" y="565.0413793103448" type="curve" smooth="yes"/>
      <point x="243.14942528735634" y="565.0413793103448"/>
      <point x="51.30689655172414" y="438.23678160919536"/>
      <point x="51.30689655172414" y="235.4022988505747" type="curve" smooth="yes"/>
      <point x="51.30689655172414" y="90.01494252873565"/>
      <point x="138.74137931034483" y="-5.0"/>
      <point x="263.48850574712645" y="-5.0" type="curve" smooth="yes"/>
      <point x="372.7689655172414" y="-5.0"/>
      <point x="441.96666666666664" y="62.727586206896554"/>
      <point x="441.96666666666664" y="157.39540229885054" type="curve" smooth="yes"/>
      <point x="441.96666666666664" y="247.56896551724137"/>
      <point x="385.09999999999997" y="315.65402298850574"/>
      <point x="289.9448275862069" y="315.65402298850574" type="curve" smooth="yes"/>
      <point x="187.3505747126437" y="315.65402298850574"/>
      <point x="119.01149425287356" y="234.40919540229885"/>
      <point x="111.65172413793103" y="110.56551724137931" type="curve"/>
      <point x="147.683908045977" y="87.07701149425289" type="line"/>
      <point x="151.01379310344828" y="181.98275862068965"/>
      <point x="194.03793103448277" y="238.91724137931033"/>
      <point x="250.46091954022992" y="238.91724137931033" type="curve" smooth="yes"/>
      <point x="302.93333333333334" y="238.91724137931033"/>
      <point x="327.34137931034485" y="196.38505747126436"/>
      <point x="327.34137931034485" y="151.52413793103446" type="curve" smooth="yes"/>
      <point x="327.34137931034485" y="100.13678160919541"/>
      <point x="297.867816091954" y="56.90344827586207"/>
      <point x="238.4287356321839" y="56.90344827586207" type="curve" smooth="yes"/>
      <point x="164.0919540229885" y="56.90344827586207"/>
      <point x="111.9425287356322" y="122.60689655172415"/>
      <point x="111.9425287356322" y="234.5551724137931" type="curve" smooth="yes"/>
      <point x="111.9425287356322" y="405.07586206896553"/>
      <point x="282.7781609195402" y="509.2206896551724"/>
      <point x="459.6793103448276" y="509.2206896551724" type="curve" smooth="yes"/>
      <point x="651.9597701149424" y="509.2206896551724"/>
      <point x="794.209195402299" y="402.8965517241379"/>
      <point x="794.209195402299" y="217.74942528735633" type="curve" smooth="yes"/>
      <point x="794.209195402299" y="126.34712643678162"/>
      <point x="763.4183908045977" y="58.04137931034483"/>
      <point x="699.451724137931" y="58.04137931034483" type="curve" smooth="yes"/>
      <point x="621.7724137931035" y="58.04137931034483"/>
      <point x="605.0735632183909" y="166.19425287356322"/>
      <point x="658.4241379310345" y="265.0379310344827" type="curve"/>
      <point x="594.4011494252874" y="305.183908045977" type="line"/>
      <point x="435.9643678160919" y="147.22413793103448"/>
      <point x="466.8977011494253" y="-38.201149425287355"/>
      <point x="606.0091954022989" y="-109.79310344827586" type="curve"/>
      <point x="606.0091954022989" y="-114.79310344827586" type="line"/>
      <point x="474.2574712643679" y="-130.69770114942528"/>
      <point x="444.47241379310344" y="-294.88045977011495"/>
      <point x="299.77701149425286" y="-294.88045977011495" type="curve" smooth="yes"/>
      <point x="232.68045977011494" y="-294.88045977011495"/>
      <point x="199.95172413793102" y="-255.1758620689655"/>
      <point x="199.95172413793102" y="-209.80459770114942" type="curve" smooth="yes"/>
      <point x="199.95172413793102" y="-169.87471264367815"/>
      <point x="232.56436781609193" y="-141.33563218390807"/>
      <point x="269.0781609195402" y="-141.33563218390807" type="curve" smooth="yes"/>
      <point x="307.88505747126436" y="-141.33563218390807"/>
      <point x="336.1528735632184" y="-161.96206896551723"/>
      <point x="350.3724137931034" y="-208.33448275862068" type="curve"/>
      <point x="389.2011494252874" y="-190.6034482758621"/>
      <point x="413.6264367816092" y="-162.48505747126435"/>
      <point x="413.6264367816092" y="-131.4505747126437" type="curve" smooth="yes"/>
      <point x="413.6264367816092" y="-84.58275862068966"/>
      <point x="364.5885057471264" y="-56.842528735632186"/>
      <point x="308.47701149425285" y="-56.842528735632186" type="curve" smooth="yes"/>
      <point x="221.2126436781609" y="-56.842528735632186"/>
      <point x="143.1264367816092" y="-111.87471264367818"/>
      <point x="143.1264367816092" y="-205.01839080459771" type="curve" smooth="yes"/>
      <point x="143.1264367816092" y="-299.84137931034485"/>
      <point x="226.8574712643678" y="-360.2471264367816"/>
    </contour>
  </outline>
</glyph>
<glyph name="au-tamil" format="2">
  <advance width="2147.7195402298853"/>
  <unicode hex="0B94"/>
  <note>
uni0B94
</note>
  <anchor x="1100.5666666666666" y="0.0" name="bottom"/>
  <anchor x="1193.5666666666666" y="0.0" name="nukta"/>
  <anchor x="1093.794252873563" y="560.0413793103448" name="top"/>
  <anchor x="1093.794252873563" y="560.0413793103448" name="vedic"/>
  <outline>
    <contour>
      <point x="1213.928735632184" y="-4.759770114942528" type="curve" smooth="yes"/>
      <point x="1324.1747126436783" y="-4.759770114942528"/>
      <point x="1393.9793103448276" y="62.727586206896554"/>
      <point x="1393.9793103448276" y="157.39540229885054" type="curve" smooth="yes"/>
      <point x="1393.9793103448276" y="247.56896551724137"/>
      <point x="1336.8724137931033" y="315.65402298850574"/>
      <point x="1240.0057471264367" y="315.65402298850574" type="curve" smooth="yes"/>
      <point x="1137.7908045977013" y="315.65402298850574"/>
      <point x="1071.4172413793103" y="235.98160919540229"/>
      <point x="1063.525287356322" y="114.49655172413793" type="curve"/>
      <point x="1099.7229885057473" y="91.00804597701149" type="line"/>
      <point x="1103.1919540229885" y="183.94827586206895"/>
      <point x="1144.47816091954" y="238.91724137931033"/>
      <point x="1200.5218390804598" y="238.91724137931033" type="curve" smooth="yes"/>
      <point x="1254.5793103448277" y="238.91724137931033"/>
      <point x="1279.3804597701148" y="196.38505747126436"/>
      <point x="1279.3804597701148" y="151.52413793103446" type="curve" smooth="yes"/>
      <point x="1279.3804597701148" y="100.13678160919541"/>
      <point x="1250.0459770114942" y="56.90344827586207"/>
      <point x="1188.8689655172416" y="56.90344827586207" type="curve" smooth="yes"/>
      <point x="1111.9471264367814" y="56.90344827586207"/>
      <point x="1060.4172413793103" y="135.3528735632184"/>
      <point x="1060.4172413793103" y="257.1873563218391" type="curve" smooth="yes"/>
      <point x="1060.4172413793103" y="405.95862068965516"/>
      <point x="1152.4793103448278" y="505.33103448275864"/>
      <point x="1311.274712643678" y="505.33103448275864" type="curve" smooth="yes"/>
      <point x="1438.7436781609197" y="505.33103448275864"/>
      <point x="1541.6954022988505" y="428.72758620689655"/>
      <point x="1541.6954022988505" y="290.34137931034485" type="curve"/>
      <point x="1600.5080459770115" y="299.383908045977" type="line"/>
      <point x="1586.4862068965517" y="479.80804597701155"/>
      <point x="1457.8310344827587" y="565.0413793103448"/>
      <point x="1305.1793103448276" y="565.0413793103448" type="curve" smooth="yes"/>
      <point x="1116.4379310344827" y="565.0413793103448"/>
      <point x="999.5413793103448" y="439.5586206896552"/>
      <point x="999.5413793103448" y="258.8080459770115" type="curve" smooth="yes"/>
      <point x="999.5413793103448" y="99.71724137931034"/>
      <point x="1086.5080459770115" y="-4.759770114942528"/>
    </contour>
    <contour>
      <point x="1541.8344827586209" y="0.0" type="line"/>
      <point x="1672.8563218390802" y="0.0" type="line"/>
      <point x="1672.8563218390802" y="501.92413793103447" type="line"/>
      <point x="1853.9252873563219" y="501.92413793103447" type="line"/>
      <point x="1853.9252873563219" y="0.0" type="line"/>
      <point x="1984.8206896551724" y="0.0" type="line"/>
      <point x="1984.8206896551724" y="501.92413793103447" type="line"/>
      <point x="2129.177011494253" y="501.92413793103447" type="line"/>
      <point x="2129.177011494253" y="560.0413793103448" type="line"/>
      <point x="1566.2632183908047" y="560.0413793103448" type="line"/>
      <point x="1566.2632183908047" y="367.6551724137931" type="line"/>
      <point x="1541.8344827586209" y="373.4758620689655" type="line"/>
    </contour>
    <component base="o-tamil"/>
  </outline>
</glyph>
<glyph name="ka-tamil" format="2">
  <advance width="818.9885057471264"/>
  <unicode hex="0B95"/>
  <note>
uni0B95
</note>
  <anchor x="409.6275862068966" y="0.0" name="bottom"/>
  <anchor x="555.0540229885057" y="560.0413793103448" name="imatra"/>
  <anchor x="409.6275862068966" y="0.0" name="nukta"/>
  <anchor x="437.22068965517246" y="560.0413793103448" name="top"/>
  <anchor x="433.1689655172414" y="560.0413793103448" name="vedic"/>
  <outline>
    <contour>
      <point x="260.48275862068965" y="-4.0" type="curve" smooth="yes"/>
      <point x="420.816091954023" y="-4.0"/>
      <point x="506.76551724137937" y="78.9367816091954"/>
      <point x="506.76551724137937" y="211.0689655172414" type="curve" smooth="yes"/>
      <point x="506.76551724137937" y="266.8896551724138" type="line"/>
      <point x="533.8701149425287" y="266.8896551724138" type="line" smooth="yes"/>
      <point x="600.116091954023" y="266.8896551724138"/>
      <point x="639.3091954022989" y="229.4551724137931"/>
      <point x="639.3091954022989" y="156.7103448275862" type="curve" smooth="yes"/>
      <point x="639.3091954022989" y="95.22758620689655"/>
      <point x="603.277011494253" y="54.724137931034484"/>
      <point x="551.8586206896551" y="54.724137931034484" type="curve" smooth="yes"/>
      <point x="526.7114942528735" y="54.724137931034484" type="line"/>
      <point x="526.7114942528735" y="-3.013793103448276" type="line"/>
      <point x="580.2827586206896" y="-3.013793103448276" type="line" smooth="yes"/>
      <point x="675.9839080459769" y="-3.013793103448276"/>
      <point x="768.3908045977012" y="43.786206896551725"/>
      <point x="768.3908045977012" y="154.39310344827587" type="curve" smooth="yes"/>
      <point x="768.3908045977012" y="267.35862068965514"/>
      <point x="680.1735632183908" y="325.2344827586207"/>
      <point x="536.2103448275863" y="325.2344827586207" type="curve" smooth="yes"/>
      <point x="506.76551724137937" y="325.2344827586207" type="line"/>
      <point x="506.76551724137937" y="501.6965517241379" type="line"/>
      <point x="654.5229885057472" y="501.6965517241379" type="line"/>
      <point x="654.5229885057472" y="560.0413793103448" type="line"/>
      <point x="177.81379310344826" y="560.0413793103448" type="line"/>
      <point x="177.81379310344826" y="292.93103448275866" type="line"/>
      <point x="241.64137931034483" y="292.93103448275866" type="line"/>
      <point x="241.64137931034483" y="501.6965517241379" type="line"/>
      <point x="374.1229885057471" y="501.6965517241379" type="line"/>
      <point x="374.1229885057471" y="325.2344827586207" type="line"/>
      <point x="225.6057471264368" y="325.2344827586207" type="line" smooth="yes"/>
      <point x="121.25747126436782" y="325.2344827586207"/>
      <point x="54.650574712643675" y="259.848275862069"/>
      <point x="54.650574712643675" y="166.9655172413793" type="curve" smooth="yes"/>
      <point x="54.650574712643675" y="63.57011494252874"/>
      <point x="133.16436781609195" y="-4.0"/>
    </contour>
    <contour>
      <point x="243.17816091954023" y="57.13103448275862" type="curve" smooth="yes"/>
      <point x="166.11839080459768" y="57.13103448275862"/>
      <point x="121.65632183908045" y="97.94712643678162"/>
      <point x="121.65632183908045" y="165.35862068965517" type="curve" smooth="yes"/>
      <point x="121.65632183908045" y="224.9241379310345"/>
      <point x="157.92528735632186" y="266.8896551724138"/>
      <point x="234.52183908045976" y="266.8896551724138" type="curve" smooth="yes"/>
      <point x="374.1229885057471" y="266.8896551724138" type="line"/>
      <point x="374.1229885057471" y="200.2344827586207" type="line" smooth="yes"/>
      <point x="374.1229885057471" y="102.97931034482758"/>
      <point x="318.07931034482766" y="57.13103448275862"/>
    </contour>
  </outline>
</glyph>
<glyph name="nga-tamil" format="2">
  <advance width="975.9379310344827"/>
  <unicode hex="0B99"/>
  <note>
uni0B99
</note>
  <anchor x="486.47471264367823" y="0.0" name="bottom"/>
  <anchor x="533.6574712643678" y="560.0413793103448" name="imatra"/>
  <anchor x="486.1850574712643" y="0.0" name="nukta"/>
  <anchor x="489.4804597701149" y="560.0413793103448" name="top"/>
  <anchor x="487.09540229885056" y="560.0413793103448" name="vedic"/>
  <outline>
    <contour>
      <point x="83.91839080459769" y="0.0" type="line"/>
      <point x="146.79195402298853" y="0.0" type="line"/>
      <point x="146.79195402298853" y="501.92413793103447" type="line"/>
      <point x="283.23678160919536" y="501.92413793103447" type="line"/>
      <point x="283.23678160919536" y="185.24137931034483" type="line"/>
      <point x="406.01264367816094" y="185.24137931034483" type="line"/>
      <point x="406.01264367816094" y="228.0126436781609" type="line" smooth="yes"/>
      <point x="406.01264367816094" y="271.264367816092"/>
      <point x="432.1183908045977" y="298.18275862068964"/>
      <point x="468.00344827586207" y="298.18275862068964" type="curve" smooth="yes"/>
      <point x="506.5459770114943" y="298.18275862068964"/>
      <point x="534.2942528735632" y="266.8448275862069"/>
      <point x="534.2942528735632" y="207.4344827586207" type="curve" smooth="yes"/>
      <point x="534.2942528735632" y="112.02068965517242"/>
      <point x="470.73333333333335" y="58.3448275862069"/>
      <point x="392.95862068965516" y="58.3448275862069" type="curve" smooth="yes"/>
      <point x="283.23678160919536" y="58.3448275862069" type="line"/>
      <point x="283.23678160919536" y="0.0" type="line"/>
      <point x="891.9551724137932" y="0.0" type="line"/>
      <point x="891.9551724137932" y="560.0413793103448" type="line"/>
      <point x="758.8425287356322" y="560.0413793103448" type="line"/>
      <point x="758.8425287356322" y="58.3448275862069" type="line"/>
      <point x="530.5" y="58.3448275862069" type="line"/>
      <point x="593.2413793103449" y="74.92183908045976"/>
      <point x="658.2241379310344" y="133.48505747126438"/>
      <point x="658.2241379310344" y="230.13793103448276" type="curve" smooth="yes"/>
      <point x="658.2241379310344" y="322.01149425287355"/>
      <point x="601.4689655172414" y="382.848275862069"/>
      <point x="518.7873563218391" y="382.848275862069" type="curve" smooth="yes"/>
      <point x="461.483908045977" y="382.848275862069"/>
      <point x="424.6908045977012" y="351.4114942528736"/>
      <point x="409.78735632183907" y="324.60114942528736" type="curve"/>
      <point x="409.78735632183907" y="501.92413793103447" type="line"/>
      <point x="558.0885057471264" y="501.92413793103447" type="line"/>
      <point x="558.0885057471264" y="560.0413793103448" type="line"/>
      <point x="83.91839080459769" y="560.0413793103448" type="line"/>
    </contour>
  </outline>
</glyph>
<glyph name="tta-tamil" format="2">
  <advance width="856.5068965517241"/>
  <unicode hex="0B9F"/>
  <note>
uni0B9F
</note>
  <anchor x="442.66091954022994" y="0.0" name="bottom"/>
  <anchor x="442.66091954022994" y="0.0" name="nukta"/>
  <anchor x="491.5586206896552" y="560.0413793103448" name="top"/>
  <anchor x="463.6068965517241" y="560.0413793103448" name="vedic"/>
  <outline>
    <contour>
      <point x="83.91839080459769" y="0.0" type="line"/>
      <point x="843.7505747126436" y="0.0" type="line"/>
      <point x="843.7505747126436" y="58.3448275862069" type="line"/>
      <point x="216.651724137931" y="58.3448275862069" type="line"/>
      <point x="216.651724137931" y="560.0413793103448" type="line"/>
      <point x="83.91839080459769" y="560.0413793103448" type="line"/>
    </contour>
  </outline>
</glyph>
<glyph name="nnna-tamil" format="2">
  <advance width="1286.696551724138"/>
  <unicode hex="0BA9"/>
  <note>
uni0BA9
</note>
  <anchor x="630.6804597701149" y="0.0" name="bottom"/>
  <anchor x="1128.3310344827587" y="560.0413793103448" name="imatra"/>
  <anchor x="631.135632183908" y="0.0" name="nukta"/>
  <anchor x="664.7126436781608" y="560.0413793103448" name="top"/>
  <anchor x="661.019540229885" y="560.0413793103448" name="vedic"/>
  <outline>
    <contour>
      <point x="265.8091954022988" y="-4.759770114942528" type="curve" smooth="yes"/>
      <point x="376.19425287356324" y="-4.759770114942528"/>
      <point x="445.7586206896551" y="62.727586206896554"/>
      <point x="445.7586206896551" y="157.39540229885054" type="curve" smooth="yes"/>
      <point x="445.7586206896551" y="247.56896551724137"/>
      <point x="388.8919540229885" y="315.65402298850574"/>
      <point x="291.7977011494253" y="315.65402298850574" type="curve" smooth="yes"/>
      <point x="189.8103448275862" y="315.65402298850574"/>
      <point x="123.5758620689655" y="235.98160919540229"/>
      <point x="115.82298850574712" y="114.49655172413793" type="curve"/>
      <point x="152.24827586206897" y="91.00804597701149" type="line"/>
      <point x="155.57816091954024" y="183.94827586206895"/>
      <point x="196.4977011494253" y="238.91724137931033"/>
      <point x="252.3137931034483" y="238.91724137931033" type="curve" smooth="yes"/>
      <point x="306.82643678160923" y="238.91724137931033"/>
      <point x="331.40000000000003" y="196.38505747126436"/>
      <point x="331.40000000000003" y="151.52413793103446" type="curve" smooth="yes"/>
      <point x="331.40000000000003" y="100.13678160919541"/>
      <point x="302.0655172413793" y="56.90344827586207"/>
      <point x="240.88850574712646" y="56.90344827586207" type="curve" smooth="yes"/>
      <point x="166.03218390804597" y="56.90344827586207"/>
      <point x="111.9425287356322" y="125.2632183908046"/>
      <point x="111.9425287356322" y="239.10459770114943" type="curve" smooth="yes"/>
      <point x="111.9425287356322" y="414.3436781609196"/>
      <point x="257.7241379310345" y="506.2413793103448"/>
      <point x="426.6965517241379" y="506.2413793103448" type="curve" smooth="yes"/>
      <point x="619.4689655172415" y="506.2413793103448"/>
      <point x="747.0551724137931" y="382.9402298850575"/>
      <point x="747.0551724137931" y="188.1528735632184" type="curve" smooth="yes"/>
      <point x="747.0551724137931" y="107.9425287356322"/>
      <point x="719.0402298850574" y="57.13103448275862"/>
      <point x="662.9459770114943" y="57.13103448275862" type="curve" smooth="yes"/>
      <point x="607.5954022988506" y="57.13103448275862"/>
      <point x="582.2540229885058" y="113.53908045977012"/>
      <point x="582.2540229885058" y="190.60114942528736" type="curve" smooth="yes"/>
      <point x="582.2540229885058" y="370.93793103448274"/>
      <point x="714.3172413793104" y="501.92413793103447"/>
      <point x="914.9942528735631" y="501.92413793103447" type="curve" smooth="yes"/>
      <point x="1268.1540229885056" y="501.92413793103447" type="line"/>
      <point x="1268.1540229885056" y="560.0413793103448" type="line"/>
      <point x="918.6643678160918" y="560.0413793103448" type="line" smooth="yes"/>
      <point x="684.7264367816092" y="560.0413793103448"/>
      <point x="521.5666666666666" y="405.1793103448276"/>
      <point x="521.5666666666666" y="197.9735632183908" type="curve" smooth="yes"/>
      <point x="521.5666666666666" y="73.76666666666667"/>
      <point x="575.3436781609195" y="-4.772413793103448"/>
      <point x="689.4275862068966" y="-4.772413793103448" type="curve" smooth="yes"/>
      <point x="798.8988505747126" y="-4.772413793103448"/>
      <point x="869.8666666666667" y="70.14022988505748"/>
      <point x="869.8666666666667" y="196.02298850574712" type="curve" smooth="yes"/>
      <point x="869.8666666666667" y="414.14482758620693"/>
      <point x="676.3379310344827" y="565.0413793103448"/>
      <point x="434.16896551724136" y="565.0413793103448" type="curve" smooth="yes"/>
      <point x="224.6574712643678" y="565.0413793103448"/>
      <point x="51.30689655172414" y="449.20459770114945"/>
      <point x="51.30689655172414" y="241.59885057471263" type="curve" smooth="yes"/>
      <point x="51.30689655172414" y="90.02068965517242"/>
      <point x="141.45402298850576" y="-4.759770114942528"/>
    </contour>
    <contour>
      <point x="992.3701149425286" y="0.0" type="line"/>
      <point x="1123.4045977011492" y="0.0" type="line"/>
      <point x="1123.4045977011492" y="530.9862068965517" type="line"/>
      <point x="992.3701149425286" y="530.9862068965517" type="line"/>
    </contour>
  </outline>
</glyph>
<glyph name="pa-tamil" format="2">
  <advance width="858.2252873563219"/>
  <unicode hex="0BAA"/>
  <note>
uni0BAA
</note>
  <anchor x="430.5540229885058" y="0.0" name="bottom"/>
  <anchor x="765.7862068965518" y="560.0413793103448" name="imatra"/>
  <anchor x="430.5540229885058" y="0.0" name="nukta"/>
  <anchor x="428.9310344827586" y="560.0413793103448" name="top"/>
  <anchor x="429.64367816091954" y="560.0413793103448" name="vedic"/>
  <outline>
    <contour>
      <point x="83.91839080459769" y="0.0" type="line"/>
      <point x="774.2425287356322" y="0.0" type="line"/>
      <point x="774.2425287356322" y="560.0413793103448" type="line"/>
      <point x="641.6356321839081" y="560.0413793103448" type="line"/>
      <point x="641.6356321839081" y="58.3448275862069" type="line"/>
      <point x="215.07931034482758" y="58.3448275862069" type="line"/>
      <point x="215.07931034482758" y="560.0413793103448" type="line"/>
      <point x="83.91839080459769" y="560.0413793103448" type="line"/>
    </contour>
  </outline>
</glyph>
<glyph name="ma-tamil" format="2">
  <advance width="870.2597701149426"/>
  <unicode hex="0BAE"/>
  <note>
uni0BAE
</note>
  <anchor x="433.6942528735632" y="0.0" name="bottom"/>
  <anchor x="785.9988505747126" y="560.0413793103448" name="imatra"/>
  <anchor x="434.3011494252874" y="0.0" name="nukta"/>
  <anchor x="470.22068965517246" y="560.0413793103448" name="top"/>
  <anchor x="450.07356321839075" y="560.0413793103448" name="vedic"/>
  <outline>
    <contour>
      <point x="83.91839080459769" y="0.0" type="line"/>
      <point x="661.8563218390805" y="0.0" type="line" smooth="yes"/>
      <point x="773.7873563218391" y="0.0"/>
      <point x="814.8252873563218" y="76.90459770114941"/>
      <point x="814.8252873563218" y="236.00919540229887" type="curve" smooth="yes"/>
      <point x="814.8252873563218" y="449.2885057471264"/>
      <point x="721.8264367816092" y="565.4344827586208"/>
      <point x="587.7379310344827" y="565.4344827586208" type="curve" smooth="yes"/>
      <point x="477.4666666666667" y="565.4344827586208"/>
      <point x="413.4574712643678" y="496.31149425287356"/>
      <point x="413.4574712643678" y="384.848275862069" type="curve" smooth="yes"/>
      <point x="413.4574712643678" y="58.3448275862069" type="line"/>
      <point x="216.651724137931" y="58.3448275862069" type="line"/>
      <point x="216.651724137931" y="560.0413793103448" type="line"/>
      <point x="83.91839080459769" y="560.0413793103448" type="line"/>
    </contour>
    <contour>
      <point x="545.6448275862068" y="58.3448275862069" type="line"/>
      <point x="545.6448275862068" y="390.4620689655173" type="line" smooth="yes"/>
      <point x="545.6448275862068" y="466.52988505747123"/>
      <point x="574.4379310344827" y="497.7862068965517"/>
      <point x="620.7862068965518" y="497.7862068965517" type="curve" smooth="yes"/>
      <point x="680.3344827586208" y="497.7862068965517"/>
      <point x="750.2379310344827" y="414.47126436781605"/>
      <point x="750.2379310344827" y="236.42988505747127" type="curve" smooth="yes"/>
      <point x="750.2379310344827" y="119.90459770114944"/>
      <point x="732.4758620689655" y="58.3448275862069"/>
      <point x="655.6172413793104" y="58.3448275862069" type="curve" smooth="yes"/>
    </contour>
  </outline>
</glyph>
<glyph name="la-tamil" format="2">
  <advance width="1022.1206896551724"/>
  <unicode hex="0BB2"/>
  <note>
uni0BB2
</note>
  <anchor x="509.73908045977004" y="0.0" name="bottom"/>
  <anchor x="509.5114942528735" y="0.0" name="nukta"/>
  <anchor x="539.7827586206897" y="560.0413793103448" name="top"/>
  <anchor x="508.1551724137931" y="560.0413793103448" name="vedic"/>
  <outline>
    <contour>
      <point x="265.6942528735632" y="-4.759770114942528" type="curve" smooth="yes"/>
      <point x="376.3068965517242" y="-4.759770114942528"/>
      <point x="445.89770114942525" y="62.727586206896554"/>
      <point x="445.89770114942525" y="157.39540229885054" type="curve" smooth="yes"/>
      <point x="445.89770114942525" y="247.56896551724137"/>
      <point x="389.0310344827586" y="315.65402298850574"/>
      <point x="291.9103448275862" y="315.65402298850574" type="curve" smooth="yes"/>
      <point x="189.55632183908045" y="315.65402298850574"/>
      <point x="123.18275862068965" y="235.98160919540229"/>
      <point x="115.42988505747127" y="114.49655172413793" type="curve"/>
      <point x="151.85517241379313" y="91.00804597701149" type="line"/>
      <point x="155.18505747126437" y="183.94827586206895"/>
      <point x="196.24367816091956" y="238.91724137931033"/>
      <point x="252.4264367816092" y="238.91724137931033" type="curve" smooth="yes"/>
      <point x="306.7114942528736" y="238.91724137931033"/>
      <point x="331.51264367816094" y="196.38505747126436"/>
      <point x="331.51264367816094" y="151.52413793103446" type="curve" smooth="yes"/>
      <point x="331.51264367816094" y="100.13678160919541"/>
      <point x="302.0390804597701" y="56.90344827586207"/>
      <point x="240.6344827586207" y="56.90344827586207" type="curve" smooth="yes"/>
      <point x="164.57241379310344" y="56.90344827586207"/>
      <point x="111.9425287356322" y="133.91149425287358"/>
      <point x="111.9425287356322" y="252.86321839080458" type="curve" smooth="yes"/>
      <point x="111.9425287356322" y="405.46321839080457"/>
      <point x="203.6781609195402" y="505.5586206896552"/>
      <point x="348.51264367816094" y="505.5586206896552" type="curve" smooth="yes"/>
      <point x="477.9724137931034" y="505.5586206896552"/>
      <point x="545.9367816091955" y="428.03793103448277"/>
      <point x="546.1643678160921" y="298.37931034482756" type="curve" smooth="yes"/>
      <point x="546.1643678160921" y="177.54712643678164" type="line" smooth="yes"/>
      <point x="546.1643678160921" y="61.93563218390805"/>
      <point x="617.951724137931" y="-2.420689655172414"/>
      <point x="734.3390804597701" y="-2.420689655172414" type="curve" smooth="yes"/>
      <point x="875.244827586207" y="-2.420689655172414"/>
      <point x="966.7873563218392" y="120.36206896551724"/>
      <point x="966.7873563218392" y="291.0" type="curve" smooth="yes"/>
      <point x="966.7873563218392" y="389.6505747126437"/>
      <point x="939.8620689655171" y="473.9"/>
      <point x="869.5793103448276" y="564.648275862069" type="curve"/>
      <point x="821.7540229885058" y="530.7977011494253" type="line"/>
      <point x="882.4563218390805" y="452.6275862068965"/>
      <point x="906.8850574712643" y="378.56321839080454"/>
      <point x="906.8850574712643" y="290.07586206896553" type="curve" smooth="yes"/>
      <point x="906.8850574712643" y="160.567816091954"/>
      <point x="841.4160919540229" y="60.55172413793104"/>
      <point x="761.1057471264368" y="60.55172413793104" type="curve" smooth="yes"/>
      <point x="705.7402298850575" y="60.55172413793104"/>
      <point x="678.1862068965518" y="95.16666666666667"/>
      <point x="678.1862068965518" y="171.47816091954024" type="curve" smooth="yes"/>
      <point x="678.1862068965518" y="303.56206896551726" type="line" smooth="yes"/>
      <point x="678.1862068965518" y="468.17586206896556"/>
      <point x="548.2448275862068" y="565.0413793103448"/>
      <point x="368.39885057471264" y="565.0413793103448" type="curve" smooth="yes"/>
      <point x="170.00114942528737" y="565.0413793103448"/>
      <point x="51.30689655172414" y="438.01724137931035"/>
      <point x="51.30689655172414" y="254.96436781609194" type="curve" smooth="yes"/>
      <point x="51.30689655172414" y="98.27586206896552"/>
      <point x="139.46206896551726" y="-4.759770114942528"/>
    </contour>
  </outline>
</glyph>
<glyph name="lla-tamil" format="2">
  <advance width="1199.2448275862068"/>
  <unicode hex="0BB3"/>
  <note>
uni0BB3
</note>
  <anchor x="641.2712643678161" y="0.0" name="bottom"/>
  <anchor x="1069.3758620689653" y="560.0413793103448" name="imatra"/>
  <anchor x="642.6494252873564" y="0.0" name="nukta"/>
  <anchor x="654.4586206896552" y="560.0413793103448" name="top"/>
  <anchor x="617.0793103448276" y="560.0413793103448" name="vedic"/>
  <outline>
    <contour>
      <point x="265.45402298850576" y="-4.759770114942528" type="curve" smooth="yes"/>
      <point x="376.3068965517242" y="-4.759770114942528"/>
      <point x="445.89770114942525" y="62.727586206896554"/>
      <point x="445.89770114942525" y="157.39540229885054" type="curve" smooth="yes"/>
      <point x="445.89770114942525" y="247.56896551724137"/>
      <point x="389.0310344827586" y="315.65402298850574"/>
      <point x="291.9103448275862" y="315.65402298850574" type="curve" smooth="yes"/>
      <point x="189.316091954023" y="315.65402298850574"/>
      <point x="122.94252873563217" y="235.98160919540229"/>
      <point x="115.18965517241378" y="114.49655172413793" type="curve"/>
      <point x="151.61494252873564" y="91.00804597701149" type="line"/>
      <point x="155.083908045977" y="183.94827586206895"/>
      <point x="196.0034482758621" y="238.91724137931033"/>
      <point x="252.4264367816092" y="238.91724137931033" type="curve" smooth="yes"/>
      <point x="306.4712643678161" y="238.91724137931033"/>
      <point x="331.27241379310345" y="196.38505747126436"/>
      <point x="331.27241379310345" y="151.52413793103446" type="curve" smooth="yes"/>
      <point x="331.27241379310345" y="100.13678160919541"/>
      <point x="301.7988505747127" y="56.90344827586207"/>
      <point x="240.39425287356323" y="56.90344827586207" type="curve" smooth="yes"/>
      <point x="163.85172413793103" y="56.90344827586207"/>
      <point x="111.9425287356322" y="135.3528735632184"/>
      <point x="111.9425287356322" y="257.1873563218391" type="curve" smooth="yes"/>
      <point x="111.9425287356322" y="405.95862068965516"/>
      <point x="204.37126436781608" y="505.33103448275864"/>
      <point x="363.26781609195405" y="505.33103448275864" type="curve" smooth="yes"/>
      <point x="490.26896551724144" y="505.33103448275864"/>
      <point x="593.3597701149425" y="428.72758620689655"/>
      <point x="593.3597701149425" y="290.34137931034485" type="curve"/>
      <point x="652.2735632183908" y="299.383908045977" type="line"/>
      <point x="638.3908045977012" y="479.80804597701155"/>
      <point x="509.96321839080457" y="565.0413793103448"/>
      <point x="357.07126436781607" y="565.0413793103448" type="curve" smooth="yes"/>
      <point x="168.20344827586206" y="565.0413793103448"/>
      <point x="51.30689655172414" y="439.5586206896552"/>
      <point x="51.30689655172414" y="258.8080459770115" type="curve" smooth="yes"/>
      <point x="51.30689655172414" y="99.71724137931034"/>
      <point x="138.26091954022988" y="-4.759770114942528"/>
    </contour>
    <contour>
      <point x="593.5873563218391" y="0.0" type="line"/>
      <point x="724.6218390804597" y="0.0" type="line"/>
      <point x="724.6218390804597" y="501.92413793103447" type="line"/>
      <point x="905.6908045977011" y="501.92413793103447" type="line"/>
      <point x="905.6908045977011" y="0.0" type="line"/>
      <point x="1036.4850574712643" y="0.0" type="line"/>
      <point x="1036.4850574712643" y="501.92413793103447" type="line"/>
      <point x="1180.7022988505746" y="501.92413793103447" type="line"/>
      <point x="1180.7022988505746" y="560.0413793103448" type="line"/>
      <point x="618.7885057471265" y="560.0413793103448" type="line"/>
      <point x="618.7885057471265" y="367.6551724137931" type="line"/>
      <point x="593.5873563218391" y="373.4758620689655" type="line"/>
    </contour>
  </outline>
</glyph>
<glyph name="va-tamil" format="2">
  <advance width="1090.1747126436783"/>
  <unicode hex="0BB5"/>
  <note>
uni0BB5
</note>
  <anchor x="575.048275862069" y="0.0" name="bottom"/>
  <anchor x="891.2068965517242" y="560.0413793103448" name="imatra"/>
  <anchor x="573.6827586206897" y="0.0" name="nukta"/>
  <anchor x="556.780459770115" y="560.0413793103448" name="top"/>
  <anchor x="531.106896551724" y="560.0413793103448" name="vedic"/>
  <outline>
    <contour>
      <point x="265.6942528735632" y="-4.759770114942528" type="curve" smooth="yes"/>
      <point x="376.3068965517242" y="-4.759770114942528"/>
      <point x="445.89770114942525" y="62.727586206896554"/>
      <point x="445.89770114942525" y="157.39540229885054" type="curve" smooth="yes"/>
      <point x="445.89770114942525" y="247.56896551724137"/>
      <point x="389.0310344827586" y="315.65402298850574"/>
      <point x="291.9103448275862" y="315.65402298850574" type="curve" smooth="yes"/>
      <point x="189.55632183908045" y="315.65402298850574"/>
      <point x="123.18275862068965" y="235.98160919540229"/>
      <point x="115.42988505747127" y="114.49655172413793" type="curve"/>
      <point x="151.85517241379313" y="91.00804597701149" type="line"/>
      <point x="155.18505747126437" y="183.94827586206895"/>
      <point x="196.24367816091956" y="238.91724137931033"/>
      <point x="252.4264367816092" y="238.91724137931033" type="curve" smooth="yes"/>
      <point x="306.7114942528736" y="238.91724137931033"/>
      <point x="331.51264367816094" y="196.38505747126436"/>
      <point x="331.51264367816094" y="151.52413793103446" type="curve" smooth="yes"/>
      <point x="331.51264367816094" y="100.13678160919541"/>
      <point x="302.0390804597701" y="56.90344827586207"/>
      <point x="240.6344827586207" y="56.90344827586207" type="curve" smooth="yes"/>
      <point x="164.57241379310344" y="56.90344827586207"/>
      <point x="111.9425287356322" y="133.91149425287358"/>
      <point x="111.9425287356322" y="252.86321839080458" type="curve" smooth="yes"/>
      <point x="111.9425287356322" y="400.7459770114943"/>
      <point x="203.2816091954023" y="505.5586206896552"/>
      <point x="365.1229885057471" y="505.5586206896552" type="curve" smooth="yes"/>
      <point x="505.47816091954024" y="505.5586206896552"/>
      <point x="596.9000000000001" y="405.33103448275864"/>
      <point x="596.9000000000001" y="260.04137931034484" type="curve" smooth="yes"/>
      <point x="596.9000000000001" y="164.75172413793103"/>
      <point x="566.393103448276" y="91.45977011494253"/>
      <point x="521.8413793103449" y="43.203448275862065" type="curve"/>
      <point x="540.5264367816092" y="0.0" type="line"/>
      <point x="1006.1919540229884" y="0.0" type="line"/>
      <point x="1006.1919540229884" y="560.0413793103448" type="line"/>
      <point x="873.6114942528735" y="560.0413793103448" type="line"/>
      <point x="873.6114942528735" y="58.3448275862069" type="line"/>
      <point x="629.0011494252873" y="58.3448275862069" type="line"/>
      <point x="684.6034482758621" y="113.30459770114942"/>
      <point x="722.9160919540229" y="184.85862068965517"/>
      <point x="722.9160919540229" y="273.42643678160914" type="curve" smooth="yes"/>
      <point x="722.9160919540229" y="446.24367816091956"/>
      <point x="581.7390804597702" y="565.0413793103448"/>
      <point x="385.5241379310345" y="565.0413793103448" type="curve" smooth="yes"/>
      <point x="171.03218390804597" y="565.0413793103448"/>
      <point x="51.30689655172414" y="432.7942528735632"/>
      <point x="51.30689655172414" y="254.96436781609194" type="curve" smooth="yes"/>
      <point x="51.30689655172414" y="98.27586206896552"/>
      <point x="139.46206896551726" y="-4.759770114942528"/>
    </contour>
  </outline>
</glyph>
<glyph name="sha-tamil" format="2">
  <advance width="1081.08275862069"/>
  <unicode hex="0BB6"/>
  <note>
uni0BB6
</note>
  <anchor x="547.7413793103448" y="0.0" name="bottom"/>
  <anchor x="843.1413793103449" y="560.0413793103448" name="imatra"/>
  <anchor x="547.7413793103448" y="0.0" name="nukta"/>
  <anchor x="548.6011494252874" y="560.0413793103448" name="top"/>
  <anchor x="553.0057471264369" y="560.0413793103448" name="vedic"/>
  <outline>
    <contour>
      <point x="287.32528735632184" y="-5.0" type="curve" smooth="yes"/>
      <point x="402.83678160919544" y="-5.0"/>
      <point x="485.1942528735632" y="46.144827586206894"/>
      <point x="485.1942528735632" y="202.05977011494252" type="curve" smooth="yes"/>
      <point x="485.1942528735632" y="501.92413793103447" type="line"/>
      <point x="616.8632183908047" y="501.92413793103447" type="line"/>
      <point x="616.8632183908047" y="168.0425287356322" type="line" smooth="yes"/>
      <point x="616.8632183908047" y="57.349425287356325"/>
      <point x="682.4402298850574" y="-5.0"/>
      <point x="789.4873563218391" y="-5.0" type="curve" smooth="yes"/>
      <point x="920.5896551724138" y="-5.0"/>
      <point x="1025.648275862069" y="119.86896551724138"/>
      <point x="1025.648275862069" y="328.4068965517241" type="curve" smooth="yes"/>
      <point x="1025.648275862069" y="481.44367816091955"/>
      <point x="982.3781609195402" y="560.0413793103448"/>
      <point x="873.587356321839" y="560.0413793103448" type="curve" smooth="yes"/>
      <point x="422.2666666666667" y="560.0413793103448" type="line"/>
      <point x="422.2666666666667" y="202.33793103448275" type="line" smooth="yes"/>
      <point x="422.2666666666667" y="80.79655172413793"/>
      <point x="371.06781609195406" y="59.710344827586205"/>
      <point x="312.2528735632184" y="59.710344827586205" type="curve" smooth="yes"/>
      <point x="254.09655172413792" y="59.710344827586205"/>
      <point x="213.8551724137931" y="92.06781609195403"/>
      <point x="213.8551724137931" y="182.44137931034481" type="curve" smooth="yes"/>
      <point x="213.8551724137931" y="560.0413793103448" type="line"/>
      <point x="80.74252873563219" y="560.0413793103448" type="line"/>
      <point x="80.74252873563219" y="189.07011494252873" type="line" smooth="yes"/>
      <point x="80.74252873563219" y="56.294252873563224"/>
      <point x="168.5448275862069" y="-5.0"/>
    </contour>
    <contour>
      <point x="820.3758620689655" y="61.07586206896552" type="curve" smooth="yes"/>
      <point x="775.0528735632184" y="61.07586206896552"/>
      <point x="748.6574712643677" y="88.24252873563218"/>
      <point x="748.6574712643677" y="154.61724137931034" type="curve" smooth="yes"/>
      <point x="748.6574712643677" y="501.92413793103447" type="line"/>
      <point x="866.4758620689656" y="501.92413793103447" type="line" smooth="yes"/>
      <point x="944.1298850574711" y="501.92413793103447"/>
      <point x="962.4919540229885" y="436.2689655172414"/>
      <point x="962.4919540229885" y="327.9862068965518" type="curve" smooth="yes"/>
      <point x="962.4919540229885" y="165.1448275862069"/>
      <point x="891.7620689655172" y="61.07586206896552"/>
    </contour>
  </outline>
</glyph>
<glyph name="sa-tamil" format="2">
  <advance width="1343.8080459770115"/>
  <unicode hex="0BB8"/>
  <note>
uni0BB8
</note>
  <anchor x="678.2379310344827" y="0.0" name="bottom"/>
  <anchor x="677.555172413793" y="0.0" name="nukta"/>
  <anchor x="666.4689655172415" y="560.0413793103448" name="top"/>
  <anchor x="676.4678160919541" y="560.0413793103448" name="vedic"/>
  <outline>
    <contour>
      <point x="574.744827586207" y="0.0" type="line"/>
      <point x="705.6908045977011" y="0.0" type="line"/>
      <point x="705.6908045977011" y="411.80229885057474" type="line" smooth="yes"/>
      <point x="705.6908045977011" y="472.90000000000003"/>
      <point x="734.1505747126438" y="506.02758620689656"/>
      <point x="788.9827586206897" y="506.02758620689656" type="curve" smooth="yes"/>
      <point x="839.6011494252873" y="506.02758620689656"/>
      <point x="864.8908045977012" y="474.4528735632184"/>
      <point x="864.8908045977012" y="423.47471264367823" type="curve" smooth="yes"/>
      <point x="864.8908045977012" y="178.74827586206897" type="line" smooth="yes"/>
      <point x="864.8908045977012" y="63.13678160919541"/>
      <point x="936.3114942528734" y="-2.420689655172414"/>
      <point x="1052.8379310344826" y="-2.420689655172414" type="curve" smooth="yes"/>
      <point x="1196.1586206896552" y="-2.420689655172414"/>
      <point x="1288.4747126436782" y="119.96896551724139"/>
      <point x="1288.4747126436782" y="291.0" type="curve" smooth="yes"/>
      <point x="1288.4747126436782" y="389.6505747126437"/>
      <point x="1261.1344827586208" y="474.14022988505747"/>
      <point x="1190.3712643678161" y="564.648275862069" type="curve"/>
      <point x="1140.558620689655" y="529.683908045977" type="line"/>
      <point x="1201.8425287356322" y="450.5528735632184"/>
      <point x="1225.383908045977" y="378.1701149425287"/>
      <point x="1225.383908045977" y="289.68275862068964" type="curve" smooth="yes"/>
      <point x="1225.383908045977" y="159.7816091954023"/>
      <point x="1159.9149425287355" y="60.55172413793104"/>
      <point x="1079.6183908045978" y="60.55172413793104" type="curve" smooth="yes"/>
      <point x="1028.4241379310345" y="60.55172413793104"/>
      <point x="996.9390804597703" y="95.16666666666667"/>
      <point x="996.9390804597703" y="172.67931034482757" type="curve" smooth="yes"/>
      <point x="996.9390804597703" y="395.5931034482759" type="line" smooth="yes"/>
      <point x="996.9390804597703" y="502.4091954022988"/>
      <point x="917.7114942528735" y="564.8137931034483"/>
      <point x="807.0149425287357" y="564.8137931034483" type="curve" smooth="yes"/>
      <point x="698.6724137931035" y="564.8137931034483"/>
      <point x="628.0482758620689" y="506.32758620689657"/>
      <point x="628.0482758620689" y="414.3206896551724" type="curve" smooth="yes"/>
      <point x="628.0482758620689" y="347.6712643678161" type="line"/>
      <point x="574.744827586207" y="347.6712643678161" type="line"/>
    </contour>
    <contour>
      <point x="269.9390804597701" y="-4.759770114942528" type="curve" smooth="yes"/>
      <point x="380.56436781609193" y="-4.759770114942528"/>
      <point x="448.94942528735635" y="62.727586206896554"/>
      <point x="448.94942528735635" y="157.39540229885054" type="curve" smooth="yes"/>
      <point x="448.94942528735635" y="247.56896551724137"/>
      <point x="393.26206896551724" y="315.65402298850574"/>
      <point x="295.7747126436782" y="315.65402298850574" type="curve" smooth="yes"/>
      <point x="184.50574712643677" y="315.65402298850574"/>
      <point x="124.56091954022988" y="226.94022988505748"/>
      <point x="119.16666666666667" y="114.10344827586206" type="curve"/>
      <point x="155.19885057471265" y="91.00804597701149" type="line"/>
      <point x="158.66781609195405" y="178.4448275862069"/>
      <point x="193.94482758620688" y="238.91724137931033"/>
      <point x="256.67126436781604" y="238.91724137931033" type="curve" smooth="yes"/>
      <point x="310.95632183908043" y="238.91724137931033"/>
      <point x="334.57816091954027" y="196.38505747126436"/>
      <point x="334.57816091954027" y="151.52413793103446" type="curve" smooth="yes"/>
      <point x="334.57816091954027" y="100.13678160919541"/>
      <point x="305.80229885057474" y="56.90344827586207"/>
      <point x="244.62528735632185" y="56.90344827586207" type="curve" smooth="yes"/>
      <point x="167.70344827586206" y="56.90344827586207"/>
      <point x="115.52643678160919" y="135.7459770114943"/>
      <point x="115.52643678160919" y="257.58045977011494" type="curve" smooth="yes"/>
      <point x="115.52643678160919" y="407.26666666666665"/>
      <point x="212.4505747126437" y="503.7586206896552"/>
      <point x="354.5448275862069" y="503.7586206896552" type="curve" smooth="yes"/>
      <point x="479.4" y="503.7586206896552"/>
      <point x="574.9724137931034" y="440.80229885057474"/>
      <point x="574.9724137931034" y="289.71379310344827" type="curve"/>
      <point x="643.722988505747" y="293.88620689655176" type="line"/>
      <point x="640.4229885057471" y="475.91379310344826"/>
      <point x="517.755172413793" y="565.4344827586208"/>
      <point x="359.3103448275862" y="565.4344827586208" type="curve" smooth="yes"/>
      <point x="178.7183908045977" y="565.4344827586208"/>
      <point x="54.650574712643675" y="445.14367816091954"/>
      <point x="54.650574712643675" y="258.8080459770115" type="curve" smooth="yes"/>
      <point x="54.650574712643675" y="99.71724137931034"/>
      <point x="142.4919540229885" y="-4.759770114942528"/>
    </contour>
  </outline>
</glyph>
<glyph name="aaMatra-tamil" format="2">
  <advance width="623.7045977011495"/>
  <unicode hex="0BBE"/>
  <note>
uni0BBE
</note>
  <anchor x="333.9885057471264" y="0.0" name="bottom"/>
  <anchor x="332.9885057471264" y="0.0" name="nukta"/>
  <anchor x="326.9885057471264" y="560.0413793103448" name="top"/>
  <anchor x="326.9885057471264" y="560.0413793103448" name="vedic"/>
  <outline>
    <contour>
      <point x="83.91839080459769" y="0.0" type="line"/>
      <point x="149.03793103448274" y="0.0" type="line"/>
      <point x="149.03793103448274" y="501.92413793103447" type="line"/>
      <point x="329.783908045977" y="501.92413793103447" type="line"/>
      <point x="329.783908045977" y="0.0" type="line"/>
      <point x="460.9448275862069" y="0.0" type="line"/>
      <point x="460.9448275862069" y="501.92413793103447" type="line"/>
      <point x="605.1620689655172" y="501.92413793103447" type="line"/>
      <point x="605.1620689655172" y="560.0413793103448" type="line"/>
      <point x="83.91839080459769" y="560.0413793103448" type="line"/>
    </contour>
  </outline>
</glyph>
<glyph name="iMatra-tamil" format="2">
  <advance width="216.3632183908046"/>
  <unicode hex="0BBF"/>
  <note>
uni0BBF
</note>
  <anchor x="-133.49425287356325" y="844.0402298850574" name="top"/>
  <outline>
    <contour>
      <point x="67.99425287356321" y="0.0" type="line"/>
      <point x="132.83563218390805" y="0.0" type="line"/>
      <point x="132.83563218390805" y="564.5137931034482" type="line" smooth="yes"/>
      <point x="132.83563218390805" y="737.9827586206895"/>
      <point x="24.27126436781609" y="844.0402298850574"/>
      <point x="-133.49425287356325" y="844.0402298850574" type="curve" smooth="yes"/>
      <point x="-273.8137931034483" y="844.0402298850574"/>
      <point x="-352.9655172413793" y="760.8333333333334"/>
      <point x="-352.9655172413793" y="659.1275862068966" type="curve" smooth="yes"/>
      <point x="-352.9655172413793" y="565.8448275862069"/>
      <point x="-290.8597701149425" y="508.2758620689655"/>
      <point x="-194.7494252873563" y="508.2758620689655" type="curve" smooth="yes"/>
      <point x="-191.383908045977" y="508.2758620689655" type="line"/>
      <point x="-191.383908045977" y="560.0413793103448" type="line"/>
      <point x="-194.7494252873563" y="560.0413793103448" type="line" smooth="yes"/>
      <point x="-243.23448275862071" y="560.0413793103448"/>
      <point x="-279.9862068965518" y="587.9298850574712"/>
      <point x="-279.9862068965518" y="637.1954022988506" type="curve" smooth="yes"/>
      <point x="-279.9862068965518" y="698.3862068965517"/>
      <point x="-225.29310344827587" y="734.703448275862"/>
      <point x="-139.00689655172417" y="734.703448275862" type="curve" smooth="yes"/>
      <point x="-16.764367816091955" y="734.703448275862"/>
      <point x="67.99425287356321" y="667.3827586206896"/>
      <point x="67.99425287356321" y="529.2172413793104" type="curve" smooth="yes"/>
    </contour>
  </outline>
</glyph>
<glyph name="iiMatra-tamil" format="2">
  <unicode hex="0BC0"/>
  <note>
uni0BC0
</note>
  <anchor x="0.0" y="560.0413793103448" name="_imatra"/>
  <anchor x="11.977011494252876" y="896.1103448275862" name="top"/>
  <outline>
    <contour>
      <point x="-28.47471264367816" y="504.27586206896547" type="curve" smooth="yes"/>
      <point x="0.0" y="504.27586206896547" type="line"/>
      <point x="0.0" y="560.0413793103448" type="line"/>
      <point x="-27.147126436781612" y="560.0413793103448" type="line" smooth="yes"/>
      <point x="-98.20574712643678" y="560.0413793103448"/>
      <point x="-145.34022988505748" y="608.1793103448276"/>
      <point x="-145.34022988505748" y="687.9103448275862" type="curve" smooth="yes"/>
      <point x="-145.34022988505748" y="775.5448275862069"/>
      <point x="-92.27356321839079" y="837.703448275862"/>
      <point x="2.975862068965518" y="837.703448275862" type="curve" smooth="yes"/>
      <point x="66.71149425287356" y="837.703448275862"/>
      <point x="107.38735632183909" y="801.2482758620689"/>
      <point x="107.38735632183909" y="741.5655172413792" type="curve" smooth="yes"/>
      <point x="107.38735632183909" y="701.3816091954022"/>
      <point x="81.99425287356323" y="671.6827586206897"/>
      <point x="43.48390804597701" y="671.6827586206897" type="curve" smooth="yes"/>
      <point x="-33.132183908045974" y="671.6827586206897"/>
      <point x="-48.99425287356322" y="770.1517241379311"/>
      <point x="-5.687356321839079" y="861.096551724138" type="curve"/>
      <point x="-53.720689655172414" y="865.096551724138" type="line"/>
      <point x="-122.55402298850575" y="740.7310344827586"/>
      <point x="-75.50459770114944" y="603.9241379310346"/>
      <point x="62.865517241379315" y="603.9241379310346" type="curve" smooth="yes"/>
      <point x="146.1" y="603.9241379310346"/>
      <point x="204.85402298850576" y="658.06091954023"/>
      <point x="204.85402298850576" y="734.396551724138" type="curve" smooth="yes"/>
      <point x="204.85402298850576" y="834.2896551724139"/>
      <point x="127.29655172413791" y="896.1103448275862"/>
      <point x="11.977011494252876" y="896.1103448275862" type="curve" smooth="yes"/>
      <point x="-118.9344827586207" y="896.1103448275862"/>
      <point x="-207.8528735632184" y="811.9206896551724"/>
      <point x="-207.8528735632184" y="690.9379310344827" type="curve" smooth="yes"/>
      <point x="-207.8528735632184" y="578.0896551724138"/>
      <point x="-134.3310344827586" y="504.27586206896547"/>
    </contour>
  </outline>
</glyph>
<glyph name="uMatra-tamil" format="2">
  <advance width="522.8298850574712"/>
  <unicode hex="0BC1"/>
  <note>
uni0BC1
</note>
  <anchor x="211.25862068965515" y="560.0413793103448" name="top"/>
  <outline>
    <contour>
      <point x="317.26781609195405" y="219.75172413793103" type="curve" smooth="yes"/>
      <point x="413.85057471264366" y="219.75172413793103"/>
      <point x="501.6954022988506" y="274.7"/>
      <point x="501.6954022988506" y="391.38275862068963" type="curve" smooth="yes"/>
      <point x="501.6954022988506" y="560.0413793103448" type="line"/>
      <point x="-262.22068965517246" y="560.0413793103448" type="line"/>
      <point x="-213.77241379310345" y="501.92413793103447" type="line"/>
      <point x="370.2057471264368" y="501.92413793103447" type="line"/>
      <point x="370.2057471264368" y="379.3298850574713" type="line" smooth="yes"/>
      <point x="370.2057471264368" y="317.4229885057471"/>
      <point x="333.92988505747127" y="286.3551724137931"/>
      <point x="288.1367816091954" y="286.3551724137931" type="curve" smooth="yes"/>
      <point x="234.26091954022988" y="286.3551724137931"/>
      <point x="206.11609195402298" y="319.9758620689655"/>
      <point x="206.11609195402298" y="395.44137931034487" type="curve" smooth="yes"/>
      <point x="206.11609195402298" y="528.6896551724137" type="line"/>
      <point x="142.90919540229885" y="528.6896551724137" type="line"/>
      <point x="142.90919540229885" y="403.9908045977011" type="line" smooth="yes"/>
      <point x="142.90919540229885" y="278.2459770114943"/>
      <point x="213.47241379310344" y="219.75172413793103"/>
    </contour>
  </outline>
</glyph>
<glyph name="uuMatra-tamil" format="2">
  <advance width="857.7574712643677"/>
  <unicode hex="0BC2"/>
  <note>
uni0BC2
</note>
  <anchor x="443.14482758620693" y="782.3793103448277" name="top"/>
  <outline>
    <contour>
      <point x="377.0551724137931" y="4.841379310344828" type="curve" smooth="yes"/>
      <point x="633.0149425287356" y="4.841379310344828"/>
      <point x="803.5885057471264" y="162.7103448275862"/>
      <point x="803.5885057471264" y="404.19310344827585" type="curve" smooth="yes"/>
      <point x="803.5885057471264" y="615.7724137931035"/>
      <point x="669.7655172413794" y="782.3793103448277"/>
      <point x="443.14482758620693" y="782.3793103448277" type="curve" smooth="yes"/>
      <point x="239.8896551724138" y="782.3793103448277"/>
      <point x="150.8367816091954" y="648.7183908045977"/>
      <point x="150.8367816091954" y="528.6517241379311" type="curve" smooth="yes"/>
      <point x="150.8367816091954" y="407.5942528735632" type="line" smooth="yes"/>
      <point x="150.8367816091954" y="279.68735632183905"/>
      <point x="221.72758620689655" y="219.75172413793103"/>
      <point x="327.44482758620694" y="219.75172413793103" type="curve" smooth="yes"/>
      <point x="421.8" y="219.75172413793103"/>
      <point x="508.9896551724139" y="273.84827586206893"/>
      <point x="508.9896551724139" y="391.38275862068963" type="curve" smooth="yes"/>
      <point x="508.9896551724139" y="560.0413793103448" type="line"/>
      <point x="-260.82643678160923" y="560.0413793103448" type="line"/>
      <point x="-218.3183908045977" y="501.92413793103447" type="line"/>
      <point x="377.74022988505754" y="501.92413793103447" type="line"/>
      <point x="377.74022988505754" y="379.3298850574713" type="line" smooth="yes"/>
      <point x="377.74022988505754" y="317.4229885057471"/>
      <point x="341.09770114942523" y="286.3551724137931"/>
      <point x="295.6712643678161" y="286.3551724137931" type="curve" smooth="yes"/>
      <point x="241.31494252873563" y="286.3551724137931"/>
      <point x="213.65057471264367" y="322.13793103448273"/>
      <point x="213.65057471264367" y="399.0448275862069" type="curve" smooth="yes"/>
      <point x="213.65057471264367" y="528.6517241379311" type="line" smooth="yes"/>
      <point x="213.65057471264367" y="626.4149425287355"/>
      <point x="292.41379310344826" y="717.7103448275863"/>
      <point x="420.68850574712644" y="717.7103448275863" type="curve" smooth="yes"/>
      <point x="602.7517241379312" y="717.7103448275863"/>
      <point x="668.8206896551724" y="580.4896551724138"/>
      <point x="668.8206896551724" y="415.5448275862069" type="curve" smooth="yes"/>
      <point x="668.8206896551724" y="208.96206896551723"/>
      <point x="568.196551724138" y="67.9241379310345"/>
      <point x="372.1494252873563" y="67.9241379310345" type="curve" smooth="yes"/>
      <point x="255.583908045977" y="67.9241379310345"/>
      <point x="158.4563218390805" y="112.55402298850574"/>
      <point x="84.5712643678161" y="215.7942528735632" type="curve"/>
      <point x="38.83448275862069" y="179.17241379310346" type="line"/>
      <point x="119.06206896551724" y="69.07816091954022"/>
      <point x="232.74597701149423" y="4.841379310344828"/>
    </contour>
  </outline>
</glyph>
<glyph name="eMatra-tamil" format="2">
  <advance width="811.9298850574712"/>
  <unicode hex="0BC6"/>
  <note>
uni0BC6
</note>
  <outline>
    <contour>
      <point x="322.1022988505747" y="-4.759770114942528" type="curve" smooth="yes"/>
      <point x="432.7149425287356" y="-4.759770114942528"/>
      <point x="501.9126436781609" y="62.727586206896554"/>
      <point x="501.9126436781609" y="158.04022988505747" type="curve" smooth="yes"/>
      <point x="501.9126436781609" y="252.67241379310343"/>
      <point x="445.04597701149424" y="320.9850574712644"/>
      <point x="346.5850574712644" y="320.9850574712644" type="curve" smooth="yes"/>
      <point x="240.64482758620687" y="320.9850574712644"/>
      <point x="172.05862068965519" y="236.1206896551724"/>
      <point x="165.9" y="108.21264367816092" type="curve"/>
      <point x="202.57701149425287" y="84.49655172413793" type="line"/>
      <point x="204.8448275862069" y="184.31494252873563"/>
      <point x="247.332183908046" y="244.24827586206897"/>
      <point x="307.6333333333333" y="244.24827586206897" type="curve" smooth="yes"/>
      <point x="362.980459770115" y="244.24827586206897"/>
      <point x="387.68045977011496" y="201.48850574712642"/>
      <point x="387.68045977011496" y="152.02988505747123" type="curve" smooth="yes"/>
      <point x="387.68045977011496" y="100.13678160919541"/>
      <point x="358.20689655172407" y="56.90344827586207"/>
      <point x="297.0298850574713" y="56.90344827586207" type="curve" smooth="yes"/>
      <point x="178.21609195402297" y="56.90344827586207"/>
      <point x="117.17011494252874" y="212.4655172413793"/>
      <point x="117.17011494252874" y="381.3689655172414" type="curve" smooth="yes"/>
      <point x="117.17011494252874" y="595.5919540229885"/>
      <point x="236.02988505747126" y="731.4666666666667"/>
      <point x="416.0494252873563" y="731.4666666666667" type="curve" smooth="yes"/>
      <point x="583.2632183908047" y="731.4666666666667"/>
      <point x="663.7885057471265" y="642.8528735632183"/>
      <point x="663.7885057471265" y="433.78045977011493" type="curve" smooth="yes"/>
      <point x="663.7885057471265" y="0.0" type="line"/>
      <point x="728.4022988505748" y="0.0" type="line"/>
      <point x="728.4022988505748" y="465.93793103448274" type="line" smooth="yes"/>
      <point x="728.4022988505748" y="714.0574712643678"/>
      <point x="626.5850574712643" y="840.8735632183908"/>
      <point x="419.51724137931035" y="840.8735632183908" type="curve" smooth="yes"/>
      <point x="192.1264367816092" y="840.8735632183908"/>
      <point x="56.29425287356322" y="648.6988505747127"/>
      <point x="56.29425287356322" y="389.84137931034485" type="curve" smooth="yes"/>
      <point x="56.29425287356322" y="181.76896551724136"/>
      <point x="150.39310344827584" y="-4.759770114942528"/>
    </contour>
  </outline>
</glyph>
<glyph name="eeMatra-tamil" format="2">
  <advance width="618.8172413793103"/>
  <unicode hex="0BC7"/>
  <note>
uni0BC7
</note>
  <outline>
    <contour>
      <point x="386.21724137931034" y="-5.0" type="curve" smooth="yes"/>
      <point x="492.51839080459774" y="-5.0"/>
      <point x="571.3977011494253" y="55.1"/>
      <point x="571.3977011494253" y="158.04022988505747" type="curve" smooth="yes"/>
      <point x="571.3977011494253" y="254.11379310344827"/>
      <point x="513.8229885057472" y="321.4655172413793"/>
      <point x="416.2356321839081" y="321.4655172413793" type="curve" smooth="yes"/>
      <point x="310.00344827586207" y="321.4655172413793"/>
      <point x="237.66321839080464" y="234.7126436781609"/>
      <point x="234.44942528735635" y="92.63333333333334" type="curve"/>
      <point x="272.97241379310344" y="70.10574712643677" type="line"/>
      <point x="273.2701149425288" y="184.0689655172414"/>
      <point x="318.2586206896552" y="244.7287356321839"/>
      <point x="377.9402298850575" y="244.7287356321839" type="curve" smooth="yes"/>
      <point x="432.2252873563218" y="244.7287356321839"/>
      <point x="457.0264367816093" y="201.96896551724137"/>
      <point x="457.0264367816093" y="152.02988505747123" type="curve" smooth="yes"/>
      <point x="457.0264367816093" y="93.52298850574712"/>
      <point x="419.3816091954023" y="56.90344827586207"/>
      <point x="361.3494252873563" y="56.90344827586207" type="curve" smooth="yes"/>
      <point x="255.51379310344828" y="56.90344827586207"/>
      <point x="117.39770114942529" y="190.26091954022988"/>
      <point x="117.39770114942529" y="417.7977011494253" type="curve" smooth="yes"/>
      <point x="117.39770114942529" y="644.8149425287356"/>
      <point x="255.51379310344828" y="778.716091954023"/>
      <point x="361.3494252873563" y="778.716091954023" type="curve" smooth="yes"/>
      <point x="419.3816091954023" y="778.716091954023"/>
      <point x="457.0264367816093" y="741.9574712643677"/>
      <point x="457.0264367816093" y="683.616091954023" type="curve" smooth="yes"/>
      <point x="457.0264367816093" y="633.5114942528735"/>
      <point x="432.2252873563218" y="590.8908045977012"/>
      <point x="377.9402298850575" y="590.8908045977012" type="curve" smooth="yes"/>
      <point x="318.2586206896552" y="590.8908045977012"/>
      <point x="273.2701149425288" y="651.4241379310346"/>
      <point x="272.97241379310344" y="766.1344827586207" type="curve"/>
      <point x="234.44942528735635" y="743.6195402298852" type="line"/>
      <point x="237.66321839080464" y="601.3"/>
      <point x="310.00344827586207" y="514.2551724137932"/>
      <point x="416.2356321839081" y="514.2551724137932" type="curve" smooth="yes"/>
      <point x="513.8229885057472" y="514.2551724137932"/>
      <point x="571.3977011494253" y="581.6712643678161"/>
      <point x="571.3977011494253" y="677.5793103448275" type="curve" smooth="yes"/>
      <point x="571.3977011494253" y="780.380459770115"/>
      <point x="492.51839080459774" y="840.480459770115"/>
      <point x="386.21724137931034" y="840.480459770115" type="curve" smooth="yes"/>
      <point x="224.80114942528738" y="840.480459770115"/>
      <point x="56.52183908045977" y="680.2"/>
      <point x="56.52183908045977" y="418.3034482758621" type="curve" smooth="yes"/>
      <point x="56.52183908045977" y="155.78620689655173"/>
      <point x="224.80114942528738" y="-5.0"/>
    </contour>
  </outline>
</glyph>
<glyph name="aiMatra-tamil" format="2">
  <advance width="1257.7632183908047"/>
  <unicode hex="0BC8"/>
  <note>
uni0BC8
</note>
  <outline>
    <contour>
      <point x="1011.3896551724139" y="-12.679310344827586" type="line"/>
      <point x="1138.5666666666666" y="40.190804597701145"/>
      <point x="1207.0896551724138" y="131.35402298850576"/>
      <point x="1207.0896551724138" y="261.6333333333333" type="curve" smooth="yes"/>
      <point x="1207.0896551724138" y="449.4551724137931"/>
      <point x="1060.9873563218391" y="565.0413793103448"/>
      <point x="865.864367816092" y="565.0413793103448" type="curve" smooth="yes"/>
      <point x="654.2977011494252" y="565.0413793103448"/>
      <point x="520.3655172413793" y="399.3551724137931"/>
      <point x="520.3655172413793" y="199.5896551724138" type="curve" smooth="yes"/>
      <point x="520.3655172413793" y="73.17701149425287"/>
      <point x="580.2908045977011" y="-5.165517241379311"/>
      <point x="690.8367816091954" y="-5.165517241379311" type="curve" smooth="yes"/>
      <point x="799.1022988505747" y="-5.165517241379311"/>
      <point x="868.6655172413795" y="69.74712643678163"/>
      <point x="868.6655172413795" y="195.62988505747126" type="curve" smooth="yes"/>
      <point x="868.6655172413795" y="411.9804597701149"/>
      <point x="679.0896551724137" y="564.648275862069"/>
      <point x="432.20344827586206" y="564.648275862069" type="curve" smooth="yes"/>
      <point x="222.69195402298848" y="564.648275862069"/>
      <point x="51.30689655172414" y="449.59770114942535"/>
      <point x="51.30689655172414" y="240.0264367816092" type="curve" smooth="yes"/>
      <point x="51.30689655172414" y="86.0896551724138"/>
      <point x="141.8471264367816" y="-5.152873563218391"/>
      <point x="265.8091954022988" y="-5.152873563218391" type="curve" smooth="yes"/>
      <point x="376.19425287356324" y="-5.152873563218391"/>
      <point x="445.7586206896551" y="61.94137931034483"/>
      <point x="445.7586206896551" y="157.0022988505747" type="curve" smooth="yes"/>
      <point x="445.7586206896551" y="246.78275862068963"/>
      <point x="388.8919540229885" y="314.867816091954"/>
      <point x="291.7977011494253" y="314.867816091954" type="curve" smooth="yes"/>
      <point x="187.45172413793102" y="314.867816091954"/>
      <point x="118.46551724137932" y="230.08505747126435"/>
      <point x="115.82298850574712" y="113.71034482758621" type="curve"/>
      <point x="152.24827586206897" y="90.22183908045977" type="line"/>
      <point x="155.71724137931037" y="183.5551724137931"/>
      <point x="196.4977011494253" y="238.5241379310345"/>
      <point x="252.3137931034483" y="238.5241379310345" type="curve" smooth="yes"/>
      <point x="306.82643678160923" y="238.5241379310345"/>
      <point x="331.40000000000003" y="195.59885057471263"/>
      <point x="331.40000000000003" y="150.73793103448276" type="curve" smooth="yes"/>
      <point x="331.40000000000003" y="99.35057471264369"/>
      <point x="302.0655172413793" y="56.51034482758621"/>
      <point x="240.88850574712646" y="56.51034482758621" type="curve" smooth="yes"/>
      <point x="166.03218390804597" y="56.51034482758621"/>
      <point x="111.9425287356322" y="121.72528735632183"/>
      <point x="111.9425287356322" y="238.71149425287356" type="curve" smooth="yes"/>
      <point x="111.9425287356322" y="409.6264367816092"/>
      <point x="243.96551724137927" y="505.848275862069"/>
      <point x="418.8344827586207" y="505.848275862069" type="curve" smooth="yes"/>
      <point x="621.8275862068965" y="505.848275862069"/>
      <point x="745.8540229885057" y="388.216091954023"/>
      <point x="745.8540229885057" y="191.69080459770115" type="curve" smooth="yes"/>
      <point x="745.8540229885057" y="108.33563218390805"/>
      <point x="717.6977011494254" y="58.310344827586206"/>
      <point x="663.4298850574713" y="58.310344827586206" type="curve" smooth="yes"/>
      <point x="610.5770114942529" y="58.310344827586206"/>
      <point x="581.0528735632183" y="110.83103448275861"/>
      <point x="581.0528735632183" y="196.14827586206897" type="curve" smooth="yes"/>
      <point x="581.0528735632183" y="364.58160919540234"/>
      <point x="681.5034482758621" y="506.2413793103448"/>
      <point x="858.025287356322" y="506.2413793103448" type="curve" smooth="yes"/>
      <point x="998.0931034482759" y="506.2413793103448"/>
      <point x="1084.871264367816" y="410.92758620689654"/>
      <point x="1084.871264367816" y="254.63908045977013" type="curve" smooth="yes"/>
      <point x="1084.871264367816" y="164.01149425287358"/>
      <point x="1052.941379310345" y="84.91264367816092"/>
      <point x="985.1620689655173" y="27.854022988505744" type="curve"/>
    </contour>
  </outline>
</glyph>
<glyph name="halant-tamil" format="2">
  <unicode hex="0BCD"/>
  <note>
uni0BCD
</note>
  <anchor x="0.0" y="560.0413793103448" name="_top"/>
  <outline>
    <contour>
      <point x="0.0" y="634.5241379310346" type="curve" smooth="yes"/>
      <point x="41.693103448275856" y="634.5241379310346"/>
      <point x="75.34597701149426" y="667.9620689655172"/>
      <point x="75.34597701149426" y="707.4275862068965" type="curve" smooth="yes"/>
      <point x="75.34597701149426" y="746.2724137931034"/>
      <point x="41.693103448275856" y="779.8494252873563"/>
      <point x="0.0" y="779.8494252873563" type="curve" smooth="yes"/>
      <point x="-41.693103448275856" y="779.8494252873563"/>
      <point x="-75.11839080459771" y="746.2724137931034"/>
      <point x="-75.11839080459771" y="707.4275862068965" type="curve" smooth="yes"/>
      <point x="-75.11839080459771" y="667.9620689655172"/>
      <point x="-41.693103448275856" y="634.5241379310346"/>
    </contour>
  </outline>
</glyph>
